<svg width="609" height="265" viewBox="0 0 609 265" fill="none" xmlns="http://www.w3.org/2000/svg">
<path d="M62.8496 66.08V0.540039H78.4896V52.02H104.03V66.08H62.8496Z" fill="white"/>
<path d="M106.41 10.1699C106.41 7.99992 107.16 6.15991 108.67 4.65991C110.18 3.15991 112.01 2.3999 114.18 2.3999C116.35 2.3999 118.22 3.14992 119.72 4.63992C121.22 6.12992 121.96 7.9799 121.96 10.1799C121.96 12.3799 121.21 14.1999 119.7 15.7399C118.19 17.2799 116.36 18.0399 114.19 18.0399C112.02 18.0399 110.26 17.2599 108.72 15.7099C107.18 14.1599 106.41 12.3099 106.41 10.1699ZM121.42 66.0799H107.09V25.3599L121.42 23.4199V66.0899V66.0799Z" fill="white"/>
<path d="M165.299 63.77C162.799 65.19 160.339 66.23 157.909 66.91C155.479 67.59 152.989 67.93 150.429 67.93C143.649 67.93 138.079 65.9 133.729 61.83C129.369 57.76 127.199 52.61 127.199 46.37C127.199 40.13 129.539 34.46 134.229 30.08C138.909 25.7 144.799 23.5 151.879 23.5C154.469 23.5 156.999 23.79 159.469 24.38C161.939 24.97 164.319 25.85 166.609 27.02L165.029 39.68C162.799 38.32 160.649 37.29 158.589 36.58C156.529 35.87 154.599 35.52 152.829 35.52C149.639 35.52 146.979 36.49 144.869 38.44C142.759 40.38 141.709 42.8 141.709 45.69C141.709 48.76 142.689 51.23 144.649 53.1C146.609 54.97 149.189 55.9 152.379 55.9C154.369 55.9 156.489 55.47 158.749 54.61C161.009 53.75 163.629 52.36 166.609 50.43L165.299 63.76V63.77Z" fill="white"/>
<path d="M210.579 51.52L208.999 64.04C206.229 65.37 203.499 66.35 200.819 66.98C198.139 67.61 195.429 67.93 192.679 67.93C185.899 67.93 180.429 65.98 176.269 62.08C172.109 58.18 170.029 53.09 170.029 46.83C170.029 40.57 172.309 34.77 176.859 30.26C181.409 25.75 186.939 23.5 193.449 23.5C199.019 23.5 203.599 25.15 207.169 28.45C210.739 31.75 212.529 36.02 212.529 41.26C212.529 42.07 212.469 43.37 212.349 45.15L212.309 45.42L211.039 47.27L183.239 48.04C183.449 50.78 184.599 53 186.679 54.71C188.759 56.42 191.379 57.26 194.539 57.26C196.769 57.26 199.249 56.78 201.979 55.81C204.709 54.85 207.579 53.41 210.589 51.52H210.579ZM183.549 41.89L201.219 41.35V40.72C201.219 38.58 200.469 36.83 198.959 35.45C197.449 34.07 195.549 33.39 193.259 33.39C190.699 33.39 188.559 34.14 186.839 35.63C185.119 37.12 184.019 39.21 183.539 41.89H183.549Z" fill="white"/>
<path d="M232.49 66.08H218.34V25.36H231.4V32.19C233.57 29.51 235.87 27.51 238.32 26.2C240.76 24.89 243.41 24.23 246.28 24.23C250.59 24.23 253.86 25.47 256.09 27.94C258.32 30.41 259.43 34.03 259.43 38.79V66.09H245.37V42.77C245.37 40.63 244.93 39.02 244.06 37.93C243.19 36.84 241.89 36.3 240.17 36.3C237.7 36.3 235.8 37.13 234.47 38.79C233.14 40.45 232.48 42.86 232.48 46.02V66.09L232.49 66.08Z" fill="white"/>
<path d="M303.04 63.77C300.54 65.19 298.08 66.23 295.65 66.91C293.22 67.59 290.73 67.93 288.17 67.93C281.39 67.93 275.819 65.9 271.469 61.83C267.109 57.76 264.939 52.61 264.939 46.37C264.939 40.13 267.279 34.46 271.969 30.08C276.649 25.7 282.54 23.5 289.62 23.5C292.21 23.5 294.739 23.79 297.209 24.38C299.679 24.97 302.059 25.85 304.349 27.02L302.77 39.68C300.54 38.32 298.389 37.29 296.329 36.58C294.269 35.87 292.339 35.52 290.569 35.52C287.379 35.52 284.719 36.49 282.609 38.44C280.499 40.38 279.449 42.8 279.449 45.69C279.449 48.76 280.43 51.23 282.39 53.1C284.35 54.97 286.93 55.9 290.12 55.9C292.11 55.9 294.23 55.47 296.49 54.61C298.75 53.75 301.369 52.36 304.349 50.43L303.04 63.76V63.77Z" fill="white"/>
<path d="M309.31 10.1699C309.31 7.99992 310.059 6.15991 311.569 4.65991C313.079 3.15991 314.909 2.3999 317.079 2.3999C319.249 2.3999 321.12 3.14992 322.62 4.63992C324.12 6.12992 324.859 7.9799 324.859 10.1799C324.859 12.3799 324.109 14.1999 322.599 15.7399C321.089 17.2799 319.259 18.0399 317.089 18.0399C314.919 18.0399 313.16 17.2599 311.62 15.7099C310.08 14.1599 309.31 12.3099 309.31 10.1699ZM324.319 66.0799H309.99V25.3599L324.319 23.4199V66.0899V66.0799Z" fill="white"/>
<path d="M373.03 25.3499V50.7999C373.03 53.9899 373.09 56.6799 373.21 58.8499C373.33 61.0199 373.51 62.8699 373.75 64.4099L360.6 68.0299L359.33 64.1399C357.55 65.4699 355.81 66.4399 354.11 67.0799C352.41 67.7199 350.62 68.0299 348.75 68.0299C343.51 68.0299 339.1 65.9399 335.53 61.7499C331.96 57.5599 330.17 52.3499 330.17 46.1099C330.17 39.5399 332.17 34.1199 336.18 29.8399C340.19 25.5599 345.25 23.4199 351.37 23.4199C352.79 23.4199 354.26 23.6199 355.8 24.0099C357.34 24.3999 359.04 24.9999 360.91 25.8199L373.02 25.3699L373.03 25.3499ZM358.84 35.6999C358 35.2199 357.19 34.8699 356.42 34.6599C355.65 34.4499 354.89 34.3399 354.14 34.3399C351.46 34.3399 349.2 35.4599 347.36 37.7099C345.52 39.9599 344.6 42.7799 344.6 46.1799C344.6 49.3699 345.41 52.0299 347.02 54.1599C348.63 56.2799 350.6 57.3499 352.92 57.3499C353.85 57.3499 354.81 57.0999 355.79 56.5999C356.77 56.0999 357.79 55.3399 358.84 54.3199V35.6999Z" fill="white"/>
<path d="M383.869 52.38V36.06H377.949V25.35H383.869V13.15L398.329 11.21V25.36H407.959V36.07H398.329V53.38C398.329 57.06 398.829 59.72 399.819 61.36C400.819 63 402.679 64.52 405.429 65.9L389.339 66.98C387.319 66.02 385.899 64.58 385.089 62.66C384.279 60.75 383.869 57.32 383.869 52.38Z" fill="white"/>
<path d="M438.42 25.3501H452.48V66.0701L439.42 68.0101V60.0501C437.22 62.7601 434.92 64.7701 432.5 66.0601C430.08 67.3501 427.45 68.0001 424.59 68.0001C420.28 68.0001 417 66.7601 414.76 64.2901C412.51 61.8201 411.39 58.2001 411.39 53.4401V25.3301H425.54V49.4701C425.54 51.6101 425.98 53.2301 426.85 54.3301C427.72 55.4301 429.02 55.9801 430.74 55.9801C433.21 55.9801 435.11 55.1401 436.44 53.4701C437.77 51.8001 438.43 49.3901 438.43 46.2601V25.3301L438.42 25.3501Z" fill="white"/>
<path d="M475.019 66.08H460.779V25.36H474.019L474.289 32.5001C475.919 29.6401 477.819 27.5601 480.009 26.2601C482.189 24.9601 484.909 24.3201 488.169 24.3201H489.299V39.5101H486.229C481.799 39.5101 478.819 40.01 477.299 41.0201C475.779 42.0301 475.019 44.4601 475.019 48.3201V66.08Z" fill="white"/>
<path d="M534.86 25.3499V50.7999C534.86 53.9899 534.92 56.6799 535.04 58.8499C535.16 61.0199 535.34 62.8699 535.58 64.4099L522.43 68.0299L521.16 64.1399C519.38 65.4699 517.64 66.4399 515.94 67.0799C514.24 67.7199 512.45 68.0299 510.58 68.0299C505.34 68.0299 500.93 65.9399 497.36 61.7499C493.79 57.5599 492 52.3499 492 46.1099C492 39.5399 494 34.1199 498.01 29.8399C502.02 25.5599 507.08 23.4199 513.2 23.4199C514.62 23.4199 516.09 23.6199 517.63 24.0099C519.17 24.3999 520.87 24.9999 522.74 25.8199L534.85 25.3699L534.86 25.3499ZM520.67 35.6999C519.83 35.2199 519.02 34.8699 518.25 34.6599C517.48 34.4499 516.72 34.3399 515.97 34.3399C513.29 34.3399 511.03 35.4599 509.19 37.7099C507.35 39.9599 506.43 42.7799 506.43 46.1799C506.43 49.3699 507.24 52.0299 508.85 54.1599C510.46 56.2799 512.43 57.3499 514.75 57.3499C515.68 57.3499 516.64 57.0999 517.62 56.5999C518.6 56.0999 519.62 55.3399 520.67 54.3199V35.6999Z" fill="white"/>
<path d="M578.83 57.59L577.91 64.89C576.29 65.66 574.7 66.23 573.14 66.6C571.57 66.97 569.99 67.15 568.39 67.15C564.43 67.15 561.24 66.01 558.82 63.73C556.39 61.45 555.18 58.49 555.18 54.83C555.18 51.17 556.51 47.79 559.16 45.17C561.81 42.54 565.04 41.23 568.84 41.23C572.09 41.23 574.76 42.19 576.84 44.12C578.92 46.05 579.96 48.54 579.96 51.6C579.96 52.07 579.92 52.83 579.85 53.87L579.82 54.03L579.08 55.11L562.86 55.56C562.98 57.16 563.65 58.46 564.86 59.45C566.07 60.44 567.6 60.94 569.45 60.94C570.75 60.94 572.2 60.66 573.79 60.1C575.38 59.54 577.06 58.7 578.81 57.6L578.83 57.59ZM563.06 51.97L573.37 51.65V51.28C573.37 50.03 572.93 49.01 572.05 48.21C571.17 47.41 570.06 47.01 568.73 47.01C567.24 47.01 565.99 47.44 564.99 48.32C563.99 49.19 563.35 50.41 563.07 51.97H563.06Z" fill="white"/>
<path d="M592.96 66.0801H584.71V42.3202H592.33V46.3001C593.6 44.7401 594.94 43.5702 596.36 42.8102C597.78 42.0502 599.33 41.6602 601 41.6602C603.51 41.6602 605.42 42.3802 606.72 43.8202C608.02 45.2602 608.67 47.3701 608.67 50.1501V66.0801H600.47V52.4702C600.47 51.2202 600.22 50.2801 599.71 49.6501C599.2 49.0201 598.44 48.7002 597.44 48.7002C596 48.7002 594.89 49.1801 594.12 50.1501C593.35 51.1201 592.96 52.5201 592.96 54.3701V66.0801Z" fill="white"/>
<path d="M66.0896 108.43C62.5696 104.8 59.0096 102.1 55.3896 100.34C51.7796 98.5799 47.9897 97.6999 44.0197 97.6999C37.1297 97.6999 31.4996 100.08 27.1196 104.83C22.7396 109.58 20.5497 115.69 20.5497 123.13C20.5497 130.57 22.7197 136.62 27.0597 141.24C31.3997 145.86 37.0597 148.18 44.0197 148.18C48.1397 148.18 52.2496 147.32 56.3496 145.6C60.4496 143.88 64.5396 141.3 68.6196 137.85L67.3796 159.47C63.8996 161.83 60.0896 163.63 55.9496 164.86C51.8096 166.1 47.5197 166.71 43.0597 166.71C38.2697 166.71 33.6697 165.96 29.2697 164.46C24.8697 162.96 20.8196 160.75 17.1096 157.84C11.8696 153.72 7.84958 148.7 5.06958 142.76C2.27958 136.83 0.889648 130.36 0.889648 123.36C0.889648 117.33 1.91961 111.68 3.97961 106.4C6.03961 101.12 9.02959 96.4599 12.9596 92.4199C16.9296 88.3799 21.5096 85.2799 26.7196 83.1299C31.9196 80.9799 37.4097 79.8999 43.1697 79.8999C47.7397 79.8999 52.0996 80.5399 56.2496 81.8099C60.4096 83.0799 64.3697 85.0099 68.1497 87.5899L66.0696 108.42L66.0896 108.43Z" fill="white"/>
<path d="M78.3496 94.62C78.3496 91.92 79.2797 89.64 81.1597 87.77C83.0297 85.9 85.3196 84.96 88.0096 84.96C90.6996 84.96 93.0396 85.89 94.8896 87.74C96.7396 89.59 97.6697 91.89 97.6697 94.62C97.6697 97.35 96.7296 99.62 94.8596 101.53C92.9896 103.44 90.6996 104.39 88.0096 104.39C85.3196 104.39 83.1196 103.43 81.2196 101.5C79.3096 99.57 78.3596 97.28 78.3596 94.62H78.3496ZM96.9896 164.08H79.1896V113.49L96.9896 111.08V164.09V164.08Z" fill="white"/>
<path d="M158.22 146L156.25 161.55C152.81 163.2 149.42 164.41 146.09 165.2C142.76 165.99 139.39 166.38 135.98 166.38C127.56 166.38 120.76 163.96 115.6 159.11C110.43 154.26 107.85 147.95 107.85 140.16C107.85 132.37 110.68 125.18 116.33 119.58C121.98 113.98 128.85 111.19 136.94 111.19C143.87 111.19 149.55 113.24 153.98 117.34C158.42 121.44 160.63 126.75 160.63 133.26C160.63 134.27 160.55 135.88 160.41 138.09L160.35 138.43L158.78 140.73L124.25 141.69C124.51 145.1 125.93 147.86 128.52 149.97C131.1 152.09 134.36 153.14 138.29 153.14C141.06 153.14 144.14 152.54 147.53 151.34C150.92 150.14 154.48 148.36 158.23 146.01L158.22 146ZM124.64 134.04L146.6 133.37V132.58C146.6 129.92 145.66 127.74 143.79 126.04C141.92 124.34 139.56 123.49 136.71 123.49C133.53 123.49 130.87 124.42 128.74 126.27C126.61 128.12 125.24 130.72 124.64 134.05V134.04Z" fill="white"/>
<path d="M189.12 164.08H171.54V113.49H187.77V121.97C190.47 118.64 193.33 116.16 196.36 114.53C199.39 112.9 202.69 112.09 206.24 112.09C211.59 112.09 215.65 113.63 218.42 116.69C221.19 119.76 222.58 124.25 222.58 130.17V164.09H205.12V135.12C205.12 132.46 204.58 130.46 203.49 129.11C202.4 127.76 200.79 127.09 198.66 127.09C195.59 127.09 193.23 128.12 191.58 130.18C189.93 132.24 189.11 135.23 189.11 139.16V164.09L189.12 164.08Z" fill="white"/>
<path d="M280.439 161.21C277.329 162.97 274.269 164.27 271.259 165.11C268.249 165.95 265.149 166.37 261.969 166.37C253.549 166.37 246.629 163.84 241.219 158.79C235.809 153.74 233.109 147.33 233.109 139.59C233.109 131.85 236.019 124.79 241.839 119.35C247.659 113.9 254.969 111.18 263.769 111.18C266.989 111.18 270.129 111.55 273.199 112.27C276.269 113 279.229 114.1 282.069 115.56L280.109 131.28C277.339 129.6 274.669 128.31 272.109 127.43C269.549 126.55 267.159 126.11 264.949 126.11C260.979 126.11 257.689 127.32 255.069 129.73C252.449 132.14 251.139 135.15 251.139 138.74C251.139 142.56 252.359 145.63 254.789 147.95C257.219 150.27 260.419 151.43 264.389 151.43C266.859 151.43 269.499 150.9 272.309 149.83C275.119 148.76 278.369 147.03 282.079 144.64L280.449 161.21H280.439Z" fill="white"/>
<path d="M291.92 94.62C291.92 91.92 292.85 89.64 294.73 87.77C296.6 85.9 298.89 84.96 301.58 84.96C304.27 84.96 306.61 85.89 308.46 87.74C310.31 89.59 311.24 91.89 311.24 94.62C311.24 97.35 310.3 99.62 308.43 101.53C306.56 103.44 304.27 104.39 301.58 104.39C298.89 104.39 296.69 103.43 294.79 101.5C292.88 99.57 291.93 97.28 291.93 94.62H291.92ZM310.56 164.08H292.76V113.49L310.56 111.08V164.09V164.08Z" fill="white"/>
<path d="M374.759 113.48V145.09C374.759 149.06 374.829 152.39 374.979 155.09C375.129 157.79 375.349 160.09 375.649 162L359.309 166.49L357.739 161.66C355.529 163.31 353.369 164.52 351.249 165.31C349.129 166.1 346.919 166.49 344.599 166.49C338.089 166.49 332.609 163.89 328.179 158.69C323.739 153.49 321.529 147.01 321.529 139.26C321.529 131.1 324.019 124.36 328.999 119.05C333.979 113.73 340.269 111.08 347.869 111.08C349.629 111.08 351.459 111.32 353.369 111.81C355.279 112.3 357.389 113.04 359.719 114.06L374.769 113.5L374.759 113.48ZM357.129 126.34C356.079 125.74 355.079 125.31 354.129 125.05C353.169 124.79 352.229 124.66 351.289 124.66C347.959 124.66 345.149 126.06 342.869 128.84C340.589 131.63 339.439 135.14 339.439 139.37C339.439 143.34 340.439 146.64 342.439 149.28C344.439 151.92 346.879 153.24 349.769 153.24C350.929 153.24 352.119 152.93 353.339 152.31C354.559 151.69 355.819 150.75 357.129 149.47V126.34Z" fill="white"/>
<path d="M388.82 161.77V147.84C393.28 150.69 396.74 152.6 399.21 153.6C401.68 154.59 403.96 155.09 406.06 155.09C407.89 155.09 409.37 154.69 410.5 153.88C411.62 153.08 412.18 152.02 412.18 150.71C412.18 149.59 411.79 148.65 411 147.9C410.21 147.15 408.87 146.44 406.96 145.77L400.45 143.47C396.18 142.01 392.94 139.96 390.74 137.32C388.53 134.68 387.43 131.57 387.43 127.97C387.43 122.88 389.21 118.79 392.76 115.7C396.32 112.61 401.05 111.07 406.97 111.07C409.7 111.07 412.59 111.45 415.65 112.22C418.7 112.99 422.1 114.18 425.84 115.79L423.65 128.09C421.4 126.18 418.95 124.68 416.29 123.6C413.63 122.52 411.14 121.97 408.82 121.97C407.1 121.97 405.69 122.37 404.61 123.18C403.52 123.99 402.98 125.01 402.98 126.24C402.98 127.29 403.29 128.12 403.91 128.74C404.53 129.36 405.9 130.02 408.04 130.73L414.1 132.92C418.85 134.6 422.25 136.64 424.29 139.04C426.33 141.44 427.35 144.56 427.35 148.42C427.35 154 425.52 158.41 421.85 161.64C418.18 164.87 413.18 166.5 406.86 166.5C403.79 166.5 400.77 166.12 397.79 165.35C394.81 164.58 391.83 163.39 388.83 161.78L388.82 161.77Z" fill="white"/>
<path d="M498.47 116.7V164.07L489.61 165.46L489.22 163.2C487.8 163.97 486.41 164.54 485.03 164.91C483.65 165.28 482.26 165.46 480.84 165.46C476.78 165.46 473.61 164.12 471.33 161.43C469.05 158.74 467.91 155.03 467.91 150.28C467.91 145.3 469.25 141.3 471.92 138.29C474.59 135.28 478.13 133.78 482.54 133.78C483.57 133.78 484.56 133.88 485.5 134.09C486.44 134.3 487.39 134.61 488.34 135.04V118.09L498.46 116.7H498.47ZM488.35 142.42C487.75 142.08 487.17 141.83 486.63 141.68C486.09 141.53 485.54 141.45 485 141.45C483.09 141.45 481.48 142.25 480.17 143.85C478.86 145.45 478.2 147.47 478.2 149.89C478.2 152.17 478.78 154.06 479.92 155.58C481.07 157.1 482.47 157.85 484.13 157.85C484.77 157.85 485.45 157.72 486.14 157.45C486.84 157.18 487.57 156.77 488.35 156.21V142.42Z" fill="white"/>
<path d="M533.74 153.7L532.61 162.63C530.63 163.58 528.69 164.27 526.78 164.72C524.87 165.17 522.93 165.4 520.98 165.4C516.15 165.4 512.25 164.01 509.28 161.23C506.31 158.45 504.83 154.82 504.83 150.35C504.83 145.88 506.45 141.75 509.7 138.54C512.95 135.33 516.89 133.72 521.53 133.72C525.5 133.72 528.77 134.9 531.31 137.25C533.86 139.6 535.13 142.65 535.13 146.39C535.13 146.97 535.09 147.89 535 149.16L534.97 149.35L534.07 150.67L514.25 151.22C514.4 153.18 515.22 154.76 516.7 155.97C518.18 157.18 520.05 157.79 522.31 157.79C523.9 157.79 525.67 157.45 527.61 156.76C529.55 156.07 531.6 155.05 533.75 153.7H533.74ZM514.47 146.84L527.07 146.45V146C527.07 144.47 526.53 143.22 525.46 142.25C524.39 141.27 523.03 140.78 521.4 140.78C519.57 140.78 518.05 141.31 516.82 142.37C515.6 143.43 514.81 144.92 514.47 146.83V146.84Z" fill="white"/>
<path d="M570.88 164.08H560.66V118.09L570.88 116.7V164.07V164.08Z" fill="white"/>
<path d="M607.73 135.04V153.18C607.73 155.46 607.77 157.37 607.86 158.92C607.94 160.47 608.07 161.79 608.25 162.88L598.87 165.46L597.97 162.69C596.7 163.64 595.46 164.33 594.25 164.78C593.04 165.23 591.76 165.46 590.43 165.46C586.69 165.46 583.55 163.97 581 160.98C578.45 157.99 577.18 154.28 577.18 149.83C577.18 145.15 578.61 141.28 581.47 138.23C584.33 135.18 587.94 133.65 592.3 133.65C593.31 133.65 594.36 133.79 595.46 134.07C596.56 134.35 597.77 134.78 599.1 135.36L607.74 135.04H607.73ZM597.61 142.42C597.01 142.08 596.43 141.83 595.89 141.68C595.35 141.53 594.8 141.45 594.26 141.45C592.35 141.45 590.74 142.25 589.43 143.85C588.12 145.45 587.46 147.47 587.46 149.89C587.46 152.17 588.03 154.06 589.18 155.58C590.33 157.1 591.73 157.85 593.39 157.85C594.06 157.85 594.74 157.67 595.44 157.32C596.14 156.97 596.86 156.42 597.62 155.69V142.41L597.61 142.42Z" fill="white"/>
<path d="M88.7393 262.08V180.66H138.879V197.45H107.599V212.16H134.379V228.84H107.599V244.96H139.329V262.09H88.7393V262.08Z" fill="white"/>
<path d="M202.69 179.53V262.07L187.25 264.48L186.58 260.55C184.11 261.9 181.68 262.89 179.28 263.53C176.88 264.17 174.45 264.48 171.98 264.48C164.9 264.48 159.38 262.14 155.42 257.46C151.45 252.78 149.47 246.3 149.47 238.03C149.47 229.35 151.8 222.38 156.46 217.14C161.12 211.9 167.29 209.28 174.96 209.28C176.76 209.28 178.48 209.46 180.13 209.81C181.78 210.17 183.42 210.72 185.07 211.47V181.93L202.7 179.51L202.69 179.53ZM185.06 224.34C184.01 223.74 183.01 223.31 182.06 223.05C181.1 222.79 180.16 222.66 179.22 222.66C175.89 222.66 173.08 224.06 170.8 226.84C168.52 229.63 167.37 233.14 167.37 237.37C167.37 241.34 168.37 244.64 170.37 247.28C172.37 249.92 174.81 251.24 177.7 251.24C178.82 251.24 179.99 251.01 181.21 250.54C182.43 250.07 183.71 249.35 185.06 248.38V224.35V224.34Z" fill="white"/>
<path d="M249.77 211.48H267.229V262.07L251 264.48V254.6C248.27 257.97 245.4 260.46 242.41 262.07C239.42 263.68 236.139 264.48 232.579 264.48C227.229 264.48 223.16 262.94 220.37 259.88C217.58 256.81 216.189 252.32 216.189 246.4V211.47H233.77V241.46C233.77 244.12 234.31 246.13 235.4 247.5C236.48 248.87 238.099 249.55 240.229 249.55C243.299 249.55 245.66 248.51 247.31 246.43C248.96 244.35 249.78 241.37 249.78 237.47V211.47L249.77 211.48Z" fill="white"/>
<path d="M325.37 259.21C322.26 260.97 319.2 262.27 316.19 263.11C313.18 263.95 310.08 264.37 306.9 264.37C298.48 264.37 291.56 261.84 286.15 256.79C280.74 251.74 278.04 245.33 278.04 237.59C278.04 229.85 280.95 222.79 286.77 217.35C292.59 211.9 299.9 209.18 308.7 209.18C311.92 209.18 315.06 209.55 318.13 210.27C321.2 211 324.16 212.1 327 213.56L325.03 229.28C322.26 227.6 319.59 226.31 317.03 225.43C314.46 224.55 312.08 224.11 309.87 224.11C305.9 224.11 302.61 225.32 299.99 227.73C297.37 230.14 296.06 233.15 296.06 236.74C296.06 240.56 297.28 243.63 299.71 245.95C302.14 248.27 305.34 249.43 309.31 249.43C311.78 249.43 314.42 248.9 317.23 247.83C320.04 246.76 323.29 245.03 327 242.64L325.37 259.21Z" fill="white"/>
<path d="M388.28 211.48V243.09C388.28 247.06 388.35 250.39 388.5 253.09C388.65 255.79 388.87 258.09 389.17 260L372.83 264.49L371.26 259.66C369.05 261.31 366.89 262.52 364.77 263.31C362.65 264.1 360.44 264.49 358.12 264.49C351.61 264.49 346.13 261.89 341.7 256.69C337.26 251.49 335.05 245.01 335.05 237.26C335.05 229.1 337.54 222.36 342.52 217.05C347.5 211.73 353.79 209.08 361.39 209.08C363.15 209.08 364.98 209.32 366.89 209.81C368.8 210.3 370.91 211.04 373.24 212.06L388.29 211.5L388.28 211.48ZM370.65 224.34C369.6 223.74 368.6 223.31 367.65 223.05C366.69 222.79 365.75 222.66 364.81 222.66C361.48 222.66 358.67 224.06 356.39 226.84C354.11 229.63 352.96 233.14 352.96 237.37C352.96 241.34 353.96 244.64 355.96 247.28C357.96 249.92 360.4 251.24 363.29 251.24C364.45 251.24 365.64 250.93 366.86 250.31C368.08 249.69 369.34 248.75 370.65 247.47V224.34Z" fill="white"/>
<path d="M446.689 259.21C443.579 260.97 440.519 262.27 437.509 263.11C434.499 263.95 431.399 264.37 428.219 264.37C419.799 264.37 412.879 261.84 407.469 256.79C402.059 251.74 399.359 245.33 399.359 237.59C399.359 229.85 402.269 222.79 408.089 217.35C413.909 211.9 421.219 209.18 430.019 209.18C433.239 209.18 436.379 209.55 439.449 210.27C442.519 211 445.479 212.1 448.319 213.56L446.359 229.28C443.589 227.6 440.919 226.31 438.359 225.43C435.799 224.55 433.409 224.11 431.199 224.11C427.229 224.11 423.939 225.32 421.319 227.73C418.699 230.14 417.389 233.15 417.389 236.74C417.389 240.56 418.609 243.63 421.039 245.95C423.469 248.27 426.669 249.43 430.639 249.43C433.109 249.43 435.749 248.9 438.559 247.83C441.369 246.76 444.619 245.03 448.329 242.64L446.699 259.21H446.689Z" fill="white"/>
<path d="M458.17 192.62C458.17 189.92 459.11 187.64 460.98 185.77C462.85 183.9 465.14 182.96 467.83 182.96C470.52 182.96 472.86 183.89 474.71 185.74C476.56 187.59 477.49 189.89 477.49 192.62C477.49 195.35 476.55 197.62 474.68 199.53C472.81 201.44 470.52 202.39 467.83 202.39C465.14 202.39 462.95 201.43 461.04 199.5C459.13 197.57 458.18 195.28 458.18 192.62H458.17ZM476.81 262.08H459.01V211.49L476.81 209.08V262.09V262.08Z" fill="white"/>
<path d="M487.5 236.75C487.5 228.7 490.13 222.08 495.39 216.87C500.65 211.67 507.3 209.07 515.35 209.07C523.4 209.07 530.12 211.67 535.4 216.87C540.68 222.07 543.32 228.7 543.32 236.75C543.32 244.8 540.68 251.43 535.4 256.66C530.12 261.88 523.44 264.49 515.35 264.49C507.26 264.49 500.69 261.88 495.42 256.66C490.14 251.44 487.5 244.8 487.5 236.75ZM505.47 236.75C505.47 241.05 506.4 244.53 508.25 247.17C510.1 249.81 512.47 251.13 515.35 251.13C518.23 251.13 520.6 249.8 522.45 247.14C524.3 244.48 525.23 241.02 525.23 236.75C525.23 232.48 524.3 229.07 522.45 226.39C520.6 223.71 518.23 222.38 515.35 222.38C512.47 222.38 510.1 223.71 508.25 226.37C506.4 229.03 505.47 232.49 505.47 236.76V236.75ZM507.1 202.83L518.56 183.4H531.03L514.46 202.83H507.1Z" fill="white"/>
<path d="M572.029 262.08H554.449V211.49H570.679V219.97C573.379 216.64 576.239 214.16 579.269 212.53C582.299 210.9 585.599 210.09 589.149 210.09C594.499 210.09 598.559 211.63 601.329 214.69C604.099 217.76 605.489 222.25 605.489 228.17V262.09H588.029V233.12C588.029 230.46 587.489 228.46 586.399 227.11C585.309 225.76 583.699 225.09 581.569 225.09C578.499 225.09 576.139 226.12 574.489 228.18C572.839 230.24 572.019 233.23 572.019 237.16V262.09L572.029 262.08Z" fill="white"/>
</svg>
