<svg width="641" height="166" viewBox="0 0 641 166" fill="none" xmlns="http://www.w3.org/2000/svg">
<path d="M107.02 61.76V0H121.76V48.51H145.819V61.76H107.02Z" fill="white"/>
<path d="M150.25 9.07001C150.25 7.03001 150.96 5.29 152.38 3.87C153.8 2.45 155.53 1.73999 157.58 1.73999C159.63 1.73999 161.39 2.44001 162.8 3.85001C164.21 5.26001 164.91 7.00001 164.91 9.07001C164.91 11.14 164.2 12.86 162.78 14.31C161.36 15.76 159.63 16.48 157.58 16.48C155.53 16.48 153.87 15.75 152.43 14.29C150.98 12.83 150.26 11.09 150.26 9.07001H150.25ZM164.39 61.75H150.89V23.38L164.39 21.55V61.76V61.75Z" fill="white"/>
<path d="M207.92 59.59C205.56 60.92 203.239 61.91 200.959 62.55C198.669 63.19 196.32 63.51 193.91 63.51C187.52 63.51 182.28 61.59 178.17 57.76C174.07 53.93 172.02 49.07 172.02 43.19C172.02 37.31 174.23 31.97 178.64 27.84C183.05 23.71 188.6 21.64 195.27 21.64C197.71 21.64 200.1 21.92 202.43 22.47C204.76 23.02 207 23.85 209.16 24.96L207.67 36.89C205.57 35.61 203.549 34.64 201.599 33.97C199.649 33.3 197.84 32.97 196.17 32.97C193.16 32.97 190.66 33.89 188.67 35.72C186.68 37.55 185.689 39.83 185.689 42.56C185.689 45.46 186.609 47.78 188.459 49.54C190.309 51.3 192.73 52.18 195.74 52.18C197.61 52.18 199.62 51.78 201.75 50.97C203.88 50.16 206.35 48.85 209.16 47.03L207.92 59.59Z" fill="white"/>
<path d="M252.76 48.04L251.27 59.84C248.66 61.09 246.09 62.01 243.56 62.61C241.03 63.21 238.48 63.5 235.89 63.5C229.5 63.5 224.35 61.66 220.43 57.98C216.51 54.3 214.55 49.51 214.55 43.61C214.55 37.71 216.69 32.25 220.98 28C225.27 23.76 230.48 21.63 236.61 21.63C241.86 21.63 246.17 23.19 249.54 26.29C252.9 29.4 254.59 33.42 254.59 38.36C254.59 39.13 254.53 40.35 254.42 42.02L254.38 42.28L253.19 44.03L227 44.75C227.2 47.33 228.28 49.43 230.24 51.03C232.2 52.63 234.67 53.44 237.65 53.44C239.75 53.44 242.09 52.99 244.66 52.08C247.23 51.17 249.93 49.82 252.77 48.03L252.76 48.04ZM227.29 38.97L243.94 38.46V37.86C243.94 35.84 243.23 34.19 241.81 32.9C240.39 31.61 238.6 30.96 236.44 30.96C234.03 30.96 232.01 31.66 230.39 33.07C228.77 34.48 227.73 36.44 227.28 38.97H227.29Z" fill="white"/>
<path d="M275.59 61.76H262.26V23.39H274.57V29.82C276.61 27.29 278.79 25.41 281.09 24.18C283.39 22.95 285.89 22.33 288.59 22.33C292.65 22.33 295.73 23.49 297.83 25.82C299.93 28.15 300.98 31.56 300.98 36.04V61.77H287.73V39.79C287.73 37.77 287.32 36.26 286.49 35.23C285.67 34.21 284.45 33.7 282.83 33.7C280.5 33.7 278.71 34.48 277.46 36.04C276.21 37.6 275.59 39.87 275.59 42.86V61.77V61.76Z" fill="white"/>
<path d="M344.25 59.59C341.89 60.92 339.57 61.91 337.29 62.55C335 63.19 332.65 63.51 330.24 63.51C323.85 63.51 318.61 61.59 314.5 57.76C310.4 53.93 308.35 49.07 308.35 43.19C308.35 37.31 310.56 31.97 314.97 27.84C319.38 23.71 324.93 21.64 331.6 21.64C334.04 21.64 336.43 21.92 338.76 22.47C341.09 23.02 343.33 23.85 345.49 24.96L344 36.89C341.9 35.61 339.88 34.64 337.93 33.97C335.98 33.3 334.17 32.97 332.5 32.97C329.49 32.97 326.99 33.89 325 35.72C323.01 37.55 322.02 39.83 322.02 42.56C322.02 45.46 322.94 47.78 324.79 49.54C326.64 51.3 329.06 52.18 332.07 52.18C333.94 52.18 335.95 51.78 338.08 50.97C340.21 50.16 342.68 48.85 345.49 47.03L344.25 59.59Z" fill="white"/>
<path d="M352.34 9.07001C352.34 7.03001 353.05 5.29 354.47 3.87C355.89 2.45 357.62 1.73999 359.67 1.73999C361.72 1.73999 363.48 2.44001 364.89 3.85001C366.3 5.26001 367 7.00001 367 9.07001C367 11.14 366.29 12.86 364.87 14.31C363.45 15.76 361.72 16.48 359.67 16.48C357.62 16.48 355.96 15.75 354.52 14.29C353.07 12.83 352.35 11.09 352.35 9.07001H352.34ZM366.48 61.75H352.98V23.38L366.48 21.55V61.76V61.75Z" fill="white"/>
<path d="M414.569 23.38V47.36C414.569 50.37 414.63 52.9 414.74 54.94C414.85 56.98 415.02 58.73 415.25 60.18L402.859 63.59L401.67 59.93C399.99 61.18 398.35 62.1 396.75 62.7C395.15 63.3 393.459 63.59 391.699 63.59C386.759 63.59 382.61 61.62 379.24 57.67C375.88 53.72 374.189 48.81 374.189 42.93C374.189 36.74 376.079 31.63 379.849 27.6C383.629 23.57 388.4 21.55 394.16 21.55C395.49 21.55 396.889 21.73 398.329 22.1C399.779 22.47 401.38 23.04 403.14 23.8L414.55 23.37L414.569 23.38ZM401.199 33.13C400.399 32.68 399.65 32.35 398.92 32.15C398.2 31.95 397.48 31.85 396.77 31.85C394.24 31.85 392.11 32.91 390.38 35.02C388.65 37.14 387.78 39.8 387.78 43.01C387.78 46.02 388.54 48.53 390.06 50.53C391.58 52.53 393.43 53.53 395.62 53.53C396.5 53.53 397.399 53.3 398.319 52.83C399.239 52.36 400.199 51.64 401.199 50.68V33.13Z" fill="white"/>
<path d="M426.96 48.85V33.47H421.38V23.38H426.96V11.88L440.59 10.05V23.38H449.66V33.47H440.59V49.78C440.59 53.24 441.06 55.75 442 57.3C442.94 58.85 444.7 60.28 447.28 61.58L432.12 62.6C430.22 61.69 428.88 60.34 428.12 58.53C427.35 56.73 426.97 53.5 426.97 48.84L426.96 48.85Z" fill="white"/>
<path d="M480.54 23.38H493.79V61.75L481.48 63.58V56.08C479.41 58.64 477.24 60.52 474.96 61.74C472.69 62.96 470.2 63.57 467.51 63.57C463.45 63.57 460.36 62.41 458.25 60.08C456.13 57.75 455.08 54.34 455.08 49.86V23.37H468.41V46.11C468.41 48.13 468.82 49.65 469.64 50.69C470.46 51.73 471.68 52.25 473.3 52.25C475.63 52.25 477.42 51.46 478.67 49.89C479.92 48.31 480.54 46.05 480.54 43.1V23.38Z" fill="white"/>
<path d="M517.21 61.76H503.79V23.39H516.27L516.53 30.12C518.06 27.42 519.86 25.46 521.92 24.24C523.98 23.02 526.54 22.41 529.61 22.41H530.67V36.72H527.77C523.6 36.72 520.79 37.2 519.36 38.15C517.93 39.1 517.21 41.39 517.21 45.03V61.77V61.76Z" fill="white"/>
<path d="M575.78 23.38V47.36C575.78 50.37 575.84 52.9 575.95 54.94C576.06 56.98 576.23 58.73 576.46 60.18L564.07 63.59L562.88 59.93C561.2 61.18 559.56 62.1 557.96 62.7C556.36 63.3 554.67 63.59 552.91 63.59C547.97 63.59 543.82 61.62 540.45 57.67C537.09 53.72 535.4 48.81 535.4 42.93C535.4 36.74 537.29 31.63 541.06 27.6C544.84 23.57 549.61 21.55 555.37 21.55C556.7 21.55 558.1 21.73 559.54 22.1C560.99 22.47 562.59 23.04 564.35 23.8L575.76 23.37L575.78 23.38ZM562.41 33.13C561.61 32.68 560.86 32.35 560.13 32.15C559.41 31.95 558.69 31.85 557.98 31.85C555.45 31.85 553.32 32.91 551.59 35.02C549.86 37.14 548.99 39.8 548.99 43.01C548.99 46.02 549.75 48.53 551.27 50.53C552.79 52.53 554.64 53.53 556.83 53.53C557.71 53.53 558.61 53.3 559.53 52.83C560.45 52.36 561.41 51.64 562.41 50.68V33.13Z" fill="white"/>
<path d="M612.94 46.43L612.14 52.79C610.73 53.46 609.35 53.96 607.98 54.28C606.62 54.6 605.24 54.76 603.85 54.76C600.41 54.76 597.63 53.77 595.51 51.79C593.39 49.81 592.34 47.22 592.34 44.04C592.34 40.86 593.5 37.91 595.81 35.62C598.12 33.33 600.93 32.19 604.24 32.19C607.07 32.19 609.4 33.03 611.21 34.71C613.02 36.39 613.93 38.56 613.93 41.22C613.93 41.63 613.9 42.29 613.84 43.19L613.82 43.33L613.18 44.27L599.06 44.66C599.17 46.05 599.75 47.18 600.81 48.05C601.87 48.91 603.2 49.35 604.81 49.35C605.94 49.35 607.2 49.1 608.59 48.62C609.98 48.13 611.43 47.4 612.96 46.44L612.94 46.43ZM599.21 41.54L608.19 41.26V40.94C608.19 39.85 607.81 38.96 607.04 38.26C606.27 37.56 605.31 37.22 604.15 37.22C602.85 37.22 601.76 37.6 600.89 38.36C600.02 39.12 599.46 40.18 599.21 41.54Z" fill="white"/>
<path d="M625.25 53.82H618.06V33.13H624.7V36.6C625.8 35.24 626.97 34.22 628.21 33.56C629.45 32.89 630.8 32.56 632.25 32.56C634.44 32.56 636.1 33.19 637.23 34.44C638.36 35.7 638.93 37.53 638.93 39.95V53.82H631.79V41.97C631.79 40.88 631.57 40.06 631.12 39.51C630.68 38.96 630.02 38.68 629.14 38.68C627.88 38.68 626.92 39.1 626.25 39.94C625.58 40.78 625.24 42.01 625.24 43.61V53.81L625.25 53.82Z" fill="white"/>
<path d="M65.7598 107.32C62.2498 103.7 58.6997 101.02 55.0997 99.26C51.4997 97.51 47.7198 96.63 43.7698 96.63C36.9098 96.63 31.2898 99 26.9298 103.74C22.5698 108.48 20.3798 114.56 20.3798 121.98C20.3798 129.4 22.5398 135.42 26.8698 140.03C31.1998 144.64 36.8298 146.94 43.7698 146.94C47.8698 146.94 51.9698 146.08 56.0498 144.37C60.1398 142.65 64.2098 140.08 68.2798 136.65L67.0498 158.19C63.5798 160.54 59.7798 162.33 55.6598 163.56C51.5398 164.79 47.2597 165.41 42.8197 165.41C38.0397 165.41 33.4697 164.66 29.0797 163.17C24.6997 161.68 20.6597 159.48 16.9697 156.57C11.7497 152.47 7.74973 147.46 4.96973 141.55C2.18973 135.64 0.799805 129.19 0.799805 122.22C0.799805 116.21 1.82976 110.58 3.87976 105.32C5.92976 100.06 8.91971 95.42 12.8297 91.39C16.7797 87.36 21.3498 84.27 26.5398 82.13C31.7198 79.99 37.1897 78.91 42.9397 78.91C47.4897 78.91 51.8397 79.54 55.9797 80.81C60.1197 82.08 64.0697 84 67.8397 86.57L65.7698 107.33L65.7598 107.32Z" fill="white"/>
<path d="M75.1099 137.53C75.1099 129.51 77.7298 122.91 82.9698 117.72C88.2098 112.54 94.8399 109.94 102.86 109.94C110.88 109.94 117.58 112.53 122.84 117.72C128.1 122.91 130.73 129.51 130.73 137.53C130.73 145.55 128.1 152.16 122.84 157.37C117.58 162.57 110.92 165.18 102.86 165.18C94.7999 165.18 88.2599 162.58 82.9999 157.37C77.7399 152.17 75.1099 145.55 75.1099 137.53ZM93.0199 137.53C93.0199 141.82 93.9399 145.28 95.7899 147.91C97.6399 150.54 99.9999 151.85 102.87 151.85C105.74 151.85 108.1 150.53 109.95 147.88C111.8 145.23 112.72 141.78 112.72 137.53C112.72 133.28 111.8 129.87 109.95 127.21C108.1 124.54 105.74 123.21 102.87 123.21C99.9999 123.21 97.6399 124.54 95.7899 127.18C93.9399 129.83 93.0199 133.28 93.0199 137.53Z" fill="white"/>
<path d="M158.54 162.77H141.03V112.35H157.2V120.8C159.89 117.48 162.74 115.01 165.76 113.39C168.78 111.77 172.06 110.96 175.61 110.96C180.94 110.96 184.99 112.49 187.75 115.55C190.51 118.61 191.89 123.09 191.89 128.98V162.78H174.49V133.91C174.49 131.26 173.95 129.27 172.87 127.92C171.79 126.58 170.18 125.91 168.06 125.91C165 125.91 162.65 126.94 161.01 128.99C159.37 131.04 158.55 134.03 158.55 137.94V162.78L158.54 162.77Z" fill="white"/>
<path d="M207.61 145.81V125.61H200.28V112.35H207.61V97.24L225.52 94.83V112.34H237.44V125.6H225.52V147.03C225.52 151.58 226.14 154.87 227.37 156.91C228.6 158.94 230.91 160.82 234.31 162.53L214.39 163.87C211.89 162.68 210.14 160.89 209.13 158.53C208.12 156.16 207.62 151.92 207.62 145.8L207.61 145.81Z" fill="white"/>
<path d="M295.29 112.35V143.85C295.29 147.8 295.36 151.12 295.51 153.81C295.66 156.5 295.88 158.79 296.18 160.69L279.9 165.17L278.33 160.36C276.13 162 273.97 163.21 271.87 164C269.76 164.78 267.55 165.18 265.24 165.18C258.75 165.18 253.29 162.59 248.87 157.4C244.45 152.21 242.24 145.76 242.24 138.04C242.24 129.91 244.72 123.19 249.68 117.9C254.64 112.6 260.91 109.95 268.48 109.95C270.23 109.95 272.06 110.19 273.96 110.68C275.86 111.16 277.97 111.91 280.28 112.92L295.28 112.36L295.29 112.35ZM277.72 125.16C276.67 124.56 275.68 124.13 274.73 123.87C273.78 123.61 272.84 123.48 271.9 123.48C268.58 123.48 265.78 124.87 263.51 127.65C261.24 130.43 260.1 133.93 260.1 138.14C260.1 142.09 261.1 145.39 263.09 148.02C265.09 150.65 267.52 151.96 270.39 151.96C271.55 151.96 272.73 151.65 273.94 151.04C275.15 150.42 276.41 149.48 277.72 148.21V125.16Z" fill="white"/>
<path d="M308.5 165.17V82.92L326.01 80.51V114.53C328.25 113.37 330.4 112.51 332.47 111.93C334.54 111.35 336.55 111.06 338.49 111.06C345.35 111.06 350.91 113.49 355.16 118.36C359.41 123.23 361.54 129.58 361.54 137.41C361.54 145.69 359.01 152.37 353.96 157.44C348.9 162.51 342.26 165.05 334.01 165.05C332.96 165.05 331.79 164.98 330.48 164.85C329.17 164.72 327.7 164.52 326.06 164.26L319.68 162.75L308.49 165.16L308.5 165.17ZM326.01 151.18C327.28 151.52 328.35 151.76 329.23 151.91C330.11 152.06 330.9 152.13 331.61 152.13C335.04 152.13 337.91 150.73 340.23 147.93C342.54 145.13 343.7 141.59 343.7 137.3C343.7 133.42 342.74 130.3 340.82 127.93C338.9 125.56 336.41 124.38 333.35 124.38C332.49 124.38 331.46 124.6 330.24 125.02C329.03 125.45 327.62 126.11 326.02 127.01V151.18H326.01Z" fill="white"/>
<path d="M370.83 93.55C370.83 90.86 371.76 88.59 373.63 86.72C375.49 84.85 377.77 83.92 380.46 83.92C383.15 83.92 385.47 84.84 387.31 86.69C389.16 88.54 390.08 90.82 390.08 93.54C390.08 96.26 389.15 98.52 387.28 100.42C385.41 102.32 383.14 103.27 380.45 103.27C377.76 103.27 375.58 102.31 373.68 100.39C371.78 98.47 370.83 96.19 370.83 93.54V93.55ZM389.41 162.77H371.67V112.35L389.41 109.94V162.76V162.77Z" fill="white"/>
<path d="M419.91 162.77H402.17V82.92L419.91 80.51V162.76V162.77Z" fill="white"/>
<path d="M431.82 93.55C431.82 90.86 432.75 88.59 434.62 86.72C436.48 84.85 438.76 83.92 441.45 83.92C444.14 83.92 446.46 84.84 448.3 86.69C450.15 88.54 451.07 90.82 451.07 93.54C451.07 96.26 450.14 98.52 448.27 100.42C446.4 102.32 444.13 103.27 441.44 103.27C438.75 103.27 436.57 102.31 434.67 100.39C432.77 98.47 431.82 96.19 431.82 93.54V93.55ZM450.4 162.77H432.66V112.35L450.4 109.94V162.76V162.77Z" fill="white"/>
<path d="M513.57 80.51V162.76L498.18 165.17L497.51 161.25C495.05 162.59 492.62 163.58 490.24 164.22C487.85 164.85 485.43 165.17 482.97 165.17C475.92 165.17 470.42 162.84 466.46 158.18C462.51 153.52 460.53 147.06 460.53 138.82C460.53 130.17 462.85 123.23 467.5 118.01C472.14 112.79 478.29 110.18 485.94 110.18C487.73 110.18 489.45 110.36 491.09 110.71C492.73 111.06 494.37 111.61 496.01 112.36V82.93L513.58 80.52L513.57 80.51ZM496 125.16C494.95 124.56 493.96 124.13 493.01 123.87C492.06 123.61 491.12 123.48 490.18 123.48C486.86 123.48 484.06 124.87 481.79 127.65C479.52 130.43 478.38 133.93 478.38 138.14C478.38 142.09 479.38 145.39 481.37 148.02C483.37 150.65 485.8 151.96 488.67 151.96C489.79 151.96 490.95 151.73 492.17 151.26C493.38 150.79 494.66 150.08 496 149.11V125.16Z" fill="white"/>
<path d="M576.97 112.35V143.85C576.97 147.8 577.04 151.12 577.19 153.81C577.34 156.5 577.56 158.79 577.86 160.69L561.58 165.17L560.01 160.36C557.81 162 555.65 163.21 553.55 164C551.44 164.78 549.23 165.18 546.92 165.18C540.43 165.18 534.97 162.59 530.55 157.4C526.13 152.21 523.92 145.76 523.92 138.04C523.92 129.91 526.4 123.19 531.36 117.9C536.32 112.6 542.59 109.95 550.16 109.95C551.91 109.95 553.74 110.19 555.64 110.68C557.54 111.16 559.65 111.91 561.96 112.92L576.96 112.36L576.97 112.35ZM559.4 125.16C558.35 124.56 557.36 124.13 556.41 123.87C555.46 123.61 554.52 123.48 553.58 123.48C550.26 123.48 547.46 124.87 545.19 127.65C542.92 130.43 541.78 133.93 541.78 138.14C541.78 142.09 542.78 145.39 544.77 148.02C546.77 150.65 549.2 151.96 552.07 151.96C553.23 151.96 554.41 151.65 555.62 151.04C556.83 150.42 558.09 149.48 559.4 148.21V125.16Z" fill="white"/>
<path d="M640.37 80.51V162.76L624.98 165.17L624.31 161.25C621.85 162.59 619.42 163.58 617.04 164.22C614.65 164.85 612.23 165.17 609.77 165.17C602.72 165.17 597.22 162.84 593.26 158.18C589.31 153.52 587.33 147.06 587.33 138.82C587.33 130.17 589.65 123.23 594.3 118.01C598.94 112.79 605.09 110.18 612.74 110.18C614.53 110.18 616.25 110.36 617.89 110.71C619.53 111.06 621.17 111.61 622.81 112.36V82.93L640.38 80.52L640.37 80.51ZM622.8 125.16C621.75 124.56 620.76 124.13 619.81 123.87C618.86 123.61 617.92 123.48 616.98 123.48C613.66 123.48 610.86 124.87 608.59 127.65C606.31 130.43 605.18 133.93 605.18 138.14C605.18 142.09 606.18 145.39 608.17 148.02C610.17 150.65 612.6 151.96 615.47 151.96C616.59 151.96 617.75 151.73 618.97 151.26C620.18 150.79 621.46 150.08 622.8 149.11V125.16Z" fill="white"/>
</svg>
