<svg width="484" height="367" viewBox="0 0 484 367" fill="none" xmlns="http://www.w3.org/2000/svg">
<path d="M243.5 215C301.766 215 349 167.766 349 109.5C349 51.234 301.766 4 243.5 4C185.234 4 138 51.234 138 109.5C138 167.766 185.234 215 243.5 215Z" fill="#0069C2"/>
<path d="M124.5 199.72C196.8 235.14 258.44 244.12 334.3 212.64C344.08 208.71 353.73 204.25 363.5 199.72C355.52 206.96 346.82 213.39 337.64 219.17C269.16 262.86 184.44 253.55 124.5 199.72Z" fill="#FF0000"/>
<path d="M316.38 128.95C314.16 122.54 308.78 117.62 302.09 116.05C300.98 98.64 297.58 81.85 292.16 65.97C298.9 63.17 303.77 56.8 304.41 49.21C312.41 48.11 320.57 47.53 328.86 47.5C326.36 44.07 323.67 40.79 320.78 37.69C314.69 37.96 308.67 38.52 302.74 39.34C299.62 32.36 292.63 27.49 284.49 27.49C281.21 27.49 278.12 28.3 275.39 29.7C270.22 21 264.38 12.74 257.96 4.97999C254.49 1.48999 243.49 -2.51 234.68 4.36C237.59 4.12 240.53 3.99 243.49 3.99C243.6 3.99 243.72 3.99 243.83 3.99C252.94 13.89 261 24.78 267.79 36.49C265.71 39.65 264.49 43.42 264.49 47.49C264.49 47.89 264.53 48.29 264.55 48.68C235.28 59.11 209.22 76.38 188.32 98.56C185.67 97.25 182.69 96.49 179.53 96.49C179.5 95.16 179.49 93.82 179.49 92.49C179.49 67.65 187.49 23.49 196.57 14.98C202.48 12.04 208.7 9.63999 215.18 7.83999C212.92 6.51999 208.76 6.99 204.49 7.49C187.49 9.49 182.05 23.72 182.05 23.72C178.49 30.49 169.49 68.75 169.49 92.49C169.49 94.7 169.54 96.91 169.61 99.11C168.45 99.77 167.37 100.54 166.37 101.42C157.63 95.31 149.44 88.46 141.9 80.96C140.85 84.69 140.01 88.51 139.38 92.39C146.07 98.62 153.2 104.4 160.72 109.65C159.94 111.78 159.5 114.08 159.5 116.48C159.5 121.52 161.38 126.11 164.46 129.63C158.85 138.68 153.98 148.22 149.9 158.18C151.86 161.94 154.04 165.57 156.42 169.04C160.72 157.17 166.2 145.87 172.72 135.28C173.28 135.48 173.85 135.66 174.43 135.81C180.49 162.21 192.04 187.22 208.39 208.99C213.66 210.85 219.12 212.31 224.74 213.32C223.33 211.71 221.95 210.07 220.59 208.4C203.31 187.12 191.09 162.21 184.68 135.78C188.9 134.65 192.57 132.18 195.19 128.84C218.62 138.9 244.41 144.48 271.48 144.48C274.18 144.48 276.87 144.41 279.55 144.3C281.82 148.9 285.8 152.5 290.66 154.26C287.84 174.31 281.77 193.34 273 210.78C277.57 209.45 282.01 207.82 286.3 205.91C293.26 190 298.16 172.99 300.62 155.2C309 153.87 315.64 147.35 317.14 139.03C327.49 136.52 337.52 133.18 347.15 129.09C347.87 125.28 348.38 121.41 348.68 117.47C338.38 122.25 327.58 126.11 316.36 128.93L316.38 128.95ZM277.55 134.39C275.54 134.46 273.52 134.5 271.49 134.5C245.84 134.5 221.41 129.22 199.21 119.7C199.38 118.66 199.49 117.59 199.49 116.5C199.49 112.26 198.16 108.33 195.91 105.1C215.61 84.29 240.11 68.07 267.62 58.22C270.75 63.14 275.96 66.59 282.02 67.34C287.49 82.81 290.94 99.23 292.07 116.27C284 118.54 278.02 125.73 277.54 134.4L277.55 134.39Z" fill="#93C8FD"/>
<path d="M51.5701 286.68C51.8201 286.95 52.1301 287.11 52.4901 287.19C54.5201 287.48 56.5301 287.62 58.5501 287.61C60.5601 287.6 62.5601 287.4 64.5401 287.01L62.6201 293.7C57.6001 294.47 52.5801 294.58 47.5401 294.03C46.4101 293.91 45.4801 293.54 44.7701 292.91C44.0601 292.28 43.5201 291.52 43.1601 290.63C42.8001 289.74 42.5801 288.77 42.5101 287.74C42.4401 286.7 42.4901 285.73 42.6501 284.81C42.8401 283.8 43.0801 282.64 43.3701 281.34C43.6601 280.04 44.0301 278.72 44.4701 277.38C44.9201 276.04 45.4401 274.73 46.0401 273.46C46.6401 272.18 47.3601 271.04 48.1901 270.04C49.0201 269.04 49.9701 268.24 51.0301 267.64C52.0901 267.04 53.3001 266.74 54.6501 266.74H70.6401L68.6901 273.21H56.7201C56.3601 273.21 56.0201 273.31 55.7101 273.52C55.4001 273.73 55.1501 273.98 54.9901 274.3C53.9801 276.06 53.1601 277.91 52.5301 279.85C51.9001 281.79 51.4801 283.77 51.2601 285.8C51.2101 286.14 51.3101 286.44 51.5701 286.7V286.68Z" fill="#005DA1"/>
<path d="M89.1702 282.45H78.9702C78.8502 283 78.7002 283.56 78.5402 284.11C78.3702 284.67 78.2502 285.22 78.1802 285.77C78.1302 286.11 78.2402 286.43 78.5102 286.75C78.7702 287.06 79.0802 287.24 79.4102 287.29C81.4602 287.6 83.5202 287.73 85.5902 287.67C87.6602 287.61 89.7002 287.39 91.7002 287L89.7802 293.69C84.7602 294.46 79.7302 294.57 74.6602 294.02C73.5302 293.9 72.6002 293.53 71.8902 292.9C71.1802 292.27 70.6402 291.51 70.2802 290.62C69.9202 289.73 69.7102 288.76 69.6502 287.73C69.5902 286.69 69.6502 285.72 69.8102 284.8C70.1502 282.97 70.5902 281.17 71.1302 279.39C71.6702 277.62 72.3202 275.89 73.0702 274.2C72.7302 274.32 72.3802 274.42 72.0002 274.49C71.6202 274.56 71.2402 274.66 70.8402 274.78C70.4402 274.9 70.0302 275.08 69.6102 275.3C69.1902 275.53 68.7602 275.87 68.3302 276.33C68.2602 276.4 68.2002 276.44 68.1502 276.44C68.0302 276.51 67.9002 276.52 67.7502 276.46C67.6002 276.4 67.5702 276.3 67.6402 276.15C68.3602 274.75 69.1902 273.47 70.1202 272.32C71.0502 271.17 72.0902 270.17 73.2502 269.34C74.4102 268.51 75.6902 267.86 77.1002 267.4C78.5102 266.94 80.0702 266.71 81.7802 266.71H97.3302L95.3802 273.18H83.8802C83.3702 273.18 82.9602 273.34 82.6302 273.65C82.3002 273.96 82.0302 274.34 81.8002 274.77C81.5702 275.2 81.3702 275.66 81.2002 276.13C81.0302 276.6 80.8402 276.99 80.6202 277.31C80.8402 277.29 81.1002 277.27 81.4002 277.26C81.7002 277.25 82.1902 277.24 82.8602 277.24C83.5302 277.24 84.5302 277.24 85.7702 277.26C87.0102 277.27 88.6702 277.28 90.7402 277.28L89.1502 282.45H89.1702Z" fill="#005DA1"/>
<path d="M116.58 282.45L121.36 266.83H129.1L121.03 293.77H111.41L107.61 275.04L101.97 293.77H93.9802L102.08 266.83H110.18C110.61 266.83 111.05 266.9 111.48 267.03C111.91 267.16 112.31 267.36 112.67 267.61C113.03 267.86 113.34 268.16 113.59 268.5C113.84 268.84 114.02 269.22 114.11 269.66L116.57 282.46L116.58 282.45Z" fill="#005DA1"/>
<path d="M153.84 273.19H147.11L140.89 293.77H132.72L139.01 273.19C137.13 273.14 135.6 273.19 134.43 273.32C133.26 273.45 132.31 273.66 131.57 273.95C130.83 274.24 130.25 274.59 129.82 275C129.39 275.41 128.98 275.86 128.59 276.34C128.47 276.48 128.32 276.53 128.14 276.48C127.96 276.43 127.89 276.32 127.94 276.15C128.74 274.63 129.52 273.28 130.29 272.1C131.06 270.92 131.96 269.92 132.98 269.12C134.01 268.31 135.22 267.7 136.63 267.29C138.04 266.88 139.8 266.69 141.89 266.71V266.78H155.78L153.83 273.18L153.84 273.19Z" fill="#005DA1"/>
<path d="M166.67 286.1H161.68L159.37 293.77H151.56L159.7 266.83H173.34C174.26 266.83 175.17 266.95 176.09 267.19C177.01 267.43 177.83 267.8 178.55 268.31C179.27 268.82 179.86 269.46 180.32 270.23C180.78 271 181.01 271.91 181.01 272.94C181.01 274.36 180.81 275.76 180.41 277.14C180.01 278.51 179.42 279.8 178.62 281.01C178.07 281.88 177.41 282.7 176.65 283.49C175.89 284.27 175.05 284.91 174.14 285.39L176.89 293.78H169.3L166.7 286.11L166.67 286.1ZM167.32 280.57C167.99 280.57 168.55 280.52 169 280.43C169.45 280.33 169.82 280.2 170.12 280.03C170.42 279.86 170.67 279.66 170.88 279.43C171.08 279.2 171.3 278.97 171.51 278.72C172.06 278.12 172.49 277.44 172.79 276.69C173.09 275.94 173.24 275.15 173.24 274.3C173.24 274.01 173.19 273.71 173.08 273.4C172.97 273.09 172.82 272.8 172.63 272.55C172.44 272.3 172.2 272.09 171.92 271.94C171.64 271.78 171.33 271.71 171 271.71H166.01L163.33 280.57H167.31H167.32Z" fill="#005DA1"/>
<path d="M207.58 280.8C206.86 283.46 205.93 286.1 204.79 288.7C204.19 290.03 203.29 291.11 202.11 291.95C200.93 292.79 199.64 293.34 198.24 293.58C197.11 293.77 195.98 293.92 194.86 294.01C193.74 294.1 192.61 294.16 191.48 294.16C190.66 294.16 189.8 294.14 188.91 294.11C188.02 294.07 187.14 293.98 186.27 293.82C185.4 293.66 184.59 293.43 183.83 293.13C183.07 292.83 182.41 292.42 181.86 291.9C181.3 291.38 180.89 290.74 180.61 289.98C180.33 289.22 180.24 288.3 180.34 287.21C180.46 285.96 180.67 284.66 180.97 283.32C181.27 281.98 181.62 280.65 182.02 279.32C182.42 277.99 182.85 276.7 183.3 275.43C183.76 274.16 184.22 272.98 184.67 271.87C184.91 271.27 185.31 270.65 185.88 270.03C186.45 269.4 187.23 268.83 188.23 268.31C189.23 267.79 190.49 267.37 192.01 267.04C193.53 266.71 195.36 266.55 197.51 266.55C198.57 266.55 199.72 266.57 200.96 266.62C202.2 266.67 203.38 266.85 204.5 267.16C205.62 267.47 206.62 267.97 207.48 268.66C208.35 269.35 208.94 270.34 209.25 271.64V272.62C208.84 275.39 208.27 278.11 207.55 280.78L207.58 280.8ZM199.22 280.44C199.87 278.43 200.4 276.37 200.81 274.27C200.93 273.72 200.87 273.28 200.63 272.95C200.39 272.62 200.06 272.38 199.63 272.23C199.2 272.08 198.74 271.97 198.24 271.92C197.73 271.87 197.3 271.85 196.94 271.85C196.53 271.85 196.08 271.87 195.6 271.92C195.12 271.97 194.65 272.07 194.21 272.23C193.77 272.39 193.36 272.6 193 272.88C192.64 273.16 192.37 273.53 192.21 273.98C191.49 275.86 190.81 277.8 190.18 279.8C189.55 281.8 189.02 283.83 188.59 285.88C188.47 286.36 188.46 286.79 188.57 287.16C188.68 287.53 188.86 287.85 189.13 288.1C189.39 288.35 189.73 288.54 190.14 288.66C190.55 288.78 191 288.82 191.48 288.77C191.94 288.77 192.46 288.75 193.05 288.72C193.64 288.68 194.21 288.59 194.75 288.45C195.29 288.3 195.77 288.08 196.18 287.76C196.59 287.45 196.85 287.01 196.97 286.46C197.81 284.46 198.56 282.45 199.21 280.44H199.22Z" fill="#005DA1"/>
<path d="M228.34 266.82H236.4L228.26 293.76H220.09L228.34 266.82Z" fill="#005DA1"/>
<path d="M255.54 282.45L260.31 266.83H268.05L259.99 293.77H250.37L246.57 275.04L240.93 293.77H232.94L241.04 266.83H249.14C249.57 266.83 250.01 266.9 250.44 267.03C250.87 267.16 251.27 267.36 251.63 267.61C251.99 267.86 252.3 268.16 252.55 268.5C252.8 268.84 252.98 269.22 253.07 269.66L255.53 282.46L255.54 282.45Z" fill="#005DA1"/>
<path d="M292.79 273.19H286.06L279.84 293.77H271.67L277.96 273.19C276.08 273.14 274.55 273.19 273.38 273.32C272.21 273.45 271.26 273.66 270.52 273.95C269.78 274.24 269.2 274.59 268.77 275C268.34 275.41 267.93 275.86 267.54 276.34C267.42 276.48 267.27 276.53 267.09 276.48C266.91 276.43 266.84 276.32 266.89 276.15C267.69 274.63 268.47 273.28 269.24 272.1C270.01 270.92 270.91 269.92 271.94 269.12C272.96 268.31 274.18 267.7 275.59 267.29C277 266.88 278.75 266.69 280.85 266.71V266.78H294.74L292.79 273.18V273.19Z" fill="#005DA1"/>
<path d="M313.95 282.45H303.75C303.63 283 303.48 283.56 303.32 284.11C303.15 284.67 303.03 285.22 302.96 285.77C302.91 286.11 303.02 286.43 303.29 286.75C303.56 287.06 303.86 287.24 304.19 287.29C306.24 287.6 308.3 287.73 310.38 287.67C312.45 287.61 314.49 287.39 316.49 287L314.57 293.69C309.55 294.46 304.52 294.57 299.45 294.02C298.32 293.9 297.4 293.53 296.68 292.9C295.97 292.27 295.43 291.51 295.07 290.62C294.71 289.73 294.5 288.76 294.44 287.73C294.38 286.69 294.44 285.72 294.6 284.8C294.94 282.97 295.38 281.17 295.92 279.39C296.46 277.62 297.11 275.89 297.85 274.2C297.51 274.32 297.16 274.42 296.78 274.49C296.41 274.56 296.02 274.66 295.62 274.78C295.22 274.9 294.81 275.08 294.39 275.3C293.97 275.53 293.54 275.87 293.11 276.33C293.04 276.4 292.98 276.44 292.93 276.44C292.81 276.51 292.68 276.52 292.53 276.46C292.38 276.4 292.35 276.3 292.42 276.15C293.14 274.75 293.97 273.47 294.9 272.32C295.83 271.16 296.87 270.17 298.03 269.34C299.19 268.51 300.47 267.86 301.88 267.4C303.29 266.94 304.85 266.71 306.56 266.71H322.11L320.16 273.18H308.66C308.15 273.18 307.74 273.34 307.41 273.65C307.08 273.96 306.81 274.34 306.58 274.77C306.35 275.2 306.15 275.66 305.98 276.13C305.81 276.6 305.62 276.99 305.4 277.31C305.62 277.29 305.88 277.27 306.18 277.26C306.48 277.25 306.97 277.24 307.64 277.24C308.31 277.24 309.31 277.24 310.55 277.26C311.79 277.27 313.45 277.28 315.52 277.28L313.93 282.45H313.95Z" fill="#005DA1"/>
<path d="M328.83 286.86C329.08 287.25 329.39 287.46 329.75 287.51C330.57 287.63 331.4 287.68 332.25 287.65C333.09 287.63 333.94 287.61 334.78 287.61L336.81 281.46H344.88L340.94 293.76H339.31C334.51 294.48 329.68 294.57 324.81 294.01C323.68 293.89 322.75 293.52 322.04 292.89C321.33 292.26 320.79 291.5 320.43 290.61C320.07 289.72 319.85 288.75 319.78 287.72C319.71 286.68 319.76 285.71 319.92 284.79C320.35 282.4 320.97 280.08 321.77 277.83C322.56 275.58 323.52 273.39 324.63 271.27C324.97 270.64 325.39 270.05 325.91 269.5C326.43 268.95 327.01 268.46 327.66 268.05C328.31 267.64 329 267.32 329.72 267.07C330.44 266.83 331.18 266.71 331.93 266.71H347.92L345.97 273.18H334C333.64 273.18 333.3 273.28 332.99 273.49C332.68 273.7 332.44 273.95 332.27 274.27C331.26 276.03 330.44 277.88 329.81 279.82C329.18 281.76 328.76 283.74 328.54 285.77C328.49 286.11 328.59 286.47 328.85 286.85L328.83 286.86Z" fill="#005DA1"/>
<path d="M361 286.1H356.01L353.7 293.77H345.89L354.03 266.83H367.67C368.59 266.83 369.5 266.95 370.42 267.19C371.34 267.43 372.16 267.8 372.88 268.31C373.6 268.82 374.19 269.46 374.65 270.23C375.11 271 375.34 271.91 375.34 272.94C375.34 274.36 375.14 275.76 374.74 277.14C374.34 278.51 373.75 279.8 372.95 281.01C372.4 281.88 371.74 282.7 370.98 283.49C370.22 284.27 369.38 284.91 368.47 285.39L371.22 293.78H363.63L361.03 286.11L361 286.1ZM361.65 280.57C362.32 280.57 362.88 280.52 363.33 280.43C363.78 280.33 364.15 280.2 364.45 280.03C364.75 279.86 365 279.66 365.21 279.43C365.41 279.2 365.63 278.97 365.84 278.72C366.39 278.12 366.82 277.44 367.12 276.69C367.42 275.94 367.57 275.15 367.57 274.3C367.57 274.01 367.52 273.71 367.41 273.4C367.3 273.09 367.15 272.8 366.96 272.55C366.77 272.3 366.53 272.09 366.25 271.94C365.97 271.78 365.66 271.71 365.33 271.71H360.34L357.66 280.57H361.64H361.65Z" fill="#005DA1"/>
<path d="M385.41 288.06L382.15 293.77H373.65L386.74 271.92C387.49 270.69 388.22 269.73 388.93 269.04C389.64 268.35 390.3 267.84 390.9 267.5C391.5 267.16 392.02 266.96 392.46 266.89C392.89 266.82 393.19 266.78 393.36 266.78H401.17V293.76H393.68V288.05H385.4L385.41 288.06ZM393.84 283.18V273.02L388.16 283.18H393.84Z" fill="#005DA1"/>
<path d="M413.44 286.57C413.75 286.96 414.08 287.18 414.42 287.26C416.47 287.57 418.49 287.66 420.5 287.51C422.5 287.36 424.5 287.09 426.5 286.68L424.58 293.37C421.9 293.83 419.34 294.09 416.88 294.17C414.42 294.25 411.95 294.1 409.47 293.74C407.35 293.47 405.89 292.55 405.11 290.97C404.33 289.39 404.3 287.23 405.02 284.48C405.04 284.33 405.08 284.17 405.13 283.97C405.18 283.78 405.26 283.47 405.38 283.05C405.5 282.63 405.66 282.04 405.87 281.3C406.07 280.55 406.36 279.55 406.74 278.28C407.11 277.01 407.59 275.45 408.17 273.58C408.75 271.71 409.45 269.45 410.27 266.8H418.34L413.78 281.88C413.66 282.51 413.52 283.11 413.36 283.69C413.2 284.27 413.1 284.87 413.05 285.5C413 285.84 413.13 286.2 413.45 286.58L413.44 286.57Z" fill="#005DA1"/>
<path d="M2.01006 329.8H13.7801C14.5801 329.8 15.3401 329.75 16.0601 329.66C16.7801 329.57 17.4101 329.39 17.9401 329.12C18.4701 328.85 18.8301 328.44 19.0201 327.88C19.2301 327.19 19.2501 326.71 19.0801 326.44C18.9101 326.17 18.5401 325.89 17.9801 325.6C17.5001 325.63 16.9101 325.64 16.2201 325.64C15.5301 325.64 14.7801 325.62 14.0001 325.58C13.2101 325.54 12.4101 325.47 11.6001 325.38C10.7901 325.29 10.0401 325.14 9.36006 324.94C8.68006 324.74 8.09006 324.49 7.58006 324.2C7.07006 323.91 6.73005 323.53 6.54005 323.08C6.33005 322.6 6.11005 322.07 5.90005 321.48C5.69005 320.89 5.52005 320.27 5.40005 319.6C5.28006 318.93 5.24006 318.23 5.28006 317.48C5.32006 316.73 5.47007 315.97 5.74007 315.2C4.99007 315.49 4.32006 315.83 3.72006 316.22C3.12006 316.61 2.62006 317.05 2.22006 317.56C2.14006 317.64 2.07007 317.68 2.02007 317.68C1.89007 317.76 1.74006 317.77 1.58006 317.7C1.42006 317.63 1.37006 317.52 1.42006 317.36C2.30006 315.68 3.18006 314.18 4.06006 312.88C4.94006 311.57 5.96007 310.47 7.10007 309.58C8.25007 308.69 9.61005 308.01 11.1801 307.54C12.7601 307.07 14.7001 306.85 17.0301 306.88H31.6901L29.9701 314.05L17.1201 314.09C16.1901 314.2 15.3801 314.38 14.7001 314.65C14.0201 314.92 13.5501 315.36 13.2801 315.97C12.9901 316.64 12.9301 317.19 13.1001 317.63C13.2701 318.07 13.6101 318.41 14.1201 318.65C14.3301 318.76 14.5501 318.83 14.7601 318.87C14.9701 318.91 15.2301 318.94 15.5201 318.95C15.8101 318.96 16.1601 318.97 16.5601 318.97H18.0001C20.3801 318.97 22.2001 319.16 23.4901 319.53C24.7701 319.9 25.7301 320.54 26.3701 321.45C26.8801 322.14 27.1601 323.09 27.2101 324.27C27.2601 325.46 27.0601 326.69 26.6101 327.97C26.0801 329.6 25.3601 331.1 24.4701 332.47C23.5801 333.85 22.3701 334.89 20.8501 335.61C19.9201 336.06 18.6901 336.38 17.1701 336.55C15.6501 336.72 13.6901 336.81 11.2801 336.81H0.310059L2.03006 329.8H2.01006Z" fill="#005DA1"/>
<path d="M60.2301 322.45C59.4301 325.4 58.4001 328.32 57.1501 331.2C56.4801 332.67 55.5001 333.87 54.1901 334.8C52.8801 335.73 51.4501 336.34 49.9101 336.6C48.6601 336.81 47.4101 336.97 46.1701 337.08C44.9301 337.19 43.6801 337.24 42.4301 337.24C41.5201 337.24 40.5701 337.22 39.5901 337.18C38.6001 337.14 37.6301 337.03 36.6701 336.86C35.7101 336.69 34.8101 336.43 33.9701 336.1C33.1301 335.77 32.4001 335.31 31.7901 334.74C31.1801 334.17 30.7101 333.46 30.4101 332.62C30.1001 331.78 30.0001 330.76 30.1101 329.56C30.2401 328.17 30.4801 326.74 30.8101 325.26C31.1401 323.78 31.5301 322.3 31.9701 320.84C32.4101 319.37 32.8801 317.94 33.3901 316.54C33.9001 315.14 34.4001 313.82 34.9101 312.6C35.1801 311.93 35.6201 311.25 36.2501 310.56C36.8801 309.87 37.7501 309.23 38.8501 308.66C39.9601 308.09 41.3501 307.62 43.0301 307.26C44.7101 306.9 46.7401 306.72 49.1201 306.72C50.2901 306.72 51.5701 306.75 52.9401 306.8C54.3101 306.85 55.6201 307.05 56.8601 307.4C58.1001 307.75 59.2001 308.3 60.1601 309.06C61.1201 309.82 61.7801 310.92 62.1201 312.36V313.44C61.6701 316.51 61.0401 319.52 60.2401 322.47L60.2301 322.45ZM50.9801 322.05C51.7001 319.82 52.2901 317.55 52.7401 315.22C52.8701 314.61 52.8101 314.12 52.5401 313.76C52.2701 313.4 51.9101 313.13 51.4401 312.96C50.9701 312.79 50.4601 312.67 49.9001 312.62C49.3401 312.57 48.8601 312.54 48.4601 312.54C48.0101 312.54 47.5101 312.57 46.9801 312.62C46.4501 312.67 45.9301 312.79 45.4401 312.96C44.9501 313.13 44.5001 313.37 44.1001 313.68C43.7001 313.99 43.4001 314.39 43.2201 314.9C42.4201 316.98 41.6701 319.13 40.9801 321.35C40.2801 323.57 39.7001 325.81 39.2201 328.08C39.0901 328.61 39.0801 329.09 39.2001 329.5C39.3201 329.91 39.5301 330.26 39.8201 330.54C40.1101 330.82 40.4901 331.03 40.9401 331.16C41.3901 331.29 41.8901 331.33 42.4201 331.28C42.9301 331.28 43.5101 331.26 44.1601 331.22C44.8101 331.18 45.4401 331.08 46.0401 330.92C46.6401 330.76 47.1701 330.51 47.6201 330.16C48.0701 329.81 48.3701 329.33 48.5001 328.72C49.4301 326.5 50.2601 324.28 50.9801 322.05Z" fill="#005DA1"/>
<path d="M71.08 328.32L68.48 336.81H59.55L68.56 306.98H83.7401C85.0201 306.98 86.26 307.17 87.44 307.54C88.63 307.91 89.68 308.55 90.58 309.46C91.11 310.02 91.5301 310.67 91.8201 311.42C92.1101 312.17 92.26 312.94 92.26 313.74C92.26 315.32 92.03 316.86 91.58 318.39C91.13 319.92 90.47 321.34 89.62 322.67C89.14 323.39 88.6101 324.09 88.0201 324.77C87.43 325.45 86.7901 326.05 86.1001 326.57C85.4101 327.09 84.6701 327.51 83.8801 327.83C83.09 328.15 82.27 328.31 81.42 328.31H71.09L71.08 328.32ZM77.37 322.19C78.12 322.19 78.7301 322.14 79.2101 322.03C79.6901 321.92 80.1 321.78 80.43 321.59C80.76 321.4 81.0401 321.18 81.2701 320.93C81.5 320.68 81.73 320.42 81.97 320.15C82.58 319.48 83.06 318.74 83.39 317.91C83.72 317.08 83.89 316.2 83.89 315.27C83.89 314.95 83.8301 314.62 83.7101 314.27C83.5901 313.92 83.4201 313.61 83.2101 313.33C83.0001 313.05 82.74 312.82 82.45 312.65C82.16 312.48 81.82 312.39 81.45 312.39H75.8801L72.8801 322.2H77.36L77.37 322.19Z" fill="#005DA1"/>
<path d="M111.32 321.91H104.79L100.27 336.81H91.2601L95.7102 322.23C94.2902 322.52 93.0702 322.92 92.0302 323.43C90.9902 323.94 90.1302 324.58 89.4702 325.35C89.3402 325.54 89.1702 325.6 88.9702 325.55C88.7702 325.5 88.7002 325.38 88.7502 325.19C89.3902 323.99 90.0102 322.89 90.6102 321.89C91.2102 320.89 91.8502 320 92.5302 319.23C93.2102 318.46 93.9602 317.8 94.7702 317.27C95.5802 316.74 96.5202 316.35 97.5902 316.11L100.39 306.98H109.32L106.72 315.59H113.25L115.89 306.94H124.86L115.81 336.77H106.76L111.32 321.91Z" fill="#005DA1"/>
<path d="M130.7 306.97H139.63L130.62 336.8H121.57L130.7 306.97Z" fill="#005DA1"/>
<path d="M161.01 324.27H149.72C149.59 324.88 149.43 325.5 149.24 326.11C149.05 326.72 148.92 327.34 148.84 327.95C148.79 328.32 148.91 328.68 149.2 329.03C149.49 329.38 149.83 329.58 150.2 329.63C152.47 329.98 154.75 330.12 157.05 330.05C159.35 329.98 161.6 329.74 163.82 329.31L161.7 336.72C156.15 337.57 150.57 337.69 144.96 337.08C143.71 336.95 142.68 336.53 141.9 335.84C141.11 335.15 140.52 334.31 140.12 333.32C139.72 332.33 139.49 331.26 139.42 330.12C139.35 328.97 139.42 327.89 139.6 326.88C139.97 324.85 140.46 322.86 141.06 320.89C141.66 318.93 142.37 317.01 143.2 315.14C142.83 315.27 142.43 315.38 142.02 315.46C141.61 315.54 141.18 315.65 140.74 315.78C140.3 315.91 139.85 316.11 139.38 316.36C138.91 316.61 138.44 316.99 137.96 317.5C137.88 317.58 137.81 317.62 137.76 317.62C137.63 317.7 137.48 317.71 137.32 317.64C137.16 317.57 137.12 317.46 137.2 317.3C138 315.75 138.91 314.34 139.94 313.06C140.97 311.78 142.12 310.68 143.4 309.76C144.68 308.84 146.1 308.13 147.66 307.62C149.22 307.11 150.95 306.86 152.85 306.86H170.07L167.91 314.03H155.18C154.62 314.03 154.16 314.2 153.8 314.55C153.44 314.9 153.13 315.31 152.88 315.79C152.63 316.27 152.41 316.77 152.22 317.29C152.03 317.81 151.82 318.24 151.58 318.59C151.82 318.56 152.11 318.54 152.44 318.53C152.77 318.52 153.31 318.51 154.06 318.51C154.81 318.51 155.91 318.51 157.28 318.53C158.66 318.54 160.49 318.55 162.79 318.55L161.03 324.28L161.01 324.27Z" fill="#005DA1"/>
<path d="M191.94 329.16C192.22 329.59 192.56 329.83 192.96 329.88C193.87 330.01 194.79 330.07 195.72 330.04C196.65 330.01 197.59 330 198.52 330L200.76 323.19H209.69L205.32 336.8H203.52C198.21 337.6 192.85 337.69 187.46 337.08C186.2 336.95 185.18 336.53 184.4 335.84C183.61 335.15 183.02 334.31 182.62 333.32C182.22 332.33 181.98 331.26 181.9 330.12C181.82 328.97 181.87 327.89 182.06 326.88C182.54 324.24 183.22 321.67 184.1 319.17C184.98 316.67 186.04 314.25 187.26 311.9C187.63 311.21 188.11 310.55 188.68 309.94C189.25 309.33 189.9 308.79 190.62 308.34C191.34 307.89 192.1 307.53 192.9 307.26C193.7 306.99 194.51 306.86 195.34 306.86H213.04L210.88 314.03H197.63C197.23 314.03 196.86 314.14 196.51 314.37C196.16 314.6 195.9 314.88 195.71 315.23C194.59 317.18 193.68 319.23 192.99 321.38C192.29 323.53 191.83 325.72 191.59 327.97C191.54 328.34 191.65 328.74 191.93 329.17L191.94 329.16Z" fill="#005DA1"/>
<path d="M236.13 324.27H224.84C224.71 324.88 224.55 325.5 224.36 326.11C224.17 326.72 224.04 327.34 223.96 327.95C223.91 328.32 224.03 328.68 224.32 329.03C224.61 329.38 224.95 329.58 225.32 329.63C227.59 329.98 229.87 330.12 232.17 330.05C234.47 329.98 236.72 329.74 238.94 329.31L236.82 336.72C231.27 337.57 225.69 337.69 220.08 337.08C218.82 336.95 217.8 336.53 217.02 335.84C216.23 335.15 215.64 334.31 215.24 333.32C214.84 332.33 214.61 331.26 214.54 330.12C214.47 328.97 214.54 327.89 214.72 326.88C215.09 324.85 215.58 322.86 216.18 320.89C216.78 318.92 217.49 317.01 218.32 315.14C217.94 315.27 217.55 315.38 217.14 315.46C216.73 315.54 216.3 315.65 215.86 315.78C215.42 315.91 214.97 316.11 214.5 316.36C214.03 316.61 213.56 316.99 213.08 317.5C213 317.58 212.93 317.62 212.88 317.62C212.75 317.7 212.6 317.71 212.44 317.64C212.28 317.57 212.24 317.46 212.32 317.3C213.12 315.75 214.03 314.34 215.06 313.06C216.09 311.78 217.24 310.68 218.52 309.76C219.8 308.84 221.22 308.13 222.78 307.62C224.34 307.11 226.07 306.86 227.97 306.86H245.19L243.03 314.03H230.3C229.74 314.03 229.28 314.2 228.92 314.55C228.56 314.9 228.25 315.31 228 315.79C227.75 316.27 227.53 316.77 227.34 317.29C227.15 317.81 226.94 318.24 226.7 318.59C226.94 318.56 227.23 318.54 227.56 318.53C227.89 318.52 228.44 318.51 229.18 318.51C229.92 318.51 231.03 318.51 232.4 318.53C233.78 318.54 235.61 318.55 237.91 318.55L236.15 324.28L236.13 324.27Z" fill="#005DA1"/>
<path d="M258.11 328.32H252.58L250.02 336.81H241.37L250.38 306.98H265.48C266.49 306.98 267.51 307.11 268.52 307.38C269.53 307.65 270.44 308.06 271.24 308.62C272.04 309.18 272.69 309.89 273.2 310.74C273.71 311.59 273.96 312.6 273.96 313.74C273.96 315.32 273.74 316.86 273.3 318.39C272.86 319.91 272.2 321.34 271.32 322.67C270.7 323.63 269.98 324.55 269.14 325.41C268.3 326.28 267.37 326.98 266.36 327.51L269.4 336.8H260.99L258.11 328.31V328.32ZM258.83 322.19C259.58 322.19 260.2 322.14 260.69 322.03C261.18 321.92 261.6 321.78 261.93 321.59C262.26 321.4 262.54 321.18 262.77 320.93C263 320.68 263.23 320.42 263.47 320.15C264.08 319.48 264.56 318.74 264.89 317.91C265.22 317.08 265.39 316.2 265.39 315.27C265.39 314.95 265.33 314.62 265.21 314.27C265.09 313.92 264.92 313.61 264.71 313.33C264.5 313.05 264.24 312.82 263.93 312.65C263.62 312.48 263.28 312.39 262.91 312.39H257.38L254.42 322.2H258.83V322.19Z" fill="#005DA1"/>
<path d="M291.9 330.32H289.94L287.22 316.07L280.97 336.81H272.12L281.09 306.98H290.06C290.54 306.98 291.02 307.05 291.5 307.2C291.98 307.35 292.42 307.56 292.82 307.84C293.22 308.12 293.56 308.45 293.84 308.82C294.12 309.19 294.31 309.62 294.42 310.1L295.74 316.95L301.47 309.74C302.16 308.89 303.01 308.21 303.99 307.72C304.98 307.23 305.99 306.98 307.03 306.98H315.08L306.15 336.81H297.18L303.35 316.43L291.9 330.32Z" fill="#005DA1"/>
<path d="M321.73 330.48L318.13 336.81H308.72L323.21 312.62C324.04 311.26 324.84 310.2 325.63 309.44C326.42 308.68 327.14 308.11 327.81 307.74C328.48 307.37 329.05 307.14 329.53 307.06C330.01 306.98 330.34 306.94 330.53 306.94H339.18V336.81H330.89V330.48H321.72H321.73ZM331.06 325.07V313.82L324.77 325.07H331.06Z" fill="#005DA1"/>
<path d="M350.96 306.97H359.89L350.88 336.8H341.83L350.96 306.97Z" fill="#005DA1"/>
<path d="M381.07 324.27L386.36 306.97H394.93L386 336.8H375.35L371.15 316.06L364.9 336.8H356.05L365.02 306.97H373.99C374.47 306.97 374.95 307.04 375.43 307.19C375.91 307.34 376.35 307.55 376.75 307.83C377.15 308.11 377.49 308.44 377.77 308.81C378.05 309.18 378.24 309.61 378.35 310.09L381.07 324.26V324.27Z" fill="#005DA1"/>
<path d="M408.7 329.8H420.47C421.27 329.8 422.03 329.75 422.75 329.66C423.47 329.57 424.1 329.39 424.63 329.12C425.16 328.85 425.52 328.44 425.71 327.88C425.92 327.19 425.94 326.71 425.77 326.44C425.6 326.17 425.23 325.89 424.67 325.6C424.19 325.63 423.6 325.64 422.91 325.64C422.22 325.64 421.47 325.62 420.69 325.58C419.9 325.54 419.1 325.47 418.29 325.38C417.48 325.29 416.73 325.14 416.05 324.94C415.37 324.74 414.77 324.49 414.27 324.2C413.76 323.91 413.42 323.53 413.23 323.08C413.02 322.6 412.8 322.07 412.59 321.48C412.38 320.89 412.21 320.27 412.09 319.6C411.97 318.93 411.93 318.23 411.97 317.48C412.01 316.73 412.16 315.97 412.43 315.2C411.68 315.49 411.01 315.83 410.41 316.22C409.81 316.61 409.31 317.05 408.91 317.56C408.83 317.64 408.76 317.68 408.71 317.68C408.58 317.76 408.43 317.77 408.27 317.7C408.11 317.63 408.06 317.52 408.11 317.36C408.99 315.68 409.87 314.18 410.75 312.88C411.63 311.57 412.65 310.47 413.79 309.58C414.94 308.69 416.3 308.01 417.87 307.54C419.45 307.07 421.39 306.85 423.72 306.88H438.37L436.65 314.05L423.8 314.09C422.86 314.2 422.06 314.38 421.38 314.65C420.7 314.92 420.22 315.36 419.96 315.97C419.67 316.64 419.6 317.19 419.78 317.63C419.96 318.07 420.29 318.41 420.8 318.65C421.01 318.76 421.23 318.83 421.44 318.87C421.65 318.91 421.91 318.94 422.2 318.95C422.49 318.96 422.84 318.97 423.24 318.97H424.68C427.06 318.97 428.88 319.16 430.17 319.53C431.45 319.9 432.41 320.54 433.05 321.45C433.56 322.14 433.84 323.09 433.89 324.27C433.94 325.46 433.74 326.69 433.29 327.97C432.76 329.6 432.04 331.1 431.15 332.47C430.26 333.85 429.05 334.89 427.53 335.61C426.6 336.06 425.37 336.38 423.85 336.55C422.33 336.72 420.37 336.81 417.96 336.81H406.99L408.71 329.8H408.7Z" fill="#005DA1"/>
<path d="M437.57 330.84H446.62L444.82 336.81H435.81L437.57 330.84Z" fill="#005DA1"/>
<path d="M456.13 328.96C456.41 329.25 456.75 329.44 457.15 329.52C459.39 329.84 461.63 329.99 463.86 329.98C466.09 329.97 468.3 329.75 470.49 329.32L468.37 336.73C462.82 337.58 457.25 337.7 451.67 337.09C450.41 336.96 449.39 336.54 448.61 335.85C447.82 335.16 447.23 334.32 446.83 333.33C446.43 332.34 446.19 331.27 446.11 330.13C446.03 328.98 446.08 327.9 446.27 326.89C446.48 325.77 446.75 324.49 447.07 323.05C447.39 321.61 447.8 320.15 448.29 318.67C448.78 317.19 449.36 315.74 450.03 314.33C450.7 312.92 451.49 311.65 452.41 310.55C453.33 309.44 454.38 308.55 455.55 307.89C456.72 307.22 458.06 306.89 459.55 306.89H477.25L475.09 314.06H461.84C461.44 314.06 461.07 314.17 460.72 314.4C460.37 314.63 460.11 314.91 459.92 315.26C458.8 317.21 457.89 319.26 457.2 321.41C456.51 323.56 456.04 325.75 455.8 328C455.75 328.37 455.86 328.71 456.14 329L456.13 328.96Z" fill="#005DA1"/>
<path d="M474.45 330.84H483.5L481.7 336.81H472.69L474.45 330.84Z" fill="#005DA1"/>
<path d="M14.79 357.77C15.24 356.14 16.07 354.04 16.62 353.15L17.7101 353.03C17.2801 354.18 16.78 356.18 16.56 357.58L14.79 357.77ZM17.68 357.77C18.11 356.14 18.9601 354.04 19.4901 353.15L20.58 353.03C20.15 354.18 19.65 356.18 19.43 357.58L17.68 357.77Z" fill="#FF0000"/>
<path d="M26.31 362.47C26.48 362.68 26.6501 362.8 26.8301 362.84C27.9301 363.01 29.02 363.05 30.09 362.98C31.16 362.9 32.2401 362.75 33.3201 362.53L32.29 366.12C30.85 366.37 29.47 366.51 28.15 366.55C26.83 366.59 25.5 366.51 24.17 366.32C23.03 366.18 22.2501 365.68 21.8301 364.83C21.4101 363.98 21.39 362.82 21.78 361.34C21.79 361.26 21.81 361.17 21.84 361.07C21.87 360.97 21.91 360.8 21.98 360.57C22.04 360.34 22.1301 360.03 22.2401 359.63C22.3501 359.23 22.5101 358.69 22.7101 358.01C22.9101 357.33 23.17 356.49 23.48 355.48C23.79 354.48 24.17 353.26 24.61 351.84H28.9401L26.4901 359.94C26.4301 360.28 26.3501 360.6 26.2701 360.91C26.1901 361.22 26.1301 361.54 26.1001 361.88C26.0701 362.06 26.14 362.26 26.31 362.46V362.47Z" fill="#FF0000"/>
<path d="M39.6401 363.27L37.8901 366.34H33.3201L40.3501 354.6C40.7501 353.94 41.1401 353.42 41.5301 353.06C41.9101 352.69 42.2601 352.42 42.5901 352.23C42.9101 352.05 43.1901 351.94 43.4301 351.9C43.6601 351.86 43.8201 351.84 43.9201 351.84H48.1201V366.34H44.1001V363.27H39.6501H39.6401ZM44.1701 360.65V355.19L41.1201 360.65H44.1701Z" fill="#FF0000"/>
<path d="M68.6501 360.26H63.1701C63.1101 360.56 63.0301 360.86 62.9401 361.15C62.8501 361.45 62.7801 361.75 62.7501 362.04C62.7201 362.22 62.7801 362.4 62.9301 362.56C63.0701 362.73 63.2301 362.83 63.4201 362.85C64.5201 363.02 65.6301 363.09 66.7401 363.05C67.8501 363.02 68.9501 362.9 70.0201 362.69L68.9901 366.28C66.2901 366.69 63.5901 366.75 60.8701 366.46C60.2601 366.4 59.7701 366.19 59.3801 365.86C59.0001 365.52 58.7101 365.12 58.5101 364.64C58.3201 364.16 58.2001 363.64 58.1701 363.09C58.1401 362.53 58.1701 362.01 58.2601 361.52C58.4401 360.54 58.6801 359.57 58.9701 358.61C59.2601 357.65 59.6101 356.73 60.0101 355.82C59.8301 355.88 59.6401 355.94 59.4401 355.98C59.2401 356.02 59.0301 356.07 58.8201 356.14C58.6101 356.2 58.3901 356.3 58.1601 356.42C57.9301 356.54 57.7001 356.73 57.4701 356.97C57.4301 357.01 57.4001 357.03 57.3701 357.03C57.3101 357.07 57.2301 357.07 57.1601 357.03C57.0801 357 57.0601 356.94 57.1001 356.86C57.4901 356.11 57.9301 355.42 58.4301 354.8C58.9301 354.18 59.4901 353.64 60.1101 353.2C60.7301 352.75 61.4201 352.41 62.1801 352.16C62.9401 351.91 63.7801 351.79 64.7001 351.79H73.0601L72.0101 355.27H65.8301C65.5601 355.27 65.3301 355.35 65.1601 355.52C64.9801 355.69 64.8401 355.89 64.7101 356.12C64.5901 356.35 64.4801 356.6 64.3901 356.85C64.3001 357.1 64.1901 357.31 64.0801 357.48C64.2001 357.47 64.3301 357.46 64.5001 357.45C64.6601 357.45 64.9201 357.45 65.2901 357.45C65.6601 357.45 66.1901 357.45 66.8501 357.45C67.5201 357.45 68.4101 357.45 69.5201 357.45L68.6701 360.23L68.6501 360.26Z" fill="#FF0000"/>
<path d="M71.31 366.36L75.5701 351.84H83.5C84.12 351.84 84.72 351.93 85.3 352.1C85.88 352.28 86.38 352.59 86.83 353.04C87.09 353.31 87.29 353.63 87.43 353.99C87.57 354.35 87.64 354.73 87.64 355.12C87.64 355.38 87.6 355.74 87.5201 356.19C87.4401 356.64 87.33 357.15 87.2 357.71C87.07 358.27 86.9101 358.85 86.7401 359.46C86.5701 360.07 86.4001 360.65 86.2101 361.19C86.0201 361.73 85.85 362.22 85.69 362.66C85.53 363.1 85.37 363.41 85.22 363.62C84.99 363.97 84.73 364.31 84.44 364.64C84.15 364.97 83.84 365.26 83.51 365.51C83.17 365.76 82.81 365.96 82.43 366.11C82.05 366.26 81.65 366.33 81.23 366.33L71.3 366.35L71.31 366.36ZM79.28 363.39C79.63 363.39 79.92 363.37 80.16 363.34C80.4 363.31 80.6 363.25 80.76 363.17C80.92 363.09 81.06 362.99 81.17 362.86C81.28 362.73 81.39 362.57 81.51 362.37C81.58 362.25 81.67 362.03 81.8 361.7C81.93 361.37 82.07 360.99 82.23 360.55C82.38 360.12 82.54 359.66 82.7 359.17C82.86 358.68 83.0001 358.22 83.1301 357.78C83.2601 357.34 83.37 356.95 83.45 356.6C83.53 356.26 83.58 356.01 83.58 355.85C83.58 355.69 83.5501 355.53 83.4901 355.36C83.4301 355.19 83.35 355.04 83.25 354.9C83.15 354.76 83.0201 354.65 82.8801 354.57C82.7401 354.49 82.58 354.44 82.39 354.44H79.0701L76.51 363.36H79.29L79.28 363.39Z" fill="#FF0000"/>
<path d="M94.8101 351.81L91.6801 362.11C91.5901 362.37 91.5901 362.59 91.6801 362.77C91.7601 362.95 91.9001 363.1 92.0901 363.23C92.2801 363.35 92.5001 363.45 92.7701 363.51C93.0401 363.57 93.3101 363.63 93.6001 363.67C93.9001 363.64 94.1801 363.61 94.4501 363.55C94.7201 363.5 94.9801 363.42 95.2301 363.31C95.4801 363.2 95.7001 363.05 95.8901 362.87C96.0801 362.69 96.2501 362.46 96.3901 362.17L99.5401 351.81C99.5401 351.81 99.5801 351.79 99.6201 351.79H103.99L100.4 363.62C100.01 364.33 99.5001 364.89 98.8701 365.28C98.2401 365.68 97.5701 365.97 96.8501 366.15C96.1301 366.34 95.4101 366.45 94.6701 366.49C93.9401 366.53 93.2701 366.55 92.6801 366.55C92.2401 366.55 91.7901 366.55 91.3201 366.52C90.8501 366.5 90.4101 366.45 89.9801 366.36C89.5501 366.28 89.1501 366.15 88.7901 365.99C88.4301 365.83 88.1101 365.61 87.8601 365.33C87.6101 365.05 87.4301 364.71 87.3201 364.3C87.2201 363.89 87.2201 363.4 87.3201 362.81L90.7001 351.79H94.8201L94.8101 351.81Z" fill="#FF0000"/>
<path d="M106.71 362.53C106.85 362.67 107.01 362.76 107.21 362.8C108.3 362.96 109.38 363.03 110.46 363.02C111.54 363.02 112.61 362.91 113.68 362.7L112.65 366.29C109.95 366.7 107.25 366.76 104.55 366.47C103.94 366.41 103.45 366.2 103.06 365.87C102.68 365.53 102.39 365.13 102.19 364.65C102 364.17 101.88 363.65 101.84 363.1C101.8 362.54 101.83 362.02 101.92 361.53C102.02 360.99 102.15 360.36 102.31 359.66C102.47 358.96 102.66 358.25 102.9 357.53C103.14 356.81 103.42 356.11 103.75 355.42C104.08 354.73 104.46 354.12 104.91 353.58C105.36 353.04 105.87 352.61 106.44 352.29C107.01 351.97 107.66 351.8 108.38 351.8H116.97L115.92 355.28H109.49C109.3 355.28 109.11 355.34 108.95 355.45C108.78 355.56 108.65 355.7 108.56 355.87C108.02 356.82 107.57 357.81 107.24 358.85C106.9 359.89 106.68 360.96 106.56 362.05C106.53 362.23 106.59 362.39 106.72 362.54L106.71 362.53Z" fill="#FF0000"/>
<path d="M120.38 363.27L118.63 366.34H114.06L121.09 354.6C121.49 353.94 121.88 353.42 122.27 353.06C122.65 352.69 123.01 352.42 123.33 352.23C123.65 352.05 123.93 351.94 124.16 351.9C124.39 351.86 124.56 351.84 124.65 351.84H128.85V366.34H124.83V363.27H120.38ZM124.91 360.65V355.19L121.86 360.65H124.91Z" fill="#FF0000"/>
<path d="M135.54 362.53C135.68 362.67 135.84 362.76 136.04 362.8C137.13 362.96 138.21 363.03 139.3 363.02C140.38 363.02 141.45 362.91 142.51 362.7L141.48 366.29C138.78 366.7 136.08 366.76 133.38 366.47C132.77 366.41 132.28 366.2 131.89 365.87C131.51 365.53 131.22 365.13 131.03 364.65C130.84 364.17 130.72 363.65 130.68 363.1C130.64 362.54 130.67 362.02 130.76 361.53C130.86 360.99 130.99 360.36 131.15 359.66C131.31 358.96 131.5 358.25 131.74 357.53C131.98 356.81 132.26 356.11 132.58 355.42C132.9 354.73 133.29 354.12 133.74 353.58C134.19 353.04 134.7 352.61 135.27 352.29C135.84 351.97 136.49 351.8 137.21 351.8H145.8L144.75 355.28H138.32C138.13 355.28 137.94 355.34 137.78 355.45C137.61 355.56 137.48 355.7 137.39 355.87C136.85 356.82 136.4 357.81 136.07 358.85C135.73 359.89 135.51 360.96 135.39 362.05C135.36 362.23 135.42 362.39 135.56 362.54L135.54 362.53Z" fill="#FF0000"/>
<path d="M147.93 351.86H152.26L147.89 366.34H143.5L147.93 351.86Z" fill="#FF0000"/>
<path d="M165.58 359.38C165.19 360.81 164.69 362.23 164.08 363.63C163.76 364.34 163.28 364.93 162.64 365.38C162 365.83 161.31 366.13 160.56 366.25C159.95 366.35 159.35 366.43 158.74 366.48C158.14 366.53 157.53 366.56 156.92 366.56C156.48 366.56 156.02 366.56 155.54 366.53C155.06 366.51 154.59 366.46 154.12 366.37C153.65 366.29 153.22 366.16 152.81 366C152.4 365.84 152.05 365.62 151.75 365.34C151.45 365.06 151.23 364.72 151.08 364.31C150.93 363.9 150.88 363.41 150.93 362.82C150.99 362.15 151.11 361.45 151.27 360.73C151.43 360.01 151.62 359.3 151.83 358.58C152.04 357.87 152.27 357.17 152.52 356.49C152.77 355.81 153.01 355.17 153.26 354.58C153.39 354.26 153.61 353.93 153.91 353.59C154.21 353.25 154.64 352.95 155.17 352.67C155.71 352.39 156.38 352.17 157.2 351.99C158.02 351.81 159 351.73 160.15 351.73C160.72 351.73 161.34 351.74 162.01 351.77C162.68 351.8 163.31 351.89 163.91 352.06C164.51 352.23 165.05 352.5 165.51 352.87C165.98 353.24 166.29 353.77 166.46 354.47V354.99C166.24 356.48 165.94 357.94 165.55 359.37L165.58 359.38ZM161.09 359.19C161.44 358.11 161.72 357 161.94 355.88C162 355.58 161.97 355.35 161.84 355.17C161.71 355 161.53 354.87 161.31 354.78C161.08 354.7 160.83 354.64 160.56 354.61C160.29 354.58 160.05 354.57 159.86 354.57C159.64 354.57 159.4 354.58 159.14 354.61C158.88 354.64 158.63 354.69 158.39 354.78C158.15 354.86 157.93 354.98 157.74 355.13C157.55 355.28 157.4 355.48 157.31 355.72C156.92 356.73 156.56 357.77 156.22 358.85C155.88 359.93 155.6 361.01 155.37 362.11C155.3 362.37 155.3 362.6 155.37 362.8C155.43 363 155.53 363.17 155.67 363.31C155.81 363.45 155.99 363.55 156.21 363.61C156.43 363.67 156.67 363.69 156.93 363.67C157.18 363.67 157.46 363.67 157.78 363.64C158.1 363.62 158.4 363.57 158.69 363.49C158.98 363.41 159.24 363.29 159.46 363.12C159.68 362.95 159.82 362.72 159.89 362.42C160.34 361.34 160.74 360.27 161.1 359.18L161.09 359.19ZM164.82 348.01L163.94 350.89H159.55L164.82 348.01Z" fill="#FF0000"/>
<path d="M176.98 360.26L179.54 351.87H183.7L179.37 366.35H174.2L172.16 356.28L169.13 366.35H164.84L169.19 351.87H173.54C173.77 351.87 174.01 351.91 174.24 351.98C174.47 352.05 174.69 352.15 174.88 352.29C175.08 352.43 175.24 352.58 175.38 352.77C175.52 352.95 175.61 353.16 175.66 353.39L176.98 360.27V360.26Z" fill="#FF0000"/>
<path d="M195.79 363.27L194.04 366.34H189.47L196.5 354.6C196.9 353.94 197.29 353.42 197.68 353.06C198.06 352.69 198.42 352.42 198.74 352.23C199.06 352.05 199.34 351.94 199.57 351.9C199.8 351.86 199.97 351.84 200.06 351.84H204.26V366.34H200.24V363.27H195.79ZM200.32 360.65V355.19L197.27 360.65H200.32Z" fill="#FF0000"/>
<path d="M210.85 362.47C211.02 362.68 211.19 362.8 211.37 362.84C212.47 363.01 213.56 363.05 214.64 362.98C215.71 362.9 216.79 362.75 217.86 362.53L216.83 366.12C215.39 366.37 214.01 366.51 212.69 366.55C211.37 366.59 210.04 366.51 208.71 366.32C207.57 366.18 206.79 365.68 206.37 364.83C205.95 363.98 205.93 362.82 206.32 361.34C206.33 361.26 206.35 361.17 206.38 361.07C206.41 360.97 206.45 360.8 206.52 360.57C206.58 360.34 206.67 360.03 206.78 359.63C206.89 359.23 207.05 358.69 207.25 358.01C207.45 357.33 207.71 356.49 208.02 355.48C208.33 354.47 208.71 353.26 209.15 351.84H213.48L211.03 359.94C210.97 360.28 210.89 360.6 210.81 360.91C210.73 361.22 210.67 361.54 210.64 361.88C210.61 362.06 210.68 362.26 210.85 362.46V362.47Z" fill="#FF0000"/>
<path d="M231.2 363.27L229.45 366.34H224.88L231.91 354.6C232.31 353.94 232.7 353.42 233.09 353.06C233.47 352.69 233.82 352.42 234.15 352.23C234.47 352.05 234.75 351.94 234.99 351.9C235.22 351.86 235.38 351.84 235.48 351.84H239.68V366.34H235.66V363.27H231.21H231.2ZM235.73 360.65V355.19L232.68 360.65H235.73Z" fill="#FF0000"/>
<path d="M246.25 362.47C246.42 362.68 246.59 362.8 246.77 362.84C247.87 363.01 248.96 363.05 250.04 362.98C251.11 362.9 252.19 362.75 253.26 362.53L252.23 366.12C250.79 366.37 249.41 366.51 248.09 366.55C246.77 366.59 245.44 366.51 244.11 366.32C242.97 366.18 242.19 365.68 241.77 364.83C241.35 363.98 241.33 362.82 241.72 361.34C241.73 361.26 241.75 361.17 241.78 361.07C241.81 360.97 241.85 360.8 241.92 360.57C241.98 360.34 242.07 360.03 242.18 359.63C242.29 359.23 242.45 358.69 242.65 358.01C242.85 357.33 243.11 356.49 243.42 355.48C243.73 354.47 244.11 353.26 244.55 351.84H248.88L246.43 359.94C246.37 360.28 246.29 360.6 246.21 360.91C246.13 361.22 246.07 361.54 246.04 361.88C246.01 362.06 246.08 362.26 246.25 362.46V362.47Z" fill="#FF0000"/>
<path d="M258.68 362.53C258.82 362.67 258.98 362.76 259.18 362.8C260.27 362.96 261.35 363.03 262.43 363.02C263.51 363.01 264.58 362.91 265.65 362.7L264.62 366.29C261.93 366.7 259.23 366.76 256.52 366.47C255.91 366.41 255.42 366.2 255.03 365.87C254.64 365.54 254.36 365.13 254.17 364.65C253.97 364.17 253.86 363.65 253.82 363.1C253.78 362.54 253.81 362.02 253.9 361.53C254 360.99 254.13 360.36 254.29 359.66C254.45 358.96 254.64 358.25 254.88 357.53C255.12 356.81 255.4 356.11 255.72 355.42C256.04 354.73 256.43 354.12 256.88 353.58C257.33 353.04 257.84 352.61 258.41 352.29C258.98 351.97 259.63 351.8 260.35 351.8H268.94L267.89 355.28H261.46C261.27 355.28 261.08 355.34 260.92 355.45C260.75 355.56 260.62 355.7 260.53 355.87C259.99 356.82 259.55 357.81 259.21 358.85C258.87 359.89 258.65 360.96 258.53 362.05C258.5 362.23 258.56 362.39 258.7 362.54L258.68 362.53Z" fill="#FF0000"/>
<path d="M272.35 363.27L270.6 366.34H266.03L273.06 354.6C273.46 353.94 273.85 353.42 274.24 353.06C274.62 352.69 274.97 352.42 275.3 352.23C275.62 352.05 275.9 351.94 276.14 351.9C276.37 351.86 276.53 351.84 276.63 351.84H280.83V366.34H276.81V363.27H272.36H272.35ZM276.88 360.65V355.19L273.83 360.65H276.88Z" fill="#FF0000"/>
<path d="M294.25 360.26L296.82 351.87H300.98L296.65 366.35H291.48L289.44 356.28L286.41 366.35H282.12L286.47 351.87H290.82C291.05 351.87 291.29 351.91 291.52 351.98C291.75 352.05 291.97 352.15 292.16 352.29C292.35 352.43 292.52 352.58 292.66 352.77C292.8 352.95 292.89 353.16 292.94 353.39L294.26 360.27L294.25 360.26Z" fill="#FF0000"/>
<path d="M305.14 362.53C305.28 362.67 305.44 362.76 305.64 362.8C306.73 362.96 307.81 363.03 308.89 363.02C309.97 363.01 311.04 362.91 312.11 362.7L311.08 366.29C308.39 366.7 305.69 366.76 302.98 366.47C302.37 366.41 301.88 366.2 301.49 365.87C301.1 365.54 300.82 365.13 300.63 364.65C300.43 364.17 300.32 363.65 300.28 363.1C300.24 362.54 300.27 362.02 300.36 361.53C300.46 360.99 300.59 360.36 300.75 359.66C300.91 358.96 301.1 358.25 301.34 357.53C301.58 356.81 301.86 356.11 302.18 355.42C302.5 354.73 302.89 354.12 303.34 353.58C303.79 353.04 304.3 352.61 304.87 352.29C305.44 351.97 306.09 351.8 306.81 351.8H315.4L314.35 355.28H307.92C307.73 355.28 307.54 355.34 307.38 355.45C307.21 355.56 307.08 355.7 306.99 355.87C306.45 356.82 306.01 357.81 305.67 358.85C305.33 359.89 305.11 360.96 304.99 362.05C304.96 362.23 305.02 362.39 305.16 362.54L305.14 362.53Z" fill="#FF0000"/>
<path d="M325.34 360.26H319.86C319.8 360.56 319.72 360.86 319.63 361.15C319.54 361.45 319.47 361.75 319.44 362.04C319.41 362.22 319.47 362.4 319.62 362.56C319.76 362.73 319.92 362.83 320.11 362.85C321.21 363.02 322.32 363.09 323.43 363.05C324.54 363.02 325.64 362.9 326.71 362.69L325.68 366.28C322.98 366.69 320.28 366.75 317.56 366.46C316.95 366.4 316.46 366.19 316.07 365.86C315.69 365.52 315.4 365.12 315.2 364.64C315.01 364.16 314.89 363.64 314.86 363.09C314.83 362.53 314.86 362.01 314.95 361.52C315.13 360.54 315.37 359.57 315.66 358.61C315.95 357.65 316.3 356.73 316.7 355.82C316.52 355.88 316.33 355.94 316.13 355.98C315.93 356.02 315.72 356.07 315.51 356.14C315.3 356.2 315.08 356.3 314.85 356.42C314.62 356.54 314.39 356.73 314.16 356.97C314.12 357.01 314.09 357.03 314.06 357.03C314 357.07 313.92 357.07 313.85 357.03C313.77 357 313.75 356.94 313.79 356.86C314.18 356.11 314.62 355.42 315.12 354.8C315.62 354.18 316.18 353.64 316.8 353.2C317.42 352.75 318.11 352.41 318.87 352.16C319.63 351.91 320.47 351.79 321.39 351.79H329.75L328.7 355.27H322.52C322.25 355.27 322.02 355.35 321.85 355.52C321.67 355.69 321.53 355.89 321.4 356.12C321.28 356.35 321.17 356.6 321.08 356.85C320.99 357.1 320.88 357.31 320.77 357.48C320.89 357.47 321.02 357.46 321.19 357.45C321.35 357.45 321.61 357.45 321.98 357.45C322.35 357.45 322.88 357.45 323.54 357.45C324.21 357.45 325.1 357.45 326.21 357.45L325.36 360.23L325.34 360.26Z" fill="#FF0000"/>
<path d="M335.02 366.36L339.28 351.84H347.21C347.83 351.84 348.43 351.93 349.01 352.1C349.59 352.28 350.1 352.59 350.54 353.04C350.8 353.31 351 353.63 351.14 353.99C351.28 354.35 351.35 354.73 351.35 355.12C351.35 355.38 351.31 355.74 351.23 356.19C351.15 356.64 351.05 357.15 350.91 357.71C350.78 358.27 350.62 358.85 350.45 359.46C350.28 360.07 350.11 360.65 349.93 361.19C349.75 361.73 349.57 362.22 349.4 362.66C349.23 363.09 349.08 363.41 348.93 363.62C348.7 363.97 348.44 364.31 348.15 364.64C347.86 364.97 347.55 365.26 347.22 365.51C346.88 365.76 346.52 365.96 346.14 366.11C345.76 366.26 345.36 366.33 344.94 366.33L335.01 366.35L335.02 366.36ZM342.99 363.39C343.34 363.39 343.63 363.37 343.87 363.34C344.11 363.31 344.31 363.25 344.47 363.17C344.63 363.09 344.77 362.99 344.88 362.86C344.99 362.73 345.1 362.57 345.22 362.37C345.29 362.25 345.38 362.03 345.51 361.7C345.64 361.37 345.78 360.99 345.94 360.55C346.1 360.11 346.25 359.66 346.41 359.17C346.57 358.68 346.71 358.22 346.84 357.78C346.97 357.34 347.08 356.95 347.16 356.6C347.24 356.25 347.29 356.01 347.29 355.85C347.29 355.69 347.26 355.53 347.2 355.36C347.14 355.19 347.06 355.04 346.96 354.9C346.86 354.76 346.73 354.65 346.59 354.57C346.45 354.49 346.29 354.44 346.1 354.44H342.78L340.21 363.36H342.99V363.39Z" fill="#FF0000"/>
<path d="M362.8 360.26H357.32C357.26 360.56 357.18 360.86 357.09 361.15C357 361.45 356.93 361.75 356.9 362.04C356.87 362.22 356.93 362.4 357.07 362.56C357.21 362.72 357.37 362.83 357.56 362.85C358.66 363.02 359.77 363.09 360.88 363.05C361.99 363.02 363.09 362.9 364.16 362.69L363.13 366.28C360.43 366.69 357.73 366.75 355.01 366.46C354.4 366.4 353.91 366.19 353.52 365.86C353.14 365.52 352.85 365.12 352.66 364.64C352.47 364.16 352.35 363.64 352.32 363.09C352.29 362.53 352.32 362.01 352.41 361.52C352.59 360.54 352.83 359.57 353.12 358.61C353.41 357.66 353.76 356.73 354.16 355.82C353.98 355.88 353.79 355.94 353.59 355.98C353.39 356.02 353.18 356.07 352.97 356.14C352.76 356.2 352.54 356.3 352.31 356.42C352.08 356.54 351.85 356.73 351.62 356.97C351.58 357.01 351.55 357.03 351.52 357.03C351.45 357.07 351.38 357.07 351.31 357.03C351.24 356.99 351.21 356.94 351.25 356.86C351.64 356.11 352.08 355.42 352.58 354.8C353.08 354.18 353.64 353.64 354.26 353.2C354.88 352.75 355.57 352.41 356.33 352.16C357.09 351.91 357.93 351.79 358.85 351.79H367.21L366.16 355.27H359.98C359.71 355.27 359.48 355.35 359.31 355.52C359.14 355.69 358.99 355.89 358.86 356.12C358.74 356.35 358.63 356.6 358.54 356.85C358.45 357.1 358.35 357.31 358.23 357.48C358.35 357.47 358.49 357.46 358.65 357.45C358.81 357.45 359.07 357.45 359.44 357.45C359.81 357.45 360.34 357.45 361 357.45C361.67 357.45 362.56 357.45 363.67 357.45L362.81 360.23L362.8 360.26Z" fill="#FF0000"/>
<path d="M386.36 355.28H382.74L379.4 366.34H375.01L378.39 355.28C377.38 355.25 376.56 355.28 375.93 355.35C375.3 355.42 374.79 355.53 374.39 355.69C374 355.85 373.68 356.03 373.45 356.25C373.22 356.47 373 356.71 372.79 356.97C372.72 357.05 372.64 357.07 372.55 357.05C372.45 357.02 372.42 356.97 372.44 356.88C372.87 356.06 373.29 355.34 373.7 354.7C374.11 354.07 374.6 353.53 375.15 353.1C375.7 352.67 376.36 352.34 377.11 352.12C377.87 351.9 378.81 351.8 379.94 351.81V351.85H387.4L386.35 355.29L386.36 355.28Z" fill="#FF0000"/>
<path d="M400.66 359.38C400.27 360.81 399.77 362.23 399.16 363.63C398.84 364.34 398.36 364.93 397.72 365.38C397.09 365.83 396.39 366.13 395.64 366.25C395.03 366.35 394.43 366.43 393.82 366.48C393.22 366.53 392.61 366.56 392 366.56C391.56 366.56 391.1 366.56 390.62 366.53C390.14 366.5 389.67 366.46 389.2 366.37C388.73 366.29 388.3 366.16 387.89 366C387.48 365.84 387.13 365.62 386.83 365.34C386.53 365.06 386.31 364.72 386.16 364.31C386.01 363.9 385.96 363.41 386.01 362.82C386.08 362.15 386.19 361.45 386.35 360.73C386.51 360.01 386.7 359.3 386.91 358.58C387.12 357.87 387.35 357.17 387.6 356.49C387.85 355.81 388.09 355.17 388.34 354.58C388.47 354.26 388.69 353.93 388.99 353.59C389.29 353.25 389.71 352.95 390.25 352.67C390.79 352.39 391.46 352.17 392.28 351.99C393.1 351.81 394.08 351.73 395.23 351.73C395.8 351.73 396.42 351.74 397.09 351.77C397.76 351.8 398.39 351.89 398.99 352.06C399.59 352.23 400.13 352.5 400.59 352.87C401.06 353.24 401.37 353.77 401.54 354.47V354.99C401.32 356.48 401.01 357.94 400.63 359.37L400.66 359.38ZM396.17 359.19C396.52 358.11 396.8 357 397.03 355.88C397.09 355.58 397.06 355.35 396.93 355.17C396.8 355 396.62 354.87 396.39 354.78C396.16 354.7 395.91 354.64 395.64 354.61C395.37 354.58 395.14 354.57 394.94 354.57C394.72 354.57 394.48 354.58 394.22 354.61C393.96 354.64 393.71 354.69 393.47 354.78C393.23 354.86 393.01 354.98 392.82 355.13C392.62 355.28 392.48 355.48 392.39 355.72C392 356.73 391.64 357.77 391.3 358.85C390.96 359.93 390.68 361.01 390.44 362.11C390.38 362.37 390.37 362.6 390.44 362.8C390.5 363 390.6 363.17 390.74 363.31C390.88 363.45 391.06 363.55 391.28 363.61C391.5 363.67 391.74 363.69 392 363.67C392.25 363.67 392.53 363.67 392.85 363.64C393.17 363.62 393.47 363.57 393.76 363.49C394.05 363.41 394.31 363.29 394.53 363.12C394.75 362.95 394.89 362.72 394.96 362.42C395.41 361.34 395.82 360.27 396.17 359.18V359.19Z" fill="#FF0000"/>
<path d="M400.44 366.36L404.7 351.84H412.63C413.25 351.84 413.85 351.93 414.43 352.1C415.01 352.28 415.51 352.59 415.96 353.04C416.22 353.31 416.42 353.63 416.56 353.99C416.7 354.35 416.77 354.73 416.77 355.12C416.77 355.38 416.73 355.74 416.65 356.19C416.57 356.64 416.47 357.15 416.33 357.71C416.19 358.27 416.04 358.85 415.87 359.46C415.7 360.07 415.53 360.65 415.35 361.19C415.17 361.73 414.99 362.22 414.82 362.66C414.65 363.1 414.5 363.41 414.35 363.62C414.12 363.97 413.86 364.31 413.57 364.64C413.28 364.97 412.97 365.26 412.64 365.51C412.3 365.76 411.94 365.96 411.56 366.11C411.18 366.26 410.78 366.33 410.37 366.33L400.44 366.35V366.36ZM408.41 363.39C408.76 363.39 409.05 363.37 409.29 363.34C409.53 363.31 409.73 363.25 409.89 363.17C410.05 363.09 410.19 362.99 410.3 362.86C410.41 362.73 410.52 362.57 410.64 362.37C410.7 362.25 410.8 362.03 410.93 361.7C411.06 361.37 411.2 360.99 411.36 360.55C411.52 360.12 411.67 359.66 411.83 359.17C411.99 358.68 412.13 358.22 412.26 357.78C412.39 357.34 412.5 356.95 412.58 356.6C412.66 356.25 412.71 356.01 412.71 355.85C412.71 355.69 412.68 355.53 412.62 355.36C412.56 355.19 412.48 355.04 412.38 354.9C412.28 354.76 412.15 354.65 412.01 354.57C411.87 354.49 411.71 354.44 411.52 354.44H408.2L405.63 363.36H408.41V363.39Z" fill="#FF0000"/>
<path d="M431.16 359.38C430.77 360.81 430.27 362.23 429.66 363.63C429.34 364.34 428.86 364.93 428.22 365.38C427.58 365.83 426.89 366.13 426.14 366.25C425.53 366.35 424.93 366.43 424.32 366.48C423.72 366.53 423.11 366.56 422.5 366.56C422.06 366.56 421.6 366.56 421.12 366.53C420.64 366.51 420.17 366.46 419.7 366.37C419.23 366.29 418.8 366.16 418.39 366C417.98 365.84 417.63 365.62 417.33 365.34C417.03 365.06 416.81 364.72 416.66 364.31C416.51 363.9 416.46 363.41 416.51 362.82C416.58 362.15 416.69 361.45 416.85 360.73C417.01 360.01 417.2 359.3 417.41 358.58C417.62 357.87 417.85 357.17 418.1 356.49C418.35 355.81 418.59 355.17 418.84 354.58C418.97 354.26 419.19 353.93 419.49 353.59C419.79 353.25 420.22 352.95 420.75 352.67C421.29 352.39 421.96 352.17 422.78 351.99C423.6 351.81 424.58 351.73 425.73 351.73C426.3 351.73 426.92 351.74 427.59 351.77C428.26 351.8 428.89 351.89 429.49 352.06C430.09 352.23 430.63 352.5 431.09 352.87C431.56 353.24 431.87 353.77 432.04 354.47V354.99C431.82 356.48 431.52 357.94 431.13 359.37L431.16 359.38ZM426.67 359.19C427.02 358.11 427.3 357 427.52 355.88C427.58 355.58 427.55 355.35 427.42 355.17C427.29 355 427.11 354.87 426.88 354.78C426.65 354.7 426.4 354.64 426.13 354.61C425.86 354.58 425.63 354.57 425.43 354.57C425.21 354.57 424.97 354.58 424.71 354.61C424.45 354.64 424.2 354.69 423.96 354.78C423.72 354.86 423.5 354.98 423.31 355.13C423.12 355.28 422.97 355.48 422.88 355.72C422.49 356.73 422.13 357.77 421.79 358.85C421.45 359.93 421.17 361.01 420.94 362.11C420.87 362.37 420.87 362.6 420.94 362.8C421 363 421.1 363.17 421.24 363.31C421.38 363.45 421.56 363.55 421.78 363.61C422 363.67 422.24 363.69 422.5 363.67C422.75 363.67 423.03 363.67 423.35 363.64C423.67 363.62 423.97 363.57 424.26 363.49C424.55 363.41 424.81 363.29 425.03 363.12C425.25 362.95 425.39 362.72 425.46 362.42C425.91 361.34 426.31 360.27 426.67 359.18V359.19Z" fill="#FF0000"/>
<path d="M432.99 362.94H438.7C439.09 362.94 439.46 362.92 439.81 362.87C440.16 362.83 440.46 362.74 440.72 362.61C440.98 362.48 441.15 362.28 441.24 362.01C441.34 361.67 441.35 361.44 441.27 361.31C441.19 361.18 441.01 361.04 440.74 360.9C440.51 360.91 440.22 360.92 439.88 360.92C439.54 360.92 439.18 360.92 438.8 360.89C438.42 360.87 438.03 360.84 437.63 360.79C437.23 360.75 436.87 360.67 436.54 360.58C436.21 360.48 435.92 360.36 435.67 360.22C435.42 360.08 435.26 359.9 435.16 359.68C435.06 359.45 434.95 359.19 434.85 358.9C434.75 358.62 434.67 358.31 434.61 357.99C434.55 357.67 434.53 357.32 434.55 356.96C434.57 356.6 434.64 356.23 434.77 355.85C434.41 355.99 434.08 356.16 433.79 356.35C433.5 356.54 433.25 356.75 433.06 357C433.02 357.04 432.99 357.06 432.96 357.06C432.9 357.1 432.82 357.1 432.75 357.06C432.67 357.03 432.65 356.97 432.67 356.89C433.1 356.07 433.52 355.35 433.95 354.71C434.38 354.07 434.87 353.54 435.43 353.11C435.99 352.68 436.65 352.35 437.41 352.12C438.17 351.89 439.12 351.79 440.25 351.8H447.36L446.53 355.28L440.29 355.3C439.84 355.35 439.44 355.44 439.11 355.57C438.78 355.7 438.55 355.91 438.42 356.21C438.28 356.53 438.25 356.8 438.33 357.02C438.41 357.24 438.58 357.4 438.83 357.52C438.93 357.57 439.04 357.61 439.14 357.63C439.24 357.65 439.37 357.66 439.51 357.67C439.65 357.67 439.82 357.67 440.01 357.67H440.71C441.86 357.67 442.75 357.76 443.37 357.94C443.99 358.12 444.46 358.43 444.77 358.87C445.02 359.21 445.15 359.66 445.18 360.24C445.21 360.82 445.11 361.42 444.89 362.04C444.63 362.83 444.28 363.56 443.85 364.23C443.42 364.9 442.83 365.41 442.09 365.76C441.64 365.98 441.04 366.13 440.3 366.22C439.56 366.3 438.61 366.35 437.44 366.35H432.12L432.96 362.95L432.99 362.94Z" fill="#FF0000"/>
<path d="M449.62 353.04C449.17 354.67 448.34 356.75 447.81 357.64L446.72 357.78C447.13 356.63 447.65 354.61 447.87 353.22L449.62 353.05V353.04ZM452.5 353.04C452.05 354.67 451.22 356.75 450.69 357.64L449.6 357.78C450.03 356.63 450.53 354.61 450.75 353.22L452.5 353.05V353.04Z" fill="#FF0000"/>
<path d="M124.5 243.5C184.47 189.65 269.17 180.38 337.64 224.05C346.82 229.83 355.52 236.25 363.5 243.5C353.72 238.97 344.08 234.51 334.3 230.58C258.41 199.09 196.76 208.11 124.5 243.5Z" fill="#005DA1"/>
</svg>
