<svg width="508" height="391" viewBox="0 0 508 391" fill="none" xmlns="http://www.w3.org/2000/svg">
<path d="M505.13 335.68C503.36 333.3 500.79 331.7 497.94 331.1C498.18 330.58 498.4 330.04 498.57 329.48L500.73 322.31C501.83 318.68 501.14 314.74 498.87 311.69C496.6 308.64 493.03 306.85 489.24 306.85H471.54C467.95 306.85 464.61 307.71 461.61 309.42C460.82 309.87 460.07 310.38 459.34 310.92C457.07 308.35 453.81 306.85 450.36 306.85H448.63L450.03 301.98C451.19 297.95 450.15 293.6 447.3 290.52C445.46 288.53 443.02 287.25 440.42 286.83L441.8 282.25C442.9 278.61 442.21 274.67 439.95 271.63C437.69 268.58 434.11 266.78 430.32 266.78H422.25C420.66 266.78 419.12 267.1 417.71 267.68C416.31 267.11 414.78 266.78 413.17 266.78H405.36C404.49 266.78 403.63 266.86 402.49 267.05C400.66 267.35 398.88 268 397.03 269.04C395.77 269.75 394.55 270.64 393.33 271.74C392.82 271.29 392.29 270.87 391.74 270.48C389.86 269.16 387.74 268.19 385.45 267.58C383.54 267.08 381.59 266.82 379.65 266.82H379.41C381.83 265.99 383.99 264.39 385.49 262.13C388.77 257.19 387.95 250.6 383.56 246.61C378.62 242.12 373.22 237.77 367.46 233.6C373.23 229.43 378.62 225.08 383.56 220.6C387.95 216.62 388.77 210.02 385.49 205.08C383.2 201.63 379.4 199.71 375.48 199.71C373.78 199.71 372.06 200.07 370.44 200.82C361.12 205.14 351.48 209.61 341.81 213.49C341.77 213.51 341.73 213.52 341.68 213.54C340.19 214.16 338.7 214.75 337.22 215.34C334.9 214.21 332.57 213.12 330.22 212.08C350.94 194.95 365.71 170.87 370.92 143.44C370.92 143.4 370.94 143.36 370.95 143.31C370.98 143.17 371 143.03 371.02 142.89C371.15 142.17 371.28 141.45 371.4 140.73C371.45 140.43 371.5 140.14 371.55 139.84C371.68 139.02 371.8 138.2 371.91 137.38C371.94 137.16 371.97 136.94 372 136.71C372.12 135.78 372.23 134.85 372.33 133.91C372.34 133.79 372.36 133.67 372.37 133.55C372.48 132.51 372.57 131.46 372.65 130.41C372.65 130.39 372.65 130.37 372.65 130.35C372.65 130.35 372.65 130.33 372.65 130.32C372.87 127.39 372.98 124.44 372.98 121.46C372.98 96.05 364.87 72.51 351.11 53.27C350.93 52.98 350.75 52.69 350.55 52.42C347.79 48.62 344.76 44.95 341.56 41.5C341.31 41.23 341.05 40.98 340.78 40.74C323.55 22.55 300.58 9.85 274.8 5.56C270.05 2.46 263.77 0.580002 257.66 0.580002C252.26 0.580002 247.11 1.99999 242.56 4.67999C237.41 5.24999 232.35 6.15 227.42 7.36C225.97 7.09 224.43 6.96001 222.76 6.96001C220.11 6.96001 217.44 7.27 215.08 7.55C198.67 9.48 188.82 20.05 184.49 27.91C164.45 43.16 149.43 64.68 142.4 89.53C142.38 89.59 142.36 89.64 142.34 89.7C142.13 90.45 141.93 91.21 141.74 91.98C141.72 92.05 141.7 92.12 141.68 92.19C141.51 92.87 141.34 93.55 141.18 94.23C141.09 94.61 141 94.99 140.91 95.38C140.8 95.88 140.69 96.39 140.58 96.9C140.46 97.47 140.34 98.05 140.22 98.63C140.14 99.02 140.07 99.4 140 99.79C139.87 100.48 139.75 101.18 139.63 101.88C139.6 102.07 139.56 102.26 139.53 102.45C139.53 102.48 139.53 102.51 139.53 102.55C138.53 108.71 138 115.04 138 121.48C138 140.81 142.7 159.07 151 175.17C151.08 175.36 151.16 175.54 151.25 175.72C153.42 179.88 155.86 183.95 158.51 187.82C158.67 188.06 158.86 188.27 159.04 188.5C165.28 197.45 172.73 205.5 181.16 212.41C179.01 213.36 176.88 214.35 174.77 215.37C164.18 211.33 153.21 206.53 141.78 200.92C140.09 200.09 138.29 199.7 136.51 199.7C132.63 199.7 128.85 201.59 126.56 204.99C123.21 209.95 124.03 216.63 128.49 220.63C133.64 225.25 138.99 229.57 144.5 233.59C138.99 237.61 133.64 241.93 128.49 246.55C124.03 250.55 123.21 257.23 126.56 262.19C128.09 264.45 130.27 266.03 132.7 266.84C131.12 266.93 129.6 267.3 128.23 267.96C127.82 267.8 127.41 267.65 126.98 267.52C125.41 267.04 123.8 266.8 122.19 266.8H114.09C113.37 266.8 112.67 266.87 111.98 266.99C111.12 266.8 110.25 266.69 109.35 266.69H93.8001C91.4301 266.69 89.16 266.98 87.01 267.52C85.64 266.99 84.1701 266.69 82.6601 266.69H66.6701C63.2201 266.69 60.0101 267.52 57.1301 269.16C54.8101 270.47 52.7501 272.21 50.9801 274.33C49.5101 276.1 48.2401 278.11 47.2001 280.3C46.4001 282.01 45.6901 283.77 45.1001 285.54C44.5201 287.26 44.0401 289 43.6601 290.7C43.3401 292.14 43.0701 293.42 42.8501 294.6C42.5001 296.5 42.3901 298.5 42.5401 300.54C42.6901 302.74 43.1701 304.86 43.9501 306.85C43.8601 306.85 43.77 306.83 43.68 306.83H28.6601C25.3101 306.83 22.4001 307.21 19.7701 307.99C16.7601 308.88 14.0601 310.25 11.7201 312.07C9.58006 313.74 7.69005 315.78 6.10005 318.13C4.98005 319.8 3.86006 321.69 2.78006 323.75C2.49006 324.31 2.24006 324.9 2.03006 325.5C0.770055 329.26 1.37006 333.15 3.39006 336.18C2.94006 337.03 2.59006 337.94 2.36006 338.91L0.640056 345.92C-0.239944 349.5 0.580055 353.29 2.85005 356.19C5.12005 359.09 8.61005 360.79 12.29 360.79H17.3601C16.4601 362.7 15.6801 364.91 15.2101 366.59C14.1601 370.42 15.0701 374.53 17.6501 377.55C18.9901 379.12 20.6901 380.27 22.5601 380.98C22.7201 381.38 22.8901 381.77 23.0801 382.16C25.2801 386.6 29.4501 389.52 34.5401 390.2C36.1901 390.44 37.8501 390.55 39.5001 390.55C39.8401 390.55 40.1701 390.55 40.5101 390.53C41.6801 390.5 42.8801 390.39 44.1001 390.24C44.5101 390.28 44.9101 390.32 45.3201 390.32H49.8901C50.9501 390.32 51.9901 390.18 52.9801 389.91C53.9701 390.17 55.0101 390.32 56.0801 390.32H60.1001C62.2801 390.32 64.33 389.73 66.09 388.71C67.76 389.61 69.6 390.18 71.54 390.39C73.1 390.56 74.6901 390.65 76.2501 390.65C78.1401 390.65 80.0401 390.52 81.9201 390.27C82.3801 390.32 82.8401 390.35 83.3001 390.35L93.23 390.33C94.77 390.33 96.2801 390.09 97.7201 389.65C98.3401 389.85 98.9801 390.01 99.6401 390.14C100.66 390.34 101.72 390.47 102.79 390.51C103.43 390.54 104.05 390.55 104.65 390.55C105.45 390.55 106.34 390.52 107.27 390.47C108.8 390.39 110.34 390.15 111.84 389.76C111.91 389.74 111.97 389.72 112.03 389.7C113.05 390.04 114.11 390.28 115.2 390.39C116.76 390.56 118.34 390.65 119.9 390.65C121.73 390.65 123.58 390.52 125.41 390.29C125.62 390.3 125.82 390.33 126.03 390.33H130.6C131.66 390.33 132.7 390.19 133.69 389.92C134.68 390.18 135.72 390.33 136.79 390.33H140.81C141.44 390.33 142.05 390.27 142.65 390.18C143.1 390.27 143.56 390.35 144.03 390.4C145.59 390.57 147.17 390.66 148.73 390.66C150.62 390.66 152.52 390.53 154.4 390.27C154.75 390.3 155.1 390.33 155.46 390.33H159.85C160.9 390.33 161.93 390.19 162.91 389.93C163.26 390.01 163.6 390.11 163.95 390.17C164.95 390.35 165.98 390.46 167.01 390.51C167.66 390.54 168.28 390.55 168.88 390.55C169.82 390.55 170.77 390.51 171.73 390.43C172.61 390.35 173.51 390.24 174.42 390.09C175.19 390.25 175.98 390.34 176.78 390.34H181.07C181.94 390.34 182.78 390.25 183.61 390.07C184.43 390.25 185.28 390.34 186.15 390.34H191.32C193.12 390.34 194.83 389.93 196.39 389.21C197.95 389.93 199.65 390.34 201.43 390.34H206C207.06 390.34 208.1 390.2 209.09 389.93C210.08 390.19 211.12 390.34 212.19 390.34H216.21C217 390.34 217.77 390.26 218.52 390.11C218.69 390.14 218.85 390.18 219.02 390.21C220.67 390.45 222.33 390.56 223.98 390.56C224.32 390.56 224.65 390.56 224.99 390.54C226.86 390.48 228.82 390.28 230.8 389.95C231.39 389.85 231.96 389.7 232.52 389.52C233.87 390.04 235.32 390.34 236.82 390.34H241.39C242.45 390.34 243.49 390.2 244.48 389.93C245.47 390.19 246.51 390.34 247.58 390.34H251.6C252.39 390.34 253.16 390.26 253.91 390.11C254.08 390.14 254.24 390.18 254.41 390.21C256.06 390.45 257.72 390.56 259.37 390.56C259.71 390.56 260.04 390.56 260.38 390.54C261.96 390.49 263.61 390.32 265.27 390.07C265.88 390.21 266.49 390.33 267.12 390.39C268.68 390.56 270.26 390.65 271.82 390.65C273.65 390.65 275.5 390.52 277.33 390.29C277.54 390.3 277.74 390.33 277.95 390.33H282.52C283.58 390.33 284.62 390.19 285.61 389.92C286.6 390.18 287.64 390.33 288.71 390.33H292.73C292.96 390.33 293.19 390.31 293.42 390.3C293.62 390.3 293.81 390.33 294.01 390.33H298.3C299.17 390.33 300.01 390.24 300.84 390.06C301.66 390.24 302.51 390.33 303.38 390.33H308.55C309.52 390.33 310.46 390.21 311.37 389.99C312.09 390.18 312.82 390.31 313.57 390.39C315.13 390.56 316.71 390.65 318.27 390.65C320.44 390.65 322.64 390.48 324.81 390.15C325.15 390.1 325.48 390.03 325.8 389.95C326.56 390.16 327.35 390.31 328.15 390.39C329.71 390.56 331.3 390.65 332.86 390.65C335.04 390.65 337.24 390.48 339.4 390.15C340.38 390 341.31 389.73 342.2 389.36C343.68 389.99 345.28 390.35 346.93 390.35L356.86 390.33C358.57 390.33 360.25 390.03 361.85 389.48C363.05 389.94 364.31 390.26 365.62 390.4C367.18 390.57 368.77 390.66 370.33 390.66C372.51 390.66 374.71 390.49 376.87 390.16C378.34 389.93 379.72 389.44 380.97 388.74C382.76 389.77 384.8 390.34 386.92 390.34H391.31C392.97 390.34 394.57 390 396.03 389.37C396.98 389.71 397.97 389.99 399 390.18C400 390.36 401.03 390.47 402.06 390.51C402.71 390.54 403.33 390.55 403.93 390.55C404.87 390.55 405.82 390.51 406.78 390.43C407.71 390.35 408.65 390.23 409.59 390.07C409.62 390.07 409.64 390.06 409.67 390.05C410.54 390.25 411.44 390.36 412.35 390.36L422.28 390.34C423.93 390.34 425.54 390.06 427.07 389.56C427.86 389.81 428.66 390.03 429.5 390.18C430.5 390.36 431.53 390.47 432.55 390.51C433.2 390.54 433.82 390.55 434.42 390.55C435.36 390.55 436.31 390.51 437.28 390.43C438.2 390.35 439.14 390.23 440.09 390.07C440.35 390.02 440.61 389.95 440.87 389.89C441.9 390.17 442.97 390.34 444.06 390.34H449.38C451.02 390.34 452.4 390.27 453.59 390.14C455.69 389.9 457.53 389.39 459.21 388.58C461.92 387.29 464.21 385.28 465.83 382.79C466.24 382.15 466.62 381.49 466.96 380.81C469.44 379.84 471.56 378.07 472.93 375.72C474.19 373.57 475.36 370.4 475.96 368.21C476.59 365.9 476.5 363.5 475.77 361.29C477.88 361.14 479.99 360.92 482.08 360.6C482.13 360.6 482.18 360.58 482.23 360.57C483 360.72 483.78 360.82 484.58 360.82H493.59C498.88 360.82 503.55 357.35 505.08 352.29L506.88 346.32C507.98 342.68 507.29 338.74 505.03 335.7L505.13 335.68ZM371.55 266.82H366.02C365.03 266.82 364.06 266.94 363.13 267.17C362.09 266.88 361.01 266.71 359.9 266.71H343.91C342.06 266.71 340.23 267 338.44 267.53C337.07 267 335.61 266.71 334.1 266.71H318.55C315.99 266.71 313.55 267.05 311.24 267.68C309.82 267.1 308.3 266.78 306.72 266.78H294.15C308.97 263.62 323.43 258.61 337.22 251.86C338.7 252.45 340.18 253.04 341.67 253.66C341.71 253.68 341.75 253.69 341.79 253.71C351.46 257.6 361.1 262.06 370.42 266.38C370.78 266.55 371.15 266.69 371.52 266.82H371.55ZM174.77 251.83C193.26 260.8 212.92 266.72 233.05 269.3C231.53 270.46 230.3 271.98 229.47 273.77C228.72 272.86 227.89 272.02 226.96 271.28C224.84 269.6 222.42 268.37 219.75 267.63C217.73 267.07 215.61 266.74 213.45 266.65C212.05 266.6 210.74 266.57 209.53 266.57C206.51 266.57 203.89 266.82 201.52 267.32C199.25 267.81 197.29 268.47 195.5 269.3C194.13 268.57 192.68 267.98 191.13 267.57C189.22 267.07 187.27 266.81 185.33 266.81H171.69C171.05 266.81 170.41 266.86 169.79 266.96C169.13 266.85 168.46 266.77 167.79 266.77H155.22C154.83 266.73 154.43 266.7 154.03 266.7H153.55C150.55 266.7 147.94 267.03 145.56 267.69C144.16 267.13 142.65 266.81 141.09 266.81H140.46C140.9 266.65 141.34 266.47 141.77 266.26C153.21 260.66 164.17 255.86 174.76 251.81L174.77 251.83Z" fill="white"/>
<path d="M255.5 227C313.766 227 361 179.766 361 121.5C361 63.234 313.766 16 255.5 16C197.234 16 150 63.234 150 121.5C150 179.766 197.234 227 255.5 227Z" fill="#0069C2"/>
<path d="M136.5 211.72C208.8 247.14 270.44 256.12 346.3 224.64C356.08 220.71 365.73 216.25 375.5 211.72C367.52 218.96 358.82 225.39 349.64 231.17C281.16 274.86 196.44 265.55 136.5 211.72Z" fill="#FF0000"/>
<path d="M328.38 140.95C326.16 134.54 320.78 129.62 314.09 128.05C312.98 110.64 309.58 93.85 304.16 77.97C310.9 75.17 315.77 68.8 316.41 61.21C324.41 60.11 332.57 59.53 340.86 59.5C338.36 56.07 335.67 52.79 332.78 49.69C326.69 49.96 320.67 50.52 314.74 51.34C311.62 44.36 304.63 39.49 296.49 39.49C293.21 39.49 290.12 40.3 287.39 41.7C282.22 33 276.38 24.74 269.96 16.98C266.49 13.49 255.49 9.49 246.68 16.36C249.59 16.12 252.53 15.99 255.49 15.99C255.6 15.99 255.72 15.99 255.83 15.99C264.94 25.89 273 36.78 279.79 48.49C277.71 51.65 276.49 55.42 276.49 59.49C276.49 59.89 276.53 60.29 276.55 60.68C247.28 71.11 221.22 88.38 200.32 110.56C197.67 109.25 194.69 108.49 191.53 108.49C191.5 107.16 191.49 105.82 191.49 104.49C191.49 79.65 199.49 35.49 208.57 26.98C214.48 24.04 220.7 21.64 227.18 19.84C224.92 18.52 220.76 18.99 216.49 19.49C199.49 21.49 194.05 35.72 194.05 35.72C190.49 42.49 181.49 80.75 181.49 104.49C181.49 106.7 181.54 108.91 181.61 111.11C180.45 111.77 179.37 112.54 178.37 113.42C169.63 107.31 161.44 100.46 153.9 92.96C152.85 96.69 152.01 100.51 151.38 104.39C158.07 110.62 165.2 116.4 172.72 121.65C171.94 123.78 171.5 126.08 171.5 128.48C171.5 133.52 173.38 138.11 176.46 141.63C170.85 150.68 165.98 160.22 161.9 170.18C163.86 173.94 166.04 177.57 168.42 181.04C172.72 169.17 178.2 157.87 184.72 147.28C185.28 147.48 185.85 147.66 186.43 147.81C192.49 174.21 204.04 199.22 220.39 220.99C225.66 222.85 231.12 224.31 236.74 225.32C235.33 223.71 233.95 222.07 232.59 220.4C215.31 199.12 203.09 174.21 196.68 147.78C200.9 146.65 204.57 144.18 207.19 140.84C230.62 150.9 256.41 156.48 283.48 156.48C286.18 156.48 288.87 156.41 291.55 156.3C293.82 160.9 297.8 164.5 302.66 166.26C299.84 186.31 293.77 205.34 285 222.78C289.57 221.45 294.01 219.82 298.3 217.91C305.26 202 310.16 184.99 312.62 167.2C321 165.87 327.64 159.35 329.14 151.03C339.49 148.52 349.52 145.18 359.15 141.09C359.87 137.28 360.38 133.41 360.68 129.47C350.38 134.25 339.58 138.11 328.36 140.93L328.38 140.95ZM289.55 146.39C287.54 146.46 285.52 146.5 283.49 146.5C257.84 146.5 233.41 141.22 211.21 131.7C211.38 130.66 211.49 129.59 211.49 128.5C211.49 124.26 210.16 120.33 207.91 117.1C227.61 96.29 252.11 80.07 279.62 70.22C282.75 75.14 287.96 78.59 294.02 79.34C299.49 94.81 302.94 111.23 304.07 128.27C296 130.54 290.02 137.73 289.54 146.4L289.55 146.39Z" fill="#93C8FD"/>
<path d="M63.5701 298.68C63.8201 298.95 64.1301 299.11 64.4901 299.19C66.5201 299.48 68.5301 299.62 70.5501 299.61C72.5601 299.6 74.5601 299.4 76.5401 299.01L74.6201 305.7C69.6001 306.47 64.5801 306.58 59.5401 306.03C58.4101 305.91 57.4801 305.54 56.7701 304.91C56.0601 304.28 55.5201 303.52 55.1601 302.63C54.8001 301.74 54.5801 300.77 54.5101 299.74C54.4401 298.7 54.4901 297.73 54.6501 296.81C54.8401 295.8 55.0801 294.64 55.3701 293.34C55.6601 292.04 56.0301 290.72 56.4701 289.38C56.9201 288.04 57.4401 286.73 58.0401 285.46C58.6401 284.18 59.3601 283.04 60.1901 282.04C61.0201 281.04 61.9701 280.24 63.0301 279.64C64.0901 279.04 65.3001 278.74 66.6501 278.74H82.6401L80.6901 285.21H68.7201C68.3601 285.21 68.0201 285.31 67.7101 285.52C67.4001 285.73 67.1501 285.98 66.9901 286.3C65.9801 288.06 65.1601 289.91 64.5301 291.85C63.9001 293.79 63.4801 295.77 63.2601 297.8C63.2101 298.14 63.3101 298.44 63.5701 298.7V298.68Z" fill="#005DA1"/>
<path d="M101.17 294.45H90.9702C90.8502 295 90.7002 295.56 90.5402 296.11C90.3702 296.67 90.2502 297.22 90.1802 297.77C90.1302 298.11 90.2402 298.43 90.5102 298.75C90.7702 299.06 91.0802 299.24 91.4102 299.29C93.4602 299.6 95.5202 299.73 97.5902 299.67C99.6602 299.61 101.7 299.39 103.7 299L101.78 305.69C96.7602 306.46 91.7302 306.57 86.6602 306.02C85.5302 305.9 84.6002 305.53 83.8902 304.9C83.1802 304.27 82.6402 303.51 82.2802 302.62C81.9202 301.73 81.7102 300.76 81.6502 299.73C81.5902 298.69 81.6502 297.72 81.8102 296.8C82.1502 294.97 82.5902 293.17 83.1302 291.39C83.6702 289.62 84.3202 287.89 85.0702 286.2C84.7302 286.32 84.3802 286.42 84.0002 286.49C83.6202 286.56 83.2402 286.66 82.8402 286.78C82.4402 286.9 82.0302 287.08 81.6102 287.3C81.1902 287.53 80.7602 287.87 80.3302 288.33C80.2602 288.4 80.2002 288.44 80.1502 288.44C80.0302 288.51 79.9002 288.52 79.7502 288.46C79.6002 288.4 79.5702 288.3 79.6402 288.15C80.3602 286.75 81.1902 285.47 82.1202 284.32C83.0502 283.17 84.0902 282.17 85.2502 281.34C86.4102 280.51 87.6902 279.86 89.1002 279.4C90.5102 278.94 92.0702 278.71 93.7802 278.71H109.33L107.38 285.18H95.8802C95.3702 285.18 94.9602 285.34 94.6302 285.65C94.3002 285.96 94.0302 286.34 93.8002 286.77C93.5702 287.2 93.3702 287.66 93.2002 288.13C93.0302 288.6 92.8402 288.99 92.6202 289.31C92.8402 289.29 93.1002 289.27 93.4002 289.26C93.7002 289.25 94.1902 289.24 94.8602 289.24C95.5302 289.24 96.5302 289.24 97.7702 289.26C99.0102 289.27 100.67 289.28 102.74 289.28L101.15 294.45H101.17Z" fill="#005DA1"/>
<path d="M128.58 294.45L133.36 278.83H141.1L133.03 305.77H123.41L119.61 287.04L113.97 305.77H105.98L114.08 278.83H122.18C122.61 278.83 123.05 278.9 123.48 279.03C123.91 279.16 124.31 279.36 124.67 279.61C125.03 279.86 125.34 280.16 125.59 280.5C125.84 280.84 126.02 281.22 126.11 281.66L128.57 294.46L128.58 294.45Z" fill="#005DA1"/>
<path d="M165.84 285.19H159.11L152.89 305.77H144.72L151.01 285.19C149.13 285.14 147.6 285.19 146.43 285.32C145.26 285.45 144.31 285.66 143.57 285.95C142.83 286.24 142.25 286.59 141.82 287C141.39 287.41 140.98 287.86 140.59 288.34C140.47 288.48 140.32 288.53 140.14 288.48C139.96 288.43 139.89 288.32 139.94 288.15C140.74 286.63 141.52 285.28 142.29 284.1C143.06 282.92 143.96 281.92 144.98 281.12C146.01 280.31 147.22 279.7 148.63 279.29C150.04 278.88 151.8 278.69 153.89 278.71V278.78H167.78L165.83 285.18L165.84 285.19Z" fill="#005DA1"/>
<path d="M178.67 298.1H173.68L171.37 305.77H163.56L171.7 278.83H185.34C186.26 278.83 187.17 278.95 188.09 279.19C189.01 279.43 189.83 279.8 190.55 280.31C191.27 280.82 191.86 281.46 192.32 282.23C192.78 283 193.01 283.91 193.01 284.94C193.01 286.36 192.81 287.76 192.41 289.14C192.01 290.51 191.42 291.8 190.62 293.01C190.07 293.88 189.41 294.7 188.65 295.49C187.89 296.27 187.05 296.91 186.14 297.39L188.89 305.78H181.3L178.7 298.11L178.67 298.1ZM179.32 292.57C179.99 292.57 180.55 292.52 181 292.43C181.45 292.33 181.82 292.2 182.12 292.03C182.42 291.86 182.67 291.66 182.88 291.43C183.08 291.2 183.3 290.97 183.51 290.72C184.06 290.12 184.49 289.44 184.79 288.69C185.09 287.94 185.24 287.15 185.24 286.3C185.24 286.01 185.19 285.71 185.08 285.4C184.97 285.09 184.82 284.8 184.63 284.55C184.44 284.3 184.2 284.09 183.92 283.94C183.64 283.78 183.33 283.71 183 283.71H178.01L175.33 292.57H179.31H179.32Z" fill="#005DA1"/>
<path d="M219.58 292.8C218.86 295.46 217.93 298.1 216.79 300.7C216.19 302.03 215.29 303.11 214.11 303.95C212.93 304.79 211.64 305.34 210.24 305.58C209.11 305.77 207.98 305.92 206.86 306.01C205.74 306.1 204.61 306.16 203.48 306.16C202.66 306.16 201.8 306.14 200.91 306.11C200.02 306.07 199.14 305.98 198.27 305.82C197.4 305.66 196.59 305.43 195.83 305.13C195.07 304.83 194.41 304.42 193.86 303.9C193.3 303.38 192.89 302.74 192.61 301.98C192.33 301.22 192.24 300.3 192.34 299.21C192.46 297.96 192.67 296.66 192.97 295.32C193.27 293.98 193.62 292.65 194.02 291.32C194.42 289.99 194.85 288.7 195.3 287.43C195.76 286.16 196.22 284.98 196.67 283.87C196.91 283.27 197.31 282.65 197.88 282.03C198.45 281.4 199.23 280.83 200.23 280.31C201.23 279.79 202.49 279.37 204.01 279.04C205.53 278.71 207.36 278.55 209.51 278.55C210.57 278.55 211.72 278.57 212.96 278.62C214.2 278.67 215.38 278.85 216.5 279.16C217.62 279.47 218.62 279.97 219.48 280.66C220.35 281.35 220.94 282.34 221.25 283.64V284.62C220.84 287.39 220.27 290.11 219.55 292.78L219.58 292.8ZM211.22 292.44C211.87 290.43 212.4 288.37 212.81 286.27C212.93 285.72 212.87 285.28 212.63 284.95C212.39 284.62 212.06 284.38 211.63 284.23C211.2 284.08 210.74 283.97 210.24 283.92C209.73 283.87 209.3 283.85 208.94 283.85C208.53 283.85 208.08 283.87 207.6 283.92C207.12 283.97 206.65 284.07 206.21 284.23C205.77 284.39 205.36 284.6 205 284.88C204.64 285.16 204.37 285.53 204.21 285.98C203.49 287.86 202.81 289.8 202.18 291.8C201.55 293.8 201.02 295.83 200.59 297.88C200.47 298.36 200.46 298.79 200.57 299.16C200.68 299.53 200.86 299.85 201.13 300.1C201.39 300.35 201.73 300.54 202.14 300.66C202.55 300.78 203 300.82 203.48 300.77C203.94 300.77 204.46 300.75 205.05 300.72C205.64 300.68 206.21 300.59 206.75 300.45C207.29 300.3 207.77 300.08 208.18 299.76C208.59 299.45 208.85 299.01 208.97 298.46C209.81 296.46 210.56 294.45 211.21 292.44H211.22Z" fill="#005DA1"/>
<path d="M240.34 278.82H248.4L240.26 305.76H232.09L240.34 278.82Z" fill="#005DA1"/>
<path d="M267.54 294.45L272.31 278.83H280.05L271.99 305.77H262.37L258.57 287.04L252.93 305.77H244.94L253.04 278.83H261.14C261.57 278.83 262.01 278.9 262.44 279.03C262.87 279.16 263.27 279.36 263.63 279.61C263.99 279.86 264.3 280.16 264.55 280.5C264.8 280.84 264.98 281.22 265.07 281.66L267.53 294.46L267.54 294.45Z" fill="#005DA1"/>
<path d="M304.79 285.19H298.06L291.84 305.77H283.67L289.96 285.19C288.08 285.14 286.55 285.19 285.38 285.32C284.21 285.45 283.26 285.66 282.52 285.95C281.78 286.24 281.2 286.59 280.77 287C280.34 287.41 279.93 287.86 279.54 288.34C279.42 288.48 279.27 288.53 279.09 288.48C278.91 288.43 278.84 288.32 278.89 288.15C279.69 286.63 280.47 285.28 281.24 284.1C282.01 282.92 282.91 281.92 283.94 281.12C284.96 280.31 286.18 279.7 287.59 279.29C289 278.88 290.75 278.69 292.85 278.71V278.78H306.74L304.79 285.18V285.19Z" fill="#005DA1"/>
<path d="M325.95 294.45H315.75C315.63 295 315.48 295.56 315.32 296.11C315.15 296.67 315.03 297.22 314.96 297.77C314.91 298.11 315.02 298.43 315.29 298.75C315.56 299.06 315.86 299.24 316.19 299.29C318.24 299.6 320.3 299.73 322.38 299.67C324.45 299.61 326.49 299.39 328.49 299L326.57 305.69C321.55 306.46 316.52 306.57 311.45 306.02C310.32 305.9 309.4 305.53 308.68 304.9C307.97 304.27 307.43 303.51 307.07 302.62C306.71 301.73 306.5 300.76 306.44 299.73C306.38 298.69 306.44 297.72 306.6 296.8C306.94 294.97 307.38 293.17 307.92 291.39C308.46 289.62 309.11 287.89 309.85 286.2C309.51 286.32 309.16 286.42 308.78 286.49C308.41 286.56 308.02 286.66 307.62 286.78C307.22 286.9 306.81 287.08 306.39 287.3C305.97 287.53 305.54 287.87 305.11 288.33C305.04 288.4 304.98 288.44 304.93 288.44C304.81 288.51 304.68 288.52 304.53 288.46C304.38 288.4 304.35 288.3 304.42 288.15C305.14 286.75 305.97 285.47 306.9 284.32C307.83 283.16 308.87 282.17 310.03 281.34C311.19 280.51 312.47 279.86 313.88 279.4C315.29 278.94 316.85 278.71 318.56 278.71H334.11L332.16 285.18H320.66C320.15 285.18 319.74 285.34 319.41 285.65C319.08 285.96 318.81 286.34 318.58 286.77C318.35 287.2 318.15 287.66 317.98 288.13C317.81 288.6 317.62 288.99 317.4 289.31C317.62 289.29 317.88 289.27 318.18 289.26C318.48 289.25 318.97 289.24 319.64 289.24C320.31 289.24 321.31 289.24 322.55 289.26C323.79 289.27 325.45 289.28 327.52 289.28L325.93 294.45H325.95Z" fill="#005DA1"/>
<path d="M340.83 298.86C341.08 299.25 341.39 299.46 341.75 299.51C342.57 299.63 343.4 299.68 344.25 299.65C345.09 299.63 345.94 299.61 346.78 299.61L348.81 293.46H356.88L352.94 305.76H351.31C346.51 306.48 341.68 306.57 336.81 306.01C335.68 305.89 334.75 305.52 334.04 304.89C333.33 304.26 332.79 303.5 332.43 302.61C332.07 301.72 331.85 300.75 331.78 299.72C331.71 298.68 331.76 297.71 331.92 296.79C332.35 294.4 332.97 292.08 333.77 289.83C334.56 287.58 335.52 285.39 336.63 283.27C336.97 282.64 337.39 282.05 337.91 281.5C338.43 280.95 339.01 280.46 339.66 280.05C340.31 279.64 341 279.32 341.72 279.07C342.44 278.83 343.18 278.71 343.93 278.71H359.92L357.97 285.18H346C345.64 285.18 345.3 285.28 344.99 285.49C344.68 285.7 344.44 285.95 344.27 286.27C343.26 288.03 342.44 289.88 341.81 291.82C341.18 293.76 340.76 295.74 340.54 297.77C340.49 298.11 340.59 298.47 340.85 298.85L340.83 298.86Z" fill="#005DA1"/>
<path d="M373 298.1H368.01L365.7 305.77H357.89L366.03 278.83H379.67C380.59 278.83 381.5 278.95 382.42 279.19C383.34 279.43 384.16 279.8 384.88 280.31C385.6 280.82 386.19 281.46 386.65 282.23C387.11 283 387.34 283.91 387.34 284.94C387.34 286.36 387.14 287.76 386.74 289.14C386.34 290.51 385.75 291.8 384.95 293.01C384.4 293.88 383.74 294.7 382.98 295.49C382.22 296.27 381.38 296.91 380.47 297.39L383.22 305.78H375.63L373.03 298.11L373 298.1ZM373.65 292.57C374.32 292.57 374.88 292.52 375.33 292.43C375.78 292.33 376.15 292.2 376.45 292.03C376.75 291.86 377 291.66 377.21 291.43C377.41 291.2 377.63 290.97 377.84 290.72C378.39 290.12 378.82 289.44 379.12 288.69C379.42 287.94 379.57 287.15 379.57 286.3C379.57 286.01 379.52 285.71 379.41 285.4C379.3 285.09 379.15 284.8 378.96 284.55C378.77 284.3 378.53 284.09 378.25 283.94C377.97 283.78 377.66 283.71 377.33 283.71H372.34L369.66 292.57H373.64H373.65Z" fill="#005DA1"/>
<path d="M397.41 300.06L394.15 305.77H385.65L398.74 283.92C399.49 282.69 400.22 281.73 400.93 281.04C401.64 280.35 402.3 279.84 402.9 279.5C403.5 279.16 404.02 278.96 404.46 278.89C404.89 278.82 405.19 278.78 405.36 278.78H413.17V305.76H405.68V300.05H397.4L397.41 300.06ZM405.84 295.18V285.02L400.16 295.18H405.84Z" fill="#005DA1"/>
<path d="M425.44 298.57C425.75 298.96 426.08 299.18 426.42 299.26C428.47 299.57 430.49 299.66 432.5 299.51C434.5 299.36 436.5 299.09 438.5 298.68L436.58 305.37C433.9 305.83 431.34 306.09 428.88 306.17C426.42 306.25 423.95 306.1 421.47 305.74C419.35 305.47 417.89 304.55 417.11 302.97C416.33 301.39 416.3 299.23 417.02 296.48C417.04 296.33 417.08 296.17 417.13 295.97C417.18 295.78 417.26 295.47 417.38 295.05C417.5 294.63 417.66 294.04 417.87 293.3C418.07 292.55 418.36 291.55 418.74 290.28C419.11 289.01 419.59 287.45 420.17 285.58C420.75 283.71 421.45 281.45 422.27 278.8H430.34L425.78 293.88C425.66 294.51 425.52 295.11 425.36 295.69C425.2 296.27 425.1 296.87 425.05 297.5C425 297.84 425.13 298.2 425.45 298.58L425.44 298.57Z" fill="#005DA1"/>
<path d="M14.0101 341.8H25.7801C26.5801 341.8 27.3401 341.75 28.0601 341.66C28.7801 341.57 29.4101 341.39 29.9401 341.12C30.4701 340.85 30.8301 340.44 31.0201 339.88C31.2301 339.19 31.2501 338.71 31.0801 338.44C30.9101 338.17 30.5401 337.89 29.9801 337.6C29.5001 337.63 28.9101 337.64 28.2201 337.64C27.5301 337.64 26.7801 337.62 26.0001 337.58C25.2101 337.54 24.4101 337.47 23.6001 337.38C22.7901 337.29 22.0401 337.14 21.3601 336.94C20.6801 336.74 20.0901 336.49 19.5801 336.2C19.0701 335.91 18.7301 335.53 18.5401 335.08C18.3301 334.6 18.1101 334.07 17.9001 333.48C17.6901 332.89 17.5201 332.27 17.4001 331.6C17.2801 330.93 17.2401 330.23 17.2801 329.48C17.3201 328.73 17.4701 327.97 17.7401 327.2C16.9901 327.49 16.3201 327.83 15.7201 328.22C15.1201 328.61 14.6201 329.05 14.2201 329.56C14.1401 329.64 14.0701 329.68 14.0201 329.68C13.8901 329.76 13.7401 329.77 13.5801 329.7C13.4201 329.63 13.3701 329.52 13.4201 329.36C14.3001 327.68 15.1801 326.18 16.0601 324.88C16.9401 323.57 17.9601 322.47 19.1001 321.58C20.2501 320.69 21.6101 320.01 23.1801 319.54C24.7601 319.07 26.7001 318.85 29.0301 318.88H43.6901L41.9701 326.05L29.1201 326.09C28.1901 326.2 27.3801 326.38 26.7001 326.65C26.0201 326.92 25.5501 327.36 25.2801 327.97C24.9901 328.64 24.9301 329.19 25.1001 329.63C25.2701 330.07 25.6101 330.41 26.1201 330.65C26.3301 330.76 26.5501 330.83 26.7601 330.87C26.9701 330.91 27.2301 330.94 27.5201 330.95C27.8101 330.96 28.1601 330.97 28.5601 330.97H30.0001C32.3801 330.97 34.2001 331.16 35.4901 331.53C36.7701 331.9 37.7301 332.54 38.3701 333.45C38.8801 334.14 39.1601 335.09 39.2101 336.27C39.2601 337.46 39.0601 338.69 38.6101 339.97C38.0801 341.6 37.3601 343.1 36.4701 344.47C35.5801 345.85 34.3701 346.89 32.8501 347.61C31.9201 348.06 30.6901 348.38 29.1701 348.55C27.6501 348.72 25.6901 348.81 23.2801 348.81H12.3101L14.0301 341.8H14.0101Z" fill="#005DA1"/>
<path d="M72.2301 334.45C71.4301 337.4 70.4001 340.32 69.1501 343.2C68.4801 344.67 67.5001 345.87 66.1901 346.8C64.8801 347.73 63.4501 348.34 61.9101 348.6C60.6601 348.81 59.4101 348.97 58.1701 349.08C56.9301 349.19 55.6801 349.24 54.4301 349.24C53.5201 349.24 52.5701 349.22 51.5901 349.18C50.6001 349.14 49.6301 349.03 48.6701 348.86C47.7101 348.69 46.8101 348.43 45.9701 348.1C45.1301 347.77 44.4001 347.31 43.7901 346.74C43.1801 346.17 42.7101 345.46 42.4101 344.62C42.1001 343.78 42.0001 342.76 42.1101 341.56C42.2401 340.17 42.4801 338.74 42.8101 337.26C43.1401 335.78 43.5301 334.3 43.9701 332.84C44.4101 331.37 44.8801 329.94 45.3901 328.54C45.9001 327.14 46.4001 325.82 46.9101 324.6C47.1801 323.93 47.6201 323.25 48.2501 322.56C48.8801 321.87 49.7501 321.23 50.8501 320.66C51.9601 320.09 53.3501 319.62 55.0301 319.26C56.7101 318.9 58.7401 318.72 61.1201 318.72C62.2901 318.72 63.5701 318.75 64.9401 318.8C66.3101 318.85 67.6201 319.05 68.8601 319.4C70.1001 319.75 71.2001 320.3 72.1601 321.06C73.1201 321.82 73.7801 322.92 74.1201 324.36V325.44C73.6701 328.51 73.0401 331.52 72.2401 334.47L72.2301 334.45ZM62.9801 334.05C63.7001 331.82 64.2901 329.55 64.7401 327.22C64.8701 326.61 64.8101 326.12 64.5401 325.76C64.2701 325.4 63.9101 325.13 63.4401 324.96C62.9701 324.79 62.4601 324.67 61.9001 324.62C61.3401 324.57 60.8601 324.54 60.4601 324.54C60.0101 324.54 59.5101 324.57 58.9801 324.62C58.4501 324.67 57.9301 324.79 57.4401 324.96C56.9501 325.13 56.5001 325.37 56.1001 325.68C55.7001 325.99 55.4001 326.39 55.2201 326.9C54.4201 328.98 53.6701 331.13 52.9801 333.35C52.2801 335.57 51.7001 337.81 51.2201 340.08C51.0901 340.61 51.0801 341.09 51.2001 341.5C51.3201 341.91 51.5301 342.26 51.8201 342.54C52.1101 342.82 52.4901 343.03 52.9401 343.16C53.3901 343.29 53.8901 343.33 54.4201 343.28C54.9301 343.28 55.5101 343.26 56.1601 343.22C56.8101 343.18 57.4401 343.08 58.0401 342.92C58.6401 342.76 59.1701 342.51 59.6201 342.16C60.0701 341.81 60.3701 341.33 60.5001 340.72C61.4301 338.5 62.2601 336.28 62.9801 334.05Z" fill="#005DA1"/>
<path d="M83.08 340.32L80.48 348.81H71.55L80.56 318.98H95.7401C97.0201 318.98 98.26 319.17 99.44 319.54C100.63 319.91 101.68 320.55 102.58 321.46C103.11 322.02 103.53 322.67 103.82 323.42C104.11 324.17 104.26 324.94 104.26 325.74C104.26 327.32 104.03 328.86 103.58 330.39C103.13 331.92 102.47 333.34 101.62 334.67C101.14 335.39 100.61 336.09 100.02 336.77C99.4301 337.45 98.7901 338.05 98.1001 338.57C97.4101 339.09 96.6701 339.51 95.8801 339.83C95.0901 340.15 94.27 340.31 93.42 340.31H83.09L83.08 340.32ZM89.37 334.19C90.12 334.19 90.7301 334.14 91.2101 334.03C91.6901 333.92 92.1 333.78 92.43 333.59C92.76 333.4 93.0401 333.18 93.2701 332.93C93.5001 332.68 93.73 332.42 93.97 332.15C94.58 331.48 95.06 330.74 95.39 329.91C95.72 329.08 95.89 328.2 95.89 327.27C95.89 326.95 95.8301 326.62 95.7101 326.27C95.5901 325.92 95.4201 325.61 95.2101 325.33C95.0001 325.05 94.74 324.82 94.45 324.65C94.16 324.48 93.82 324.39 93.45 324.39H87.8801L84.8801 334.2H89.36L89.37 334.19Z" fill="#005DA1"/>
<path d="M123.32 333.91H116.79L112.27 348.81H103.26L107.71 334.23C106.29 334.52 105.07 334.92 104.03 335.43C102.99 335.94 102.13 336.58 101.47 337.35C101.34 337.54 101.17 337.6 100.97 337.55C100.77 337.5 100.7 337.38 100.75 337.19C101.39 335.99 102.01 334.89 102.61 333.89C103.21 332.89 103.85 332 104.53 331.23C105.21 330.46 105.96 329.8 106.77 329.27C107.58 328.74 108.52 328.35 109.59 328.11L112.39 318.98H121.32L118.72 327.59H125.25L127.89 318.94H136.86L127.81 348.77H118.76L123.32 333.91Z" fill="#005DA1"/>
<path d="M142.7 318.97H151.63L142.62 348.8H133.57L142.7 318.97Z" fill="#005DA1"/>
<path d="M173.01 336.27H161.72C161.59 336.88 161.43 337.5 161.24 338.11C161.05 338.72 160.92 339.34 160.84 339.95C160.79 340.32 160.91 340.68 161.2 341.03C161.49 341.38 161.83 341.58 162.2 341.63C164.47 341.98 166.75 342.12 169.05 342.05C171.35 341.98 173.6 341.74 175.82 341.31L173.7 348.72C168.15 349.57 162.57 349.69 156.96 349.08C155.71 348.95 154.68 348.53 153.9 347.84C153.11 347.15 152.52 346.31 152.12 345.32C151.72 344.33 151.49 343.26 151.42 342.12C151.35 340.97 151.42 339.89 151.6 338.88C151.97 336.85 152.46 334.86 153.06 332.89C153.66 330.93 154.37 329.01 155.2 327.14C154.83 327.27 154.43 327.38 154.02 327.46C153.61 327.54 153.18 327.65 152.74 327.78C152.3 327.91 151.85 328.11 151.38 328.36C150.91 328.61 150.44 328.99 149.96 329.5C149.88 329.58 149.81 329.62 149.76 329.62C149.63 329.7 149.48 329.71 149.32 329.64C149.16 329.57 149.12 329.46 149.2 329.3C150 327.75 150.91 326.34 151.94 325.06C152.97 323.78 154.12 322.68 155.4 321.76C156.68 320.84 158.1 320.13 159.66 319.62C161.22 319.11 162.95 318.86 164.85 318.86H182.07L179.91 326.03H167.18C166.62 326.03 166.16 326.2 165.8 326.55C165.44 326.9 165.13 327.31 164.88 327.79C164.63 328.27 164.41 328.77 164.22 329.29C164.03 329.81 163.82 330.24 163.58 330.59C163.82 330.56 164.11 330.54 164.44 330.53C164.77 330.52 165.31 330.51 166.06 330.51C166.81 330.51 167.91 330.51 169.28 330.53C170.66 330.54 172.49 330.55 174.79 330.55L173.03 336.28L173.01 336.27Z" fill="#005DA1"/>
<path d="M203.94 341.16C204.22 341.59 204.56 341.83 204.96 341.88C205.87 342.01 206.79 342.07 207.72 342.04C208.65 342.01 209.59 342 210.52 342L212.76 335.19H221.69L217.32 348.8H215.52C210.21 349.6 204.85 349.69 199.46 349.08C198.2 348.95 197.18 348.53 196.4 347.84C195.61 347.15 195.02 346.31 194.62 345.32C194.22 344.33 193.98 343.26 193.9 342.12C193.82 340.97 193.87 339.89 194.06 338.88C194.54 336.24 195.22 333.67 196.1 331.17C196.98 328.67 198.04 326.25 199.26 323.9C199.63 323.21 200.11 322.55 200.68 321.94C201.25 321.33 201.9 320.79 202.62 320.34C203.34 319.89 204.1 319.53 204.9 319.26C205.7 318.99 206.51 318.86 207.34 318.86H225.04L222.88 326.03H209.63C209.23 326.03 208.86 326.14 208.51 326.37C208.16 326.6 207.9 326.88 207.71 327.23C206.59 329.18 205.68 331.23 204.99 333.38C204.29 335.53 203.83 337.72 203.59 339.97C203.54 340.34 203.65 340.74 203.93 341.17L203.94 341.16Z" fill="#005DA1"/>
<path d="M248.13 336.27H236.84C236.71 336.88 236.55 337.5 236.36 338.11C236.17 338.72 236.04 339.34 235.96 339.95C235.91 340.32 236.03 340.68 236.32 341.03C236.61 341.38 236.95 341.58 237.32 341.63C239.59 341.98 241.87 342.12 244.17 342.05C246.47 341.98 248.72 341.74 250.94 341.31L248.82 348.72C243.27 349.57 237.69 349.69 232.08 349.08C230.82 348.95 229.8 348.53 229.02 347.84C228.23 347.15 227.64 346.31 227.24 345.32C226.84 344.33 226.61 343.26 226.54 342.12C226.47 340.97 226.54 339.89 226.72 338.88C227.09 336.85 227.58 334.86 228.18 332.89C228.78 330.92 229.49 329.01 230.32 327.14C229.94 327.27 229.55 327.38 229.14 327.46C228.73 327.54 228.3 327.65 227.86 327.78C227.42 327.91 226.97 328.11 226.5 328.36C226.03 328.61 225.56 328.99 225.08 329.5C225 329.58 224.93 329.62 224.88 329.62C224.75 329.7 224.6 329.71 224.44 329.64C224.28 329.57 224.24 329.46 224.32 329.3C225.12 327.75 226.03 326.34 227.06 325.06C228.09 323.78 229.24 322.68 230.52 321.76C231.8 320.84 233.22 320.13 234.78 319.62C236.34 319.11 238.07 318.86 239.97 318.86H257.19L255.03 326.03H242.3C241.74 326.03 241.28 326.2 240.92 326.55C240.56 326.9 240.25 327.31 240 327.79C239.75 328.27 239.53 328.77 239.34 329.29C239.15 329.81 238.94 330.24 238.7 330.59C238.94 330.56 239.23 330.54 239.56 330.53C239.89 330.52 240.44 330.51 241.18 330.51C241.92 330.51 243.03 330.51 244.4 330.53C245.78 330.54 247.61 330.55 249.91 330.55L248.15 336.28L248.13 336.27Z" fill="#005DA1"/>
<path d="M270.11 340.32H264.58L262.02 348.81H253.37L262.38 318.98H277.48C278.49 318.98 279.51 319.11 280.52 319.38C281.53 319.65 282.44 320.06 283.24 320.62C284.04 321.18 284.69 321.89 285.2 322.74C285.71 323.59 285.96 324.6 285.96 325.74C285.96 327.32 285.74 328.86 285.3 330.39C284.86 331.91 284.2 333.34 283.32 334.67C282.7 335.63 281.98 336.55 281.14 337.41C280.3 338.28 279.37 338.98 278.36 339.51L281.4 348.8H272.99L270.11 340.31V340.32ZM270.83 334.19C271.58 334.19 272.2 334.14 272.69 334.03C273.18 333.92 273.6 333.78 273.93 333.59C274.26 333.4 274.54 333.18 274.77 332.93C275 332.68 275.23 332.42 275.47 332.15C276.08 331.48 276.56 330.74 276.89 329.91C277.22 329.08 277.39 328.2 277.39 327.27C277.39 326.95 277.33 326.62 277.21 326.27C277.09 325.92 276.92 325.61 276.71 325.33C276.5 325.05 276.24 324.82 275.93 324.65C275.62 324.48 275.28 324.39 274.91 324.39H269.38L266.42 334.2H270.83V334.19Z" fill="#005DA1"/>
<path d="M303.9 342.32H301.94L299.22 328.07L292.97 348.81H284.12L293.09 318.98H302.06C302.54 318.98 303.02 319.05 303.5 319.2C303.98 319.35 304.42 319.56 304.82 319.84C305.22 320.12 305.56 320.45 305.84 320.82C306.12 321.19 306.31 321.62 306.42 322.1L307.74 328.95L313.47 321.74C314.16 320.89 315.01 320.21 315.99 319.72C316.98 319.23 317.99 318.98 319.03 318.98H327.08L318.15 348.81H309.18L315.35 328.43L303.9 342.32Z" fill="#005DA1"/>
<path d="M333.73 342.48L330.13 348.81H320.72L335.21 324.62C336.04 323.26 336.84 322.2 337.63 321.44C338.42 320.68 339.14 320.11 339.81 319.74C340.48 319.37 341.05 319.14 341.53 319.06C342.01 318.98 342.34 318.94 342.53 318.94H351.18V348.81H342.89V342.48H333.72H333.73ZM343.06 337.07V325.82L336.77 337.07H343.06Z" fill="#005DA1"/>
<path d="M362.96 318.97H371.89L362.88 348.8H353.83L362.96 318.97Z" fill="#005DA1"/>
<path d="M393.07 336.27L398.36 318.97H406.93L398 348.8H387.35L383.15 328.06L376.9 348.8H368.05L377.02 318.97H385.99C386.47 318.97 386.95 319.04 387.43 319.19C387.91 319.34 388.35 319.55 388.75 319.83C389.15 320.11 389.49 320.44 389.77 320.81C390.05 321.18 390.24 321.61 390.35 322.09L393.07 336.26V336.27Z" fill="#005DA1"/>
<path d="M420.7 341.8H432.47C433.27 341.8 434.03 341.75 434.75 341.66C435.47 341.57 436.1 341.39 436.63 341.12C437.16 340.85 437.52 340.44 437.71 339.88C437.92 339.19 437.94 338.71 437.77 338.44C437.6 338.17 437.23 337.89 436.67 337.6C436.19 337.63 435.6 337.64 434.91 337.64C434.22 337.64 433.47 337.62 432.69 337.58C431.9 337.54 431.1 337.47 430.29 337.38C429.48 337.29 428.73 337.14 428.05 336.94C427.37 336.74 426.77 336.49 426.27 336.2C425.76 335.91 425.42 335.53 425.23 335.08C425.02 334.6 424.8 334.07 424.59 333.48C424.38 332.89 424.21 332.27 424.09 331.6C423.97 330.93 423.93 330.23 423.97 329.48C424.01 328.73 424.16 327.97 424.43 327.2C423.68 327.49 423.01 327.83 422.41 328.22C421.81 328.61 421.31 329.05 420.91 329.56C420.83 329.64 420.76 329.68 420.71 329.68C420.58 329.76 420.43 329.77 420.27 329.7C420.11 329.63 420.06 329.52 420.11 329.36C420.99 327.68 421.87 326.18 422.75 324.88C423.63 323.57 424.65 322.47 425.79 321.58C426.94 320.69 428.3 320.01 429.87 319.54C431.45 319.07 433.39 318.85 435.72 318.88H450.37L448.65 326.05L435.8 326.09C434.86 326.2 434.06 326.38 433.38 326.65C432.7 326.92 432.22 327.36 431.96 327.97C431.67 328.64 431.6 329.19 431.78 329.63C431.96 330.07 432.29 330.41 432.8 330.65C433.01 330.76 433.23 330.83 433.44 330.87C433.65 330.91 433.91 330.94 434.2 330.95C434.49 330.96 434.84 330.97 435.24 330.97H436.68C439.06 330.97 440.88 331.16 442.17 331.53C443.45 331.9 444.41 332.54 445.05 333.45C445.56 334.14 445.84 335.09 445.89 336.27C445.94 337.46 445.74 338.69 445.29 339.97C444.76 341.6 444.04 343.1 443.15 344.47C442.26 345.85 441.05 346.89 439.53 347.61C438.6 348.06 437.37 348.38 435.85 348.55C434.33 348.72 432.37 348.81 429.96 348.81H418.99L420.71 341.8H420.7Z" fill="#005DA1"/>
<path d="M449.57 342.84H458.62L456.82 348.81H447.81L449.57 342.84Z" fill="#005DA1"/>
<path d="M468.13 340.96C468.41 341.25 468.75 341.44 469.15 341.52C471.39 341.84 473.63 341.99 475.86 341.98C478.09 341.97 480.3 341.75 482.49 341.32L480.37 348.73C474.82 349.58 469.25 349.7 463.67 349.09C462.41 348.96 461.39 348.54 460.61 347.85C459.82 347.16 459.23 346.32 458.83 345.33C458.43 344.34 458.19 343.27 458.11 342.13C458.03 340.98 458.08 339.9 458.27 338.89C458.48 337.77 458.75 336.49 459.07 335.05C459.39 333.61 459.8 332.15 460.29 330.67C460.78 329.19 461.36 327.74 462.03 326.33C462.7 324.92 463.49 323.65 464.41 322.55C465.33 321.44 466.38 320.55 467.55 319.89C468.72 319.22 470.06 318.89 471.55 318.89H489.25L487.09 326.06H473.84C473.44 326.06 473.07 326.17 472.72 326.4C472.37 326.63 472.11 326.91 471.92 327.26C470.8 329.21 469.89 331.26 469.2 333.41C468.51 335.56 468.04 337.75 467.8 340C467.75 340.37 467.86 340.71 468.14 341L468.13 340.96Z" fill="#005DA1"/>
<path d="M486.45 342.84H495.5L493.7 348.81H484.69L486.45 342.84Z" fill="#005DA1"/>
<path d="M26.79 369.77C27.24 368.14 28.07 366.04 28.62 365.15L29.7101 365.03C29.2801 366.18 28.78 368.18 28.56 369.58L26.79 369.77ZM29.68 369.77C30.11 368.14 30.9601 366.04 31.4901 365.15L32.58 365.03C32.15 366.18 31.65 368.18 31.43 369.58L29.68 369.77Z" fill="#FF0000"/>
<path d="M38.31 374.47C38.48 374.68 38.6501 374.8 38.8301 374.84C39.9301 375.01 41.02 375.05 42.09 374.98C43.16 374.9 44.2401 374.75 45.3201 374.53L44.29 378.12C42.85 378.37 41.47 378.51 40.15 378.55C38.83 378.59 37.5 378.51 36.17 378.32C35.03 378.18 34.2501 377.68 33.8301 376.83C33.4101 375.98 33.39 374.82 33.78 373.34C33.79 373.26 33.81 373.17 33.84 373.07C33.87 372.97 33.91 372.8 33.98 372.57C34.04 372.34 34.1301 372.03 34.2401 371.63C34.3501 371.23 34.5101 370.69 34.7101 370.01C34.9101 369.33 35.17 368.49 35.48 367.48C35.79 366.48 36.17 365.26 36.61 363.84H40.9401L38.4901 371.94C38.4301 372.28 38.3501 372.6 38.2701 372.91C38.1901 373.22 38.1301 373.54 38.1001 373.88C38.0701 374.06 38.14 374.26 38.31 374.46V374.47Z" fill="#FF0000"/>
<path d="M51.6401 375.27L49.8901 378.34H45.3201L52.3501 366.6C52.7501 365.94 53.1401 365.42 53.5301 365.06C53.9101 364.69 54.2601 364.42 54.5901 364.23C54.9101 364.05 55.1901 363.94 55.4301 363.9C55.6601 363.86 55.8201 363.84 55.9201 363.84H60.1201V378.34H56.1001V375.27H51.6501H51.6401ZM56.1701 372.65V367.19L53.1201 372.65H56.1701Z" fill="#FF0000"/>
<path d="M80.6501 372.26H75.1701C75.1101 372.56 75.0301 372.86 74.9401 373.15C74.8501 373.45 74.7801 373.75 74.7501 374.04C74.7201 374.22 74.7801 374.4 74.9301 374.56C75.0701 374.73 75.2301 374.83 75.4201 374.85C76.5201 375.02 77.6301 375.09 78.7401 375.05C79.8501 375.02 80.9501 374.9 82.0201 374.69L80.9901 378.28C78.2901 378.69 75.5901 378.75 72.8701 378.46C72.2601 378.4 71.7701 378.19 71.3801 377.86C71.0001 377.52 70.7101 377.12 70.5101 376.64C70.3201 376.16 70.2001 375.64 70.1701 375.09C70.1401 374.53 70.1701 374.01 70.2601 373.52C70.4401 372.54 70.6801 371.57 70.9701 370.61C71.2601 369.65 71.6101 368.73 72.0101 367.82C71.8301 367.88 71.6401 367.94 71.4401 367.98C71.2401 368.02 71.0301 368.07 70.8201 368.14C70.6101 368.2 70.3901 368.3 70.1601 368.42C69.9301 368.54 69.7001 368.73 69.4701 368.97C69.4301 369.01 69.4001 369.03 69.3701 369.03C69.3101 369.07 69.2301 369.07 69.1601 369.03C69.0801 369 69.0601 368.94 69.1001 368.86C69.4901 368.11 69.9301 367.42 70.4301 366.8C70.9301 366.18 71.4901 365.64 72.1101 365.2C72.7301 364.75 73.4201 364.41 74.1801 364.16C74.9401 363.91 75.7801 363.79 76.7001 363.79H85.0601L84.0101 367.27H77.8301C77.5601 367.27 77.3301 367.35 77.1601 367.52C76.9801 367.69 76.8401 367.89 76.7101 368.12C76.5901 368.35 76.4801 368.6 76.3901 368.85C76.3001 369.1 76.1901 369.31 76.0801 369.48C76.2001 369.47 76.3301 369.46 76.5001 369.45C76.6601 369.45 76.9201 369.45 77.2901 369.45C77.6601 369.45 78.1901 369.45 78.8501 369.45C79.5201 369.45 80.4101 369.45 81.5201 369.45L80.6701 372.23L80.6501 372.26Z" fill="#FF0000"/>
<path d="M83.31 378.36L87.5701 363.84H95.5C96.12 363.84 96.72 363.93 97.3 364.1C97.88 364.28 98.38 364.59 98.83 365.04C99.09 365.31 99.29 365.63 99.43 365.99C99.57 366.35 99.64 366.73 99.64 367.12C99.64 367.38 99.6001 367.74 99.5201 368.19C99.4401 368.64 99.33 369.15 99.2 369.71C99.07 370.27 98.9101 370.85 98.7401 371.46C98.5701 372.07 98.4001 372.65 98.2101 373.19C98.0201 373.73 97.85 374.22 97.69 374.66C97.53 375.1 97.37 375.41 97.22 375.62C96.99 375.97 96.73 376.31 96.44 376.64C96.15 376.97 95.84 377.26 95.51 377.51C95.17 377.76 94.81 377.96 94.43 378.11C94.05 378.26 93.65 378.33 93.23 378.33L83.3 378.35L83.31 378.36ZM91.28 375.39C91.63 375.39 91.92 375.37 92.16 375.34C92.4 375.31 92.6 375.25 92.76 375.17C92.92 375.09 93.06 374.99 93.17 374.86C93.28 374.73 93.39 374.57 93.51 374.37C93.58 374.25 93.67 374.03 93.8 373.7C93.93 373.37 94.07 372.99 94.23 372.55C94.38 372.12 94.54 371.66 94.7 371.17C94.86 370.68 95.0001 370.22 95.1301 369.78C95.2601 369.34 95.37 368.95 95.45 368.6C95.53 368.26 95.58 368.01 95.58 367.85C95.58 367.69 95.5501 367.53 95.4901 367.36C95.4301 367.19 95.35 367.04 95.25 366.9C95.15 366.76 95.0201 366.65 94.8801 366.57C94.7401 366.49 94.58 366.44 94.39 366.44H91.0701L88.51 375.36H91.29L91.28 375.39Z" fill="#FF0000"/>
<path d="M106.81 363.81L103.68 374.11C103.59 374.37 103.59 374.59 103.68 374.77C103.76 374.95 103.9 375.1 104.09 375.23C104.28 375.35 104.5 375.45 104.77 375.51C105.04 375.57 105.31 375.63 105.6 375.67C105.9 375.64 106.18 375.61 106.45 375.55C106.72 375.5 106.98 375.42 107.23 375.31C107.48 375.2 107.7 375.05 107.89 374.87C108.08 374.69 108.25 374.46 108.39 374.17L111.54 363.81C111.54 363.81 111.58 363.79 111.62 363.79H115.99L112.4 375.62C112.01 376.33 111.5 376.89 110.87 377.28C110.24 377.68 109.57 377.97 108.85 378.15C108.13 378.34 107.41 378.45 106.67 378.49C105.94 378.53 105.27 378.55 104.68 378.55C104.24 378.55 103.79 378.55 103.32 378.52C102.85 378.5 102.41 378.45 101.98 378.36C101.55 378.28 101.15 378.15 100.79 377.99C100.43 377.83 100.11 377.61 99.8601 377.33C99.6101 377.05 99.4301 376.71 99.3201 376.3C99.2201 375.89 99.2201 375.4 99.3201 374.81L102.7 363.79H106.82L106.81 363.81Z" fill="#FF0000"/>
<path d="M118.71 374.53C118.85 374.67 119.01 374.76 119.21 374.8C120.3 374.96 121.38 375.03 122.46 375.02C123.54 375.02 124.61 374.91 125.68 374.7L124.65 378.29C121.95 378.7 119.25 378.76 116.55 378.47C115.94 378.41 115.45 378.2 115.06 377.87C114.68 377.53 114.39 377.13 114.19 376.65C114 376.17 113.88 375.65 113.84 375.1C113.8 374.54 113.83 374.02 113.92 373.53C114.02 372.99 114.15 372.36 114.31 371.66C114.47 370.96 114.66 370.25 114.9 369.53C115.14 368.81 115.42 368.11 115.75 367.42C116.08 366.73 116.46 366.12 116.91 365.58C117.36 365.04 117.87 364.61 118.44 364.29C119.01 363.97 119.66 363.8 120.38 363.8H128.97L127.92 367.28H121.49C121.3 367.28 121.11 367.34 120.95 367.45C120.78 367.56 120.65 367.7 120.56 367.87C120.02 368.82 119.57 369.81 119.24 370.85C118.9 371.89 118.68 372.96 118.56 374.05C118.53 374.23 118.59 374.39 118.72 374.54L118.71 374.53Z" fill="#FF0000"/>
<path d="M132.38 375.27L130.63 378.34H126.06L133.09 366.6C133.49 365.94 133.88 365.42 134.27 365.06C134.65 364.69 135.01 364.42 135.33 364.23C135.65 364.05 135.93 363.94 136.16 363.9C136.39 363.86 136.56 363.84 136.65 363.84H140.85V378.34H136.83V375.27H132.38ZM136.91 372.65V367.19L133.86 372.65H136.91Z" fill="#FF0000"/>
<path d="M147.54 374.53C147.68 374.67 147.84 374.76 148.04 374.8C149.13 374.96 150.21 375.03 151.3 375.02C152.38 375.02 153.45 374.91 154.51 374.7L153.48 378.29C150.78 378.7 148.08 378.76 145.38 378.47C144.77 378.41 144.28 378.2 143.89 377.87C143.51 377.53 143.22 377.13 143.03 376.65C142.84 376.17 142.72 375.65 142.68 375.1C142.64 374.54 142.67 374.02 142.76 373.53C142.86 372.99 142.99 372.36 143.15 371.66C143.31 370.96 143.5 370.25 143.74 369.53C143.98 368.81 144.26 368.11 144.58 367.42C144.9 366.73 145.29 366.12 145.74 365.58C146.19 365.04 146.7 364.61 147.27 364.29C147.84 363.97 148.49 363.8 149.21 363.8H157.8L156.75 367.28H150.32C150.13 367.28 149.94 367.34 149.78 367.45C149.61 367.56 149.48 367.7 149.39 367.87C148.85 368.82 148.4 369.81 148.07 370.85C147.73 371.89 147.51 372.96 147.39 374.05C147.36 374.23 147.42 374.39 147.56 374.54L147.54 374.53Z" fill="#FF0000"/>
<path d="M159.93 363.86H164.26L159.89 378.34H155.5L159.93 363.86Z" fill="#FF0000"/>
<path d="M177.58 371.38C177.19 372.81 176.69 374.23 176.08 375.63C175.76 376.34 175.28 376.93 174.64 377.38C174 377.83 173.31 378.13 172.56 378.25C171.95 378.35 171.35 378.43 170.74 378.48C170.14 378.53 169.53 378.56 168.92 378.56C168.48 378.56 168.02 378.56 167.54 378.53C167.06 378.51 166.59 378.46 166.12 378.37C165.65 378.29 165.22 378.16 164.81 378C164.4 377.84 164.05 377.62 163.75 377.34C163.45 377.06 163.23 376.72 163.08 376.31C162.93 375.9 162.88 375.41 162.93 374.82C162.99 374.15 163.11 373.45 163.27 372.73C163.43 372.01 163.62 371.3 163.83 370.58C164.04 369.87 164.27 369.17 164.52 368.49C164.77 367.81 165.01 367.17 165.26 366.58C165.39 366.26 165.61 365.93 165.91 365.59C166.21 365.25 166.64 364.95 167.17 364.67C167.71 364.39 168.38 364.17 169.2 363.99C170.02 363.81 171 363.73 172.15 363.73C172.72 363.73 173.34 363.74 174.01 363.77C174.68 363.8 175.31 363.89 175.91 364.06C176.51 364.23 177.05 364.5 177.51 364.87C177.98 365.24 178.29 365.77 178.46 366.47V366.99C178.24 368.48 177.94 369.94 177.55 371.37L177.58 371.38ZM173.09 371.19C173.44 370.11 173.72 369 173.94 367.88C174 367.58 173.97 367.35 173.84 367.17C173.71 367 173.53 366.87 173.31 366.78C173.08 366.7 172.83 366.64 172.56 366.61C172.29 366.58 172.05 366.57 171.86 366.57C171.64 366.57 171.4 366.58 171.14 366.61C170.88 366.64 170.63 366.69 170.39 366.78C170.15 366.86 169.93 366.98 169.74 367.13C169.55 367.28 169.4 367.48 169.31 367.72C168.92 368.73 168.56 369.77 168.22 370.85C167.88 371.93 167.6 373.01 167.37 374.11C167.3 374.37 167.3 374.6 167.37 374.8C167.43 375 167.53 375.17 167.67 375.31C167.81 375.45 167.99 375.55 168.21 375.61C168.43 375.67 168.67 375.69 168.93 375.67C169.18 375.67 169.46 375.67 169.78 375.64C170.1 375.62 170.4 375.57 170.69 375.49C170.98 375.41 171.24 375.29 171.46 375.12C171.68 374.95 171.82 374.72 171.89 374.42C172.34 373.34 172.74 372.27 173.1 371.18L173.09 371.19ZM176.82 360.01L175.94 362.89H171.55L176.82 360.01Z" fill="#FF0000"/>
<path d="M188.98 372.26L191.54 363.87H195.7L191.37 378.35H186.2L184.16 368.28L181.13 378.35H176.84L181.19 363.87H185.54C185.77 363.87 186.01 363.91 186.24 363.98C186.47 364.05 186.69 364.15 186.88 364.29C187.08 364.43 187.24 364.58 187.38 364.77C187.52 364.95 187.61 365.16 187.66 365.39L188.98 372.27V372.26Z" fill="#FF0000"/>
<path d="M207.79 375.27L206.04 378.34H201.47L208.5 366.6C208.9 365.94 209.29 365.42 209.68 365.06C210.06 364.69 210.42 364.42 210.74 364.23C211.06 364.05 211.34 363.94 211.57 363.9C211.8 363.86 211.97 363.84 212.06 363.84H216.26V378.34H212.24V375.27H207.79ZM212.32 372.65V367.19L209.27 372.65H212.32Z" fill="#FF0000"/>
<path d="M222.85 374.47C223.02 374.68 223.19 374.8 223.37 374.84C224.47 375.01 225.56 375.05 226.64 374.98C227.71 374.9 228.79 374.75 229.86 374.53L228.83 378.12C227.39 378.37 226.01 378.51 224.69 378.55C223.37 378.59 222.04 378.51 220.71 378.32C219.57 378.18 218.79 377.68 218.37 376.83C217.95 375.98 217.93 374.82 218.32 373.34C218.33 373.26 218.35 373.17 218.38 373.07C218.41 372.97 218.45 372.8 218.52 372.57C218.58 372.34 218.67 372.03 218.78 371.63C218.89 371.23 219.05 370.69 219.25 370.01C219.45 369.33 219.71 368.49 220.02 367.48C220.33 366.47 220.71 365.26 221.15 363.84H225.48L223.03 371.94C222.97 372.28 222.89 372.6 222.81 372.91C222.73 373.22 222.67 373.54 222.64 373.88C222.61 374.06 222.68 374.26 222.85 374.46V374.47Z" fill="#FF0000"/>
<path d="M243.2 375.27L241.45 378.34H236.88L243.91 366.6C244.31 365.94 244.7 365.42 245.09 365.06C245.47 364.69 245.82 364.42 246.15 364.23C246.47 364.05 246.75 363.94 246.99 363.9C247.22 363.86 247.38 363.84 247.48 363.84H251.68V378.34H247.66V375.27H243.21H243.2ZM247.73 372.65V367.19L244.68 372.65H247.73Z" fill="#FF0000"/>
<path d="M258.25 374.47C258.42 374.68 258.59 374.8 258.77 374.84C259.87 375.01 260.96 375.05 262.04 374.98C263.11 374.9 264.19 374.75 265.26 374.53L264.23 378.12C262.79 378.37 261.41 378.51 260.09 378.55C258.77 378.59 257.44 378.51 256.11 378.32C254.97 378.18 254.19 377.68 253.77 376.83C253.35 375.98 253.33 374.82 253.72 373.34C253.73 373.26 253.75 373.17 253.78 373.07C253.81 372.97 253.85 372.8 253.92 372.57C253.98 372.34 254.07 372.03 254.18 371.63C254.29 371.23 254.45 370.69 254.65 370.01C254.85 369.33 255.11 368.49 255.42 367.48C255.73 366.47 256.11 365.26 256.55 363.84H260.88L258.43 371.94C258.37 372.28 258.29 372.6 258.21 372.91C258.13 373.22 258.07 373.54 258.04 373.88C258.01 374.06 258.08 374.26 258.25 374.46V374.47Z" fill="#FF0000"/>
<path d="M270.68 374.53C270.82 374.67 270.98 374.76 271.18 374.8C272.27 374.96 273.35 375.03 274.43 375.02C275.51 375.01 276.58 374.91 277.65 374.7L276.62 378.29C273.93 378.7 271.23 378.76 268.52 378.47C267.91 378.41 267.42 378.2 267.03 377.87C266.64 377.54 266.36 377.13 266.17 376.65C265.97 376.17 265.86 375.65 265.82 375.1C265.78 374.54 265.81 374.02 265.9 373.53C266 372.99 266.13 372.36 266.29 371.66C266.45 370.96 266.64 370.25 266.88 369.53C267.12 368.81 267.4 368.11 267.72 367.42C268.04 366.73 268.43 366.12 268.88 365.58C269.33 365.04 269.84 364.61 270.41 364.29C270.98 363.97 271.63 363.8 272.35 363.8H280.94L279.89 367.28H273.46C273.27 367.28 273.08 367.34 272.92 367.45C272.75 367.56 272.62 367.7 272.53 367.87C271.99 368.82 271.55 369.81 271.21 370.85C270.87 371.89 270.65 372.96 270.53 374.05C270.5 374.23 270.56 374.39 270.7 374.54L270.68 374.53Z" fill="#FF0000"/>
<path d="M284.35 375.27L282.6 378.34H278.03L285.06 366.6C285.46 365.94 285.85 365.42 286.24 365.06C286.62 364.69 286.97 364.42 287.3 364.23C287.62 364.05 287.9 363.94 288.14 363.9C288.37 363.86 288.53 363.84 288.63 363.84H292.83V378.34H288.81V375.27H284.36H284.35ZM288.88 372.65V367.19L285.83 372.65H288.88Z" fill="#FF0000"/>
<path d="M306.25 372.26L308.82 363.87H312.98L308.65 378.35H303.48L301.44 368.28L298.41 378.35H294.12L298.47 363.87H302.82C303.05 363.87 303.29 363.91 303.52 363.98C303.75 364.05 303.97 364.15 304.16 364.29C304.35 364.43 304.52 364.58 304.66 364.77C304.8 364.95 304.89 365.16 304.94 365.39L306.26 372.27L306.25 372.26Z" fill="#FF0000"/>
<path d="M317.14 374.53C317.28 374.67 317.44 374.76 317.64 374.8C318.73 374.96 319.81 375.03 320.89 375.02C321.97 375.01 323.04 374.91 324.11 374.7L323.08 378.29C320.39 378.7 317.69 378.76 314.98 378.47C314.37 378.41 313.88 378.2 313.49 377.87C313.1 377.54 312.82 377.13 312.63 376.65C312.43 376.17 312.32 375.65 312.28 375.1C312.24 374.54 312.27 374.02 312.36 373.53C312.46 372.99 312.59 372.36 312.75 371.66C312.91 370.96 313.1 370.25 313.34 369.53C313.58 368.81 313.86 368.11 314.18 367.42C314.5 366.73 314.89 366.12 315.34 365.58C315.79 365.04 316.3 364.61 316.87 364.29C317.44 363.97 318.09 363.8 318.81 363.8H327.4L326.35 367.28H319.92C319.73 367.28 319.54 367.34 319.38 367.45C319.21 367.56 319.08 367.7 318.99 367.87C318.45 368.82 318.01 369.81 317.67 370.85C317.33 371.89 317.11 372.96 316.99 374.05C316.96 374.23 317.02 374.39 317.16 374.54L317.14 374.53Z" fill="#FF0000"/>
<path d="M337.34 372.26H331.86C331.8 372.56 331.72 372.86 331.63 373.15C331.54 373.45 331.47 373.75 331.44 374.04C331.41 374.22 331.47 374.4 331.62 374.56C331.76 374.73 331.92 374.83 332.11 374.85C333.21 375.02 334.32 375.09 335.43 375.05C336.54 375.02 337.64 374.9 338.71 374.69L337.68 378.28C334.98 378.69 332.28 378.75 329.56 378.46C328.95 378.4 328.46 378.19 328.07 377.86C327.69 377.52 327.4 377.12 327.2 376.64C327.01 376.16 326.89 375.64 326.86 375.09C326.83 374.53 326.86 374.01 326.95 373.52C327.13 372.54 327.37 371.57 327.66 370.61C327.95 369.65 328.3 368.73 328.7 367.82C328.52 367.88 328.33 367.94 328.13 367.98C327.93 368.02 327.72 368.07 327.51 368.14C327.3 368.2 327.08 368.3 326.85 368.42C326.62 368.54 326.39 368.73 326.16 368.97C326.12 369.01 326.09 369.03 326.06 369.03C326 369.07 325.92 369.07 325.85 369.03C325.77 369 325.75 368.94 325.79 368.86C326.18 368.11 326.62 367.42 327.12 366.8C327.62 366.18 328.18 365.64 328.8 365.2C329.42 364.75 330.11 364.41 330.87 364.16C331.63 363.91 332.47 363.79 333.39 363.79H341.75L340.7 367.27H334.52C334.25 367.27 334.02 367.35 333.85 367.52C333.67 367.69 333.53 367.89 333.4 368.12C333.28 368.35 333.17 368.6 333.08 368.85C332.99 369.1 332.88 369.31 332.77 369.48C332.89 369.47 333.02 369.46 333.19 369.45C333.35 369.45 333.61 369.45 333.98 369.45C334.35 369.45 334.88 369.45 335.54 369.45C336.21 369.45 337.1 369.45 338.21 369.45L337.36 372.23L337.34 372.26Z" fill="#FF0000"/>
<path d="M347.02 378.36L351.28 363.84H359.21C359.83 363.84 360.43 363.93 361.01 364.1C361.59 364.28 362.1 364.59 362.54 365.04C362.8 365.31 363 365.63 363.14 365.99C363.28 366.35 363.35 366.73 363.35 367.12C363.35 367.38 363.31 367.74 363.23 368.19C363.15 368.64 363.05 369.15 362.91 369.71C362.78 370.27 362.62 370.85 362.45 371.46C362.28 372.07 362.11 372.65 361.93 373.19C361.75 373.73 361.57 374.22 361.4 374.66C361.23 375.09 361.08 375.41 360.93 375.62C360.7 375.97 360.44 376.31 360.15 376.64C359.86 376.97 359.55 377.26 359.22 377.51C358.88 377.76 358.52 377.96 358.14 378.11C357.76 378.26 357.36 378.33 356.94 378.33L347.01 378.35L347.02 378.36ZM354.99 375.39C355.34 375.39 355.63 375.37 355.87 375.34C356.11 375.31 356.31 375.25 356.47 375.17C356.63 375.09 356.77 374.99 356.88 374.86C356.99 374.73 357.1 374.57 357.22 374.37C357.29 374.25 357.38 374.03 357.51 373.7C357.64 373.37 357.78 372.99 357.94 372.55C358.1 372.11 358.25 371.66 358.41 371.17C358.57 370.68 358.71 370.22 358.84 369.78C358.97 369.34 359.08 368.95 359.16 368.6C359.24 368.25 359.29 368.01 359.29 367.85C359.29 367.69 359.26 367.53 359.2 367.36C359.14 367.19 359.06 367.04 358.96 366.9C358.86 366.76 358.73 366.65 358.59 366.57C358.45 366.49 358.29 366.44 358.1 366.44H354.78L352.21 375.36H354.99V375.39Z" fill="#FF0000"/>
<path d="M374.8 372.26H369.32C369.26 372.56 369.18 372.86 369.09 373.15C369 373.45 368.93 373.75 368.9 374.04C368.87 374.22 368.93 374.4 369.07 374.56C369.21 374.72 369.37 374.83 369.56 374.85C370.66 375.02 371.77 375.09 372.88 375.05C373.99 375.02 375.09 374.9 376.16 374.69L375.13 378.28C372.43 378.69 369.73 378.75 367.01 378.46C366.4 378.4 365.91 378.19 365.52 377.86C365.14 377.52 364.85 377.12 364.66 376.64C364.47 376.16 364.35 375.64 364.32 375.09C364.29 374.53 364.32 374.01 364.41 373.52C364.59 372.54 364.83 371.57 365.12 370.61C365.41 369.66 365.76 368.73 366.16 367.82C365.98 367.88 365.79 367.94 365.59 367.98C365.39 368.02 365.18 368.07 364.97 368.14C364.76 368.2 364.54 368.3 364.31 368.42C364.08 368.54 363.85 368.73 363.62 368.97C363.58 369.01 363.55 369.03 363.52 369.03C363.45 369.07 363.38 369.07 363.31 369.03C363.24 368.99 363.21 368.94 363.25 368.86C363.64 368.11 364.08 367.42 364.58 366.8C365.08 366.18 365.64 365.64 366.26 365.2C366.88 364.75 367.57 364.41 368.33 364.16C369.09 363.91 369.93 363.79 370.85 363.79H379.21L378.16 367.27H371.98C371.71 367.27 371.48 367.35 371.31 367.52C371.14 367.69 370.99 367.89 370.86 368.12C370.74 368.35 370.63 368.6 370.54 368.85C370.45 369.1 370.35 369.31 370.23 369.48C370.35 369.47 370.49 369.46 370.65 369.45C370.81 369.45 371.07 369.45 371.44 369.45C371.81 369.45 372.34 369.45 373 369.45C373.67 369.45 374.56 369.45 375.67 369.45L374.81 372.23L374.8 372.26Z" fill="#FF0000"/>
<path d="M398.36 367.28H394.74L391.4 378.34H387.01L390.39 367.28C389.38 367.25 388.56 367.28 387.93 367.35C387.3 367.42 386.79 367.53 386.39 367.69C386 367.85 385.68 368.03 385.45 368.25C385.22 368.47 385 368.71 384.79 368.97C384.72 369.05 384.64 369.07 384.55 369.05C384.45 369.02 384.42 368.97 384.44 368.88C384.87 368.06 385.29 367.34 385.7 366.7C386.11 366.07 386.6 365.53 387.15 365.1C387.7 364.67 388.36 364.34 389.11 364.12C389.87 363.9 390.81 363.8 391.94 363.81V363.85H399.4L398.35 367.29L398.36 367.28Z" fill="#FF0000"/>
<path d="M412.66 371.38C412.27 372.81 411.77 374.23 411.16 375.63C410.84 376.34 410.36 376.93 409.72 377.38C409.09 377.83 408.39 378.13 407.64 378.25C407.03 378.35 406.43 378.43 405.82 378.48C405.22 378.53 404.61 378.56 404 378.56C403.56 378.56 403.1 378.56 402.62 378.53C402.14 378.5 401.67 378.46 401.2 378.37C400.73 378.29 400.3 378.16 399.89 378C399.48 377.84 399.13 377.62 398.83 377.34C398.53 377.06 398.31 376.72 398.16 376.31C398.01 375.9 397.96 375.41 398.01 374.82C398.08 374.15 398.19 373.45 398.35 372.73C398.51 372.01 398.7 371.3 398.91 370.58C399.12 369.87 399.35 369.17 399.6 368.49C399.85 367.81 400.09 367.17 400.34 366.58C400.47 366.26 400.69 365.93 400.99 365.59C401.29 365.25 401.71 364.95 402.25 364.67C402.79 364.39 403.46 364.17 404.28 363.99C405.1 363.81 406.08 363.73 407.23 363.73C407.8 363.73 408.42 363.74 409.09 363.77C409.76 363.8 410.39 363.89 410.99 364.06C411.59 364.23 412.13 364.5 412.59 364.87C413.06 365.24 413.37 365.77 413.54 366.47V366.99C413.32 368.48 413.01 369.94 412.63 371.37L412.66 371.38ZM408.17 371.19C408.52 370.11 408.8 369 409.03 367.88C409.09 367.58 409.06 367.35 408.93 367.17C408.8 367 408.62 366.87 408.39 366.78C408.16 366.7 407.91 366.64 407.64 366.61C407.37 366.58 407.14 366.57 406.94 366.57C406.72 366.57 406.48 366.58 406.22 366.61C405.96 366.64 405.71 366.69 405.47 366.78C405.23 366.86 405.01 366.98 404.82 367.13C404.62 367.28 404.48 367.48 404.39 367.72C404 368.73 403.64 369.77 403.3 370.85C402.96 371.93 402.68 373.01 402.44 374.11C402.38 374.37 402.37 374.6 402.44 374.8C402.5 375 402.6 375.17 402.74 375.31C402.88 375.45 403.06 375.55 403.28 375.61C403.5 375.67 403.74 375.69 404 375.67C404.25 375.67 404.53 375.67 404.85 375.64C405.17 375.62 405.47 375.57 405.76 375.49C406.05 375.41 406.31 375.29 406.53 375.12C406.75 374.95 406.89 374.72 406.96 374.42C407.41 373.34 407.82 372.27 408.17 371.18V371.19Z" fill="#FF0000"/>
<path d="M412.44 378.36L416.7 363.84H424.63C425.25 363.84 425.85 363.93 426.43 364.1C427.01 364.28 427.51 364.59 427.96 365.04C428.22 365.31 428.42 365.63 428.56 365.99C428.7 366.35 428.77 366.73 428.77 367.12C428.77 367.38 428.73 367.74 428.65 368.19C428.57 368.64 428.47 369.15 428.33 369.71C428.19 370.27 428.04 370.85 427.87 371.46C427.7 372.07 427.53 372.65 427.35 373.19C427.17 373.73 426.99 374.22 426.82 374.66C426.65 375.1 426.5 375.41 426.35 375.62C426.12 375.97 425.86 376.31 425.57 376.64C425.28 376.97 424.97 377.26 424.64 377.51C424.3 377.76 423.94 377.96 423.56 378.11C423.18 378.26 422.78 378.33 422.37 378.33L412.44 378.35V378.36ZM420.41 375.39C420.76 375.39 421.05 375.37 421.29 375.34C421.53 375.31 421.73 375.25 421.89 375.17C422.05 375.09 422.19 374.99 422.3 374.86C422.41 374.73 422.52 374.57 422.64 374.37C422.7 374.25 422.8 374.03 422.93 373.7C423.06 373.37 423.2 372.99 423.36 372.55C423.52 372.12 423.67 371.66 423.83 371.17C423.99 370.68 424.13 370.22 424.26 369.78C424.39 369.34 424.5 368.95 424.58 368.6C424.66 368.25 424.71 368.01 424.71 367.85C424.71 367.69 424.68 367.53 424.62 367.36C424.56 367.19 424.48 367.04 424.38 366.9C424.28 366.76 424.15 366.65 424.01 366.57C423.87 366.49 423.71 366.44 423.52 366.44H420.2L417.63 375.36H420.41V375.39Z" fill="#FF0000"/>
<path d="M443.16 371.38C442.77 372.81 442.27 374.23 441.66 375.63C441.34 376.34 440.86 376.93 440.22 377.38C439.58 377.83 438.89 378.13 438.14 378.25C437.53 378.35 436.93 378.43 436.32 378.48C435.72 378.53 435.11 378.56 434.5 378.56C434.06 378.56 433.6 378.56 433.12 378.53C432.64 378.51 432.17 378.46 431.7 378.37C431.23 378.29 430.8 378.16 430.39 378C429.98 377.84 429.63 377.62 429.33 377.34C429.03 377.06 428.81 376.72 428.66 376.31C428.51 375.9 428.46 375.41 428.51 374.82C428.58 374.15 428.69 373.45 428.85 372.73C429.01 372.01 429.2 371.3 429.41 370.58C429.62 369.87 429.85 369.17 430.1 368.49C430.35 367.81 430.59 367.17 430.84 366.58C430.97 366.26 431.19 365.93 431.49 365.59C431.79 365.25 432.22 364.95 432.75 364.67C433.29 364.39 433.96 364.17 434.78 363.99C435.6 363.81 436.58 363.73 437.73 363.73C438.3 363.73 438.92 363.74 439.59 363.77C440.26 363.8 440.89 363.89 441.49 364.06C442.09 364.23 442.63 364.5 443.09 364.87C443.56 365.24 443.87 365.77 444.04 366.47V366.99C443.82 368.48 443.52 369.94 443.13 371.37L443.16 371.38ZM438.67 371.19C439.02 370.11 439.3 369 439.52 367.88C439.58 367.58 439.55 367.35 439.42 367.17C439.29 367 439.11 366.87 438.88 366.78C438.65 366.7 438.4 366.64 438.13 366.61C437.86 366.58 437.63 366.57 437.43 366.57C437.21 366.57 436.97 366.58 436.71 366.61C436.45 366.64 436.2 366.69 435.96 366.78C435.72 366.86 435.5 366.98 435.31 367.13C435.12 367.28 434.97 367.48 434.88 367.72C434.49 368.73 434.13 369.77 433.79 370.85C433.45 371.93 433.17 373.01 432.94 374.11C432.87 374.37 432.87 374.6 432.94 374.8C433 375 433.1 375.17 433.24 375.31C433.38 375.45 433.56 375.55 433.78 375.61C434 375.67 434.24 375.69 434.5 375.67C434.75 375.67 435.03 375.67 435.35 375.64C435.67 375.62 435.97 375.57 436.26 375.49C436.55 375.41 436.81 375.29 437.03 375.12C437.25 374.95 437.39 374.72 437.46 374.42C437.91 373.34 438.31 372.27 438.67 371.18V371.19Z" fill="#FF0000"/>
<path d="M444.99 374.94H450.7C451.09 374.94 451.46 374.92 451.81 374.87C452.16 374.83 452.46 374.74 452.72 374.61C452.98 374.48 453.15 374.28 453.24 374.01C453.34 373.67 453.35 373.44 453.27 373.31C453.19 373.18 453.01 373.04 452.74 372.9C452.51 372.91 452.22 372.92 451.88 372.92C451.54 372.92 451.18 372.92 450.8 372.89C450.42 372.87 450.03 372.84 449.63 372.79C449.23 372.75 448.87 372.67 448.54 372.58C448.21 372.48 447.92 372.36 447.67 372.22C447.42 372.08 447.26 371.9 447.16 371.68C447.06 371.45 446.95 371.19 446.85 370.9C446.75 370.62 446.67 370.31 446.61 369.99C446.55 369.67 446.53 369.32 446.55 368.96C446.57 368.6 446.64 368.23 446.77 367.85C446.41 367.99 446.08 368.16 445.79 368.35C445.5 368.54 445.25 368.75 445.06 369C445.02 369.04 444.99 369.06 444.96 369.06C444.9 369.1 444.82 369.1 444.75 369.06C444.67 369.03 444.65 368.97 444.67 368.89C445.1 368.07 445.52 367.35 445.95 366.71C446.38 366.07 446.87 365.54 447.43 365.11C447.99 364.68 448.65 364.35 449.41 364.12C450.17 363.89 451.12 363.79 452.25 363.8H459.36L458.53 367.28L452.29 367.3C451.84 367.35 451.44 367.44 451.11 367.57C450.78 367.7 450.55 367.91 450.42 368.21C450.28 368.53 450.25 368.8 450.33 369.02C450.41 369.24 450.58 369.4 450.83 369.52C450.93 369.57 451.04 369.61 451.14 369.63C451.24 369.65 451.37 369.66 451.51 369.67C451.65 369.67 451.82 369.67 452.01 369.67H452.71C453.86 369.67 454.75 369.76 455.37 369.94C455.99 370.12 456.46 370.43 456.77 370.87C457.02 371.21 457.15 371.66 457.18 372.24C457.21 372.82 457.11 373.42 456.89 374.04C456.63 374.83 456.28 375.56 455.85 376.23C455.42 376.9 454.83 377.41 454.09 377.76C453.64 377.98 453.04 378.13 452.3 378.22C451.56 378.3 450.61 378.35 449.44 378.35H444.12L444.96 374.95L444.99 374.94Z" fill="#FF0000"/>
<path d="M461.62 365.04C461.17 366.67 460.34 368.75 459.81 369.64L458.72 369.78C459.13 368.63 459.65 366.61 459.87 365.22L461.62 365.05V365.04ZM464.5 365.04C464.05 366.67 463.22 368.75 462.69 369.64L461.6 369.78C462.03 368.63 462.53 366.61 462.75 365.22L464.5 365.05V365.04Z" fill="#FF0000"/>
<path d="M136.5 255.5C196.47 201.65 281.17 192.38 349.64 236.05C358.82 241.83 367.52 248.25 375.5 255.5C365.72 250.97 356.08 246.51 346.3 242.58C270.41 211.09 208.76 220.11 136.5 255.5Z" fill="#005DA1"/>
</svg>
