<svg width="750" height="287" viewBox="0 0 750 287" fill="none" xmlns="http://www.w3.org/2000/svg">
<path d="M1618.83 248.629L1620.1 0.989258C1256.34 178.189 821.8 61.6992 513.09 31.7292C146.55 -3.85075 41.8299 143.199 -449.57 119.489C-614.36 111.539 -729.39 86.5392 -809.59 56.8192V248.629C-809.59 266.389 -786.67 280.929 -758.66 280.929H1567.9C1595.91 280.929 1618.83 266.389 1618.83 248.629Z" fill="#93C8FD"/>
<path d="M-809.6 272.349V25.9795C-445.84 203.179 -12.5601 85.4195 296.15 55.4595C662.69 19.8795 767.41 166.929 1258.81 143.219C1423.6 135.269 1539.9 109 1620.09 79.2896L1618.82 272.37C1618.82 290.13 1595.9 304.67 1567.89 304.67H-758.66C-786.67 304.67 -809.59 290.13 -809.59 272.37L-809.6 272.349Z" fill="#FF0000"/>
<path d="M1620.09 309.099V59.5293C1256.33 236.729 821.79 120.239 513.08 90.2693C146.54 54.6893 41.8199 201.739 -449.58 178.029C-614.36 170.079 -729.4 145.079 -809.59 115.359V309.099C-809.59 309.099 1620.1 308.489 1620.1 309.099H1620.09Z" fill="white"/>
</svg>
