<svg width="891" height="365" viewBox="0 0 891 365" fill="none" xmlns="http://www.w3.org/2000/svg">
<path d="M428.1 67.08V1.54004H444.96C450.14 1.54004 454.25 1.92004 457.3 2.67004C460.34 3.42004 463.04 4.69003 465.39 6.47003C467.83 8.25003 469.72 10.47 471.06 13.14C472.4 15.81 473.07 18.63 473.07 21.61C473.07 28.24 470.71 33.5 466 37.38C461.28 41.27 454.89 43.21 446.81 43.21C445.97 43.21 445.33 43.21 444.91 43.19C444.49 43.18 444.1 43.15 443.73 43.12V67.08H428.09H428.1ZM445.86 13.56H443.74V31.05H446.59C450.54 31.05 453.55 30.29 455.63 28.77C457.71 27.25 458.75 25.06 458.75 22.19C458.75 19.32 457.73 17.02 455.68 15.64C453.63 14.25 450.36 13.56 445.87 13.56H445.86Z" fill="white"/>
<path d="M470.75 46.69C470.75 40.21 472.87 34.88 477.1 30.69C481.33 26.5 486.69 24.41 493.17 24.41C499.65 24.41 505.06 26.5 509.3 30.69C513.55 34.88 515.67 40.21 515.67 46.69C515.67 53.17 513.55 58.51 509.3 62.71C505.05 66.91 499.67 69.01 493.17 69.01C486.67 69.01 481.37 66.91 477.12 62.71C472.87 58.51 470.75 53.17 470.75 46.69ZM485.21 46.69C485.21 50.16 485.96 52.95 487.45 55.07C488.94 57.19 490.85 58.26 493.17 58.26C495.49 58.26 497.4 57.19 498.89 55.05C500.38 52.91 501.13 50.12 501.13 46.69C501.13 43.26 500.38 40.51 498.89 38.35C497.4 36.2 495.49 35.12 493.17 35.12C490.85 35.12 488.94 36.19 487.45 38.33C485.96 40.47 485.21 43.26 485.21 46.69Z" fill="white"/>
<path d="M521.5 65.22V54.01C525.09 56.3 527.87 57.84 529.86 58.64C531.85 59.44 533.69 59.84 535.37 59.84C536.85 59.84 538.04 59.52 538.94 58.87C539.84 58.22 540.3 57.37 540.3 56.32C540.3 55.42 539.98 54.66 539.35 54.06C538.72 53.46 537.63 52.89 536.1 52.34L530.86 50.49C527.43 49.31 524.82 47.66 523.04 45.54C521.26 43.42 520.37 40.91 520.37 38.01C520.37 33.91 521.8 30.62 524.66 28.13C527.52 25.64 531.33 24.4 536.1 24.4C538.3 24.4 540.63 24.71 543.08 25.33C545.53 25.95 548.27 26.9 551.28 28.2L549.52 38.1C547.71 36.56 545.74 35.36 543.6 34.48C541.46 33.61 539.46 33.17 537.59 33.17C536.2 33.17 535.07 33.49 534.2 34.14C533.33 34.79 532.89 35.61 532.89 36.6C532.89 37.44 533.14 38.11 533.64 38.61C534.14 39.11 535.24 39.64 536.96 40.21L541.84 41.97C545.67 43.33 548.4 44.97 550.04 46.9C551.68 48.83 552.5 51.35 552.5 54.45C552.5 58.94 551.02 62.49 548.07 65.09C545.12 67.7 541.09 69 536 69C533.53 69 531.1 68.69 528.7 68.07C526.31 67.45 523.9 66.5 521.49 65.2L521.5 65.22Z" fill="white"/>
<path d="M598.97 26.35V63.28C598.97 67.02 598.79 69.83 598.43 71.71C598.07 73.59 597.48 75.32 596.67 76.89C594.98 80.14 592.53 82.61 589.3 84.28C586.07 85.95 582.17 86.79 577.59 86.79C574.85 86.79 572.07 86.49 569.25 85.89C566.43 85.29 563.44 84.35 560.28 83.09L560.1 71.79C563.11 73.42 565.85 74.61 568.33 75.38C570.8 76.15 573.12 76.53 575.29 76.53C578.45 76.53 580.91 75.78 582.66 74.27C584.41 72.76 585.28 70.64 585.28 67.9V65.14C583.65 66.16 582.04 66.92 580.44 67.4C578.84 67.88 577.16 68.12 575.38 68.12C569.62 68.12 564.98 66.19 561.43 62.33C557.89 58.47 556.12 53.4 556.12 47.1C556.12 40.8 558.12 35.14 562.13 30.85C566.14 26.56 571.2 24.41 577.32 24.41C578.74 24.41 580.21 24.61 581.75 25C583.29 25.39 584.99 25.99 586.86 26.81L598.97 26.36V26.35ZM584.78 36.7C583.94 36.22 583.13 35.87 582.36 35.66C581.59 35.45 580.83 35.34 580.08 35.34C577.4 35.34 575.14 36.46 573.3 38.71C571.46 40.96 570.54 43.78 570.54 47.18C570.54 50.37 571.35 53.03 572.96 55.16C574.57 57.28 576.54 58.35 578.86 58.35C579.76 58.35 580.72 58.09 581.73 57.58C582.74 57.07 583.76 56.31 584.78 55.32V36.7Z" fill="white"/>
<path d="M621.74 67.08H607.5V26.36H620.74L621.01 33.5001C622.64 30.6401 624.54 28.5601 626.73 27.2601C628.91 25.9601 631.63 25.3201 634.89 25.3201H636.02V40.5101H632.95C628.52 40.5101 625.54 41.0101 624.02 42.0201C622.5 43.0301 621.74 45.4601 621.74 49.3201V67.08Z" fill="white"/>
<path d="M681.57 26.35V51.8C681.57 54.99 681.63 57.68 681.75 59.85C681.87 62.02 682.05 63.87 682.29 65.41L669.14 69.03L667.87 65.14C666.09 66.47 664.35 67.44 662.65 68.08C660.95 68.71 659.16 69.03 657.29 69.03C652.05 69.03 647.64 66.94 644.07 62.75C640.5 58.56 638.71 53.35 638.71 47.11C638.71 40.54 640.71 35.12 644.72 30.84C648.73 26.56 653.79 24.42 659.91 24.42C661.33 24.42 662.8 24.62 664.34 25.01C665.88 25.4 667.58 26 669.45 26.82L681.56 26.37L681.57 26.35ZM667.38 36.7C666.54 36.22 665.73 35.87 664.96 35.66C664.19 35.45 663.43 35.34 662.68 35.34C660 35.34 657.74 36.46 655.9 38.71C654.06 40.96 653.14 43.78 653.14 47.18C653.14 50.37 653.95 53.03 655.56 55.16C657.17 57.28 659.14 58.35 661.46 58.35C662.39 58.35 663.35 58.1 664.33 57.6C665.31 57.1 666.33 56.34 667.38 55.32V36.7Z" fill="white"/>
<path d="M730.47 0.630005V67.07L718.04 69.01L717.5 65.85C715.51 66.93 713.55 67.73 711.62 68.25C709.69 68.76 707.73 69.02 705.74 69.02C700.05 69.02 695.6 67.14 692.41 63.37C689.21 59.6 687.62 54.39 687.62 47.73C687.62 40.74 689.5 35.14 693.25 30.92C697 26.7 701.96 24.59 708.14 24.59C709.59 24.59 710.97 24.73 712.3 25.02C713.63 25.31 714.95 25.75 716.28 26.35V2.57999L730.47 0.640015V0.630005ZM716.28 36.7C715.44 36.22 714.63 35.87 713.86 35.66C713.09 35.45 712.33 35.34 711.58 35.34C708.9 35.34 706.64 36.46 704.8 38.71C702.96 40.96 702.04 43.78 702.04 47.18C702.04 50.37 702.85 53.03 704.46 55.16C706.07 57.28 708.04 58.35 710.36 58.35C711.26 58.35 712.21 58.16 713.19 57.79C714.17 57.42 715.2 56.83 716.29 56.05V36.7H716.28Z" fill="white"/>
<path d="M736.29 46.69C736.29 40.21 738.41 34.88 742.64 30.69C746.87 26.5 752.23 24.41 758.71 24.41C765.19 24.41 770.6 26.5 774.85 30.69C779.1 34.88 781.22 40.21 781.22 46.69C781.22 53.17 779.1 58.51 774.85 62.71C770.6 66.91 765.22 69.01 758.71 69.01C752.2 69.01 746.91 66.91 742.66 62.71C738.41 58.51 736.29 53.17 736.29 46.69ZM750.75 46.69C750.75 50.16 751.5 52.95 752.99 55.07C754.48 57.19 756.39 58.26 758.71 58.26C761.03 58.26 762.94 57.19 764.43 55.05C765.92 52.91 766.67 50.12 766.67 46.69C766.67 43.26 765.92 40.51 764.43 38.35C762.94 36.2 761.03 35.12 758.71 35.12C756.39 35.12 754.48 36.19 752.99 38.33C751.5 40.47 750.75 43.26 750.75 46.69Z" fill="white"/>
<path d="M787.04 65.22V54.01C790.63 56.3 793.41 57.84 795.4 58.64C797.39 59.44 799.23 59.84 800.91 59.84C802.39 59.84 803.58 59.52 804.48 58.87C805.38 58.22 805.84 57.37 805.84 56.32C805.84 55.42 805.52 54.66 804.89 54.06C804.26 53.46 803.17 52.89 801.64 52.34L796.4 50.49C792.97 49.31 790.36 47.66 788.58 45.54C786.8 43.42 785.91 40.91 785.91 38.01C785.91 33.91 787.34 30.62 790.2 28.13C793.06 25.64 796.87 24.4 801.64 24.4C803.84 24.4 806.17 24.71 808.62 25.33C811.07 25.95 813.81 26.9 816.82 28.2L815.06 38.1C813.25 36.56 811.28 35.36 809.14 34.48C807 33.61 805 33.17 803.13 33.17C801.74 33.17 800.61 33.49 799.74 34.14C798.86 34.79 798.43 35.61 798.43 36.6C798.43 37.44 798.68 38.11 799.18 38.61C799.68 39.11 800.78 39.64 802.5 40.21L807.38 41.97C811.21 43.33 813.94 44.97 815.58 46.9C817.22 48.83 818.04 51.35 818.04 54.45C818.04 58.94 816.56 62.49 813.61 65.09C810.66 67.7 806.63 69 801.54 69C799.07 69 796.64 68.69 794.24 68.07C791.84 67.45 789.44 66.5 787.03 65.2L787.04 65.22Z" fill="white"/>
<path d="M859.58 58.59L858.66 65.89C857.04 66.66 855.45 67.23 853.89 67.6C852.32 67.97 850.74 68.15 849.14 68.15C845.18 68.15 841.99 67.01 839.57 64.73C837.14 62.45 835.93 59.49 835.93 55.83C835.93 52.17 837.26 48.79 839.91 46.17C842.56 43.54 845.79 42.23 849.59 42.23C852.84 42.23 855.51 43.19 857.59 45.12C859.67 47.05 860.71 49.54 860.71 52.6C860.71 53.07 860.67 53.83 860.6 54.87L860.57 55.03L859.83 56.11L843.61 56.56C843.73 58.16 844.4 59.46 845.61 60.45C846.82 61.44 848.35 61.94 850.2 61.94C851.5 61.94 852.95 61.66 854.54 61.1C856.13 60.54 857.81 59.7 859.56 58.6L859.58 58.59ZM843.81 52.97L854.12 52.65V52.28C854.12 51.03 853.68 50.01 852.8 49.21C851.92 48.41 850.81 48.01 849.48 48.01C847.99 48.01 846.74 48.44 845.74 49.32C844.74 50.19 844.1 51.41 843.82 52.97H843.81Z" fill="white"/>
<path d="M873.71 67.08H865.46V43.32H873.08V47.3C874.35 45.74 875.69 44.57 877.11 43.81C878.53 43.05 880.08 42.66 881.75 42.66C884.26 42.66 886.17 43.38 887.47 44.82C888.77 46.26 889.42 48.37 889.42 51.15V67.08H881.22V53.47C881.22 52.22 880.97 51.28 880.46 50.65C879.95 50.02 879.19 49.7 878.19 49.7C876.75 49.7 875.64 50.18 874.87 51.15C874.1 52.12 873.71 53.52 873.71 55.37V67.08Z" fill="white"/>
<path d="M0.640137 165.08L42.1401 81.13H43.3801L83.9801 165.08H63.6501L58.4801 153.23H25.4601L20.1801 165.08H0.640137ZM31.0701 139.19H52.4601L41.9001 113.7L31.0601 139.19H31.0701Z" fill="white"/>
<path d="M140.76 82.53V165.07L125.32 167.48L124.65 163.55C122.18 164.9 119.74 165.89 117.35 166.53C114.95 167.17 112.52 167.48 110.05 167.48C102.97 167.48 97.4502 165.14 93.4802 160.46C89.5102 155.78 87.5303 149.3 87.5303 141.03C87.5303 132.35 89.8603 125.38 94.5203 120.14C99.1803 114.9 105.35 112.28 113.02 112.28C114.82 112.28 116.54 112.46 118.19 112.81C119.84 113.17 121.48 113.72 123.13 114.47V84.93L140.76 82.51V82.53ZM123.13 127.34C122.08 126.74 121.08 126.31 120.13 126.05C119.17 125.79 118.23 125.66 117.29 125.66C113.96 125.66 111.15 127.06 108.87 129.84C106.59 132.63 105.44 136.14 105.44 140.37C105.44 144.34 106.44 147.64 108.44 150.28C110.44 152.92 112.88 154.24 115.77 154.24C116.89 154.24 118.06 154.01 119.28 153.54C120.5 153.07 121.78 152.35 123.13 151.38V127.35V127.34Z" fill="white"/>
<path d="M205.86 165.08H188.28V136.11C188.28 133.53 187.73 131.54 186.62 130.16C185.51 128.78 183.95 128.08 181.93 128.08C179.05 128.08 176.79 129.13 175.16 131.22C173.53 133.31 172.72 136.29 172.72 140.15V165.08H155.14V114.49H171.48V122.97C174.4 119.53 177.29 117.02 180.16 115.45C183.02 113.88 186.14 113.09 189.51 113.09C193.22 113.09 196.28 113.86 198.69 115.39C201.1 116.93 203.15 119.38 204.84 122.75C207.31 119.53 210.02 117.12 212.96 115.51C215.9 113.9 219.09 113.09 222.53 113.09C228.15 113.09 232.29 114.67 234.97 117.84C237.65 121 238.98 125.9 238.98 132.52V165.09H221.4V136.12C221.4 133.54 220.85 131.55 219.74 130.17C218.64 128.79 217.07 128.09 215.05 128.09C212.13 128.09 209.86 129.14 208.26 131.23C206.66 133.32 205.85 136.3 205.85 140.16V165.09L205.86 165.08Z" fill="white"/>
<path d="M251.48 95.62C251.48 92.92 252.41 90.64 254.29 88.77C256.16 86.9 258.45 85.96 261.14 85.96C263.83 85.96 266.17 86.89 268.02 88.74C269.87 90.59 270.8 92.89 270.8 95.62C270.8 98.35 269.86 100.62 267.99 102.53C266.12 104.44 263.83 105.39 261.14 105.39C258.45 105.39 256.25 104.43 254.35 102.5C252.44 100.57 251.49 98.28 251.49 95.62H251.48ZM270.12 165.08H252.32V114.49L270.12 112.08V165.09V165.08Z" fill="white"/>
<path d="M301.75 165.08H284.17V114.49H300.4V122.97C303.1 119.64 305.96 117.16 308.99 115.53C312.02 113.9 315.32 113.09 318.87 113.09C324.22 113.09 328.28 114.63 331.06 117.69C333.83 120.76 335.22 125.25 335.22 131.17V165.09H317.76V136.12C317.76 133.46 317.22 131.46 316.13 130.11C315.04 128.76 313.43 128.09 311.3 128.09C308.23 128.09 305.87 129.12 304.22 131.18C302.57 133.24 301.75 136.23 301.75 140.16V165.09V165.08Z" fill="white"/>
<path d="M347.65 95.62C347.65 92.92 348.58 90.64 350.46 88.77C352.34 86.9 354.62 85.96 357.31 85.96C360 85.96 362.34 86.89 364.19 88.74C366.04 90.59 366.97 92.89 366.97 95.62C366.97 98.35 366.03 100.62 364.16 102.53C362.29 104.44 360.01 105.39 357.31 105.39C354.61 105.39 352.42 104.43 350.52 102.5C348.61 100.57 347.66 98.28 347.66 95.62H347.65ZM366.29 165.08H348.49V114.49L366.29 112.08V165.09V165.08Z" fill="white"/>
<path d="M380.12 162.77V148.84C384.58 151.69 388.04 153.6 390.51 154.6C392.98 155.59 395.26 156.09 397.36 156.09C399.19 156.09 400.67 155.69 401.8 154.88C402.92 154.08 403.48 153.02 403.48 151.71C403.48 150.59 403.09 149.65 402.3 148.9C401.51 148.15 400.17 147.44 398.26 146.77L391.75 144.47C387.48 143.01 384.24 140.96 382.04 138.32C379.83 135.68 378.73 132.57 378.73 128.97C378.73 123.88 380.51 119.79 384.06 116.7C387.62 113.61 392.35 112.07 398.27 112.07C401 112.07 403.89 112.45 406.95 113.22C410 113.99 413.4 115.18 417.14 116.79L414.95 129.09C412.7 127.18 410.25 125.68 407.59 124.6C404.93 123.52 402.44 122.97 400.12 122.97C398.4 122.97 396.99 123.37 395.91 124.18C394.82 124.99 394.28 126.01 394.28 127.24C394.28 128.29 394.59 129.12 395.21 129.74C395.83 130.36 397.2 131.02 399.34 131.73L405.4 133.92C410.15 135.6 413.55 137.64 415.59 140.04C417.63 142.44 418.65 145.56 418.65 149.42C418.65 155 416.82 159.41 413.15 162.64C409.48 165.88 404.48 167.5 398.16 167.5C395.09 167.5 392.07 167.12 389.09 166.35C386.11 165.58 383.13 164.39 380.13 162.78L380.12 162.77Z" fill="white"/>
<path d="M432.75 148.06V127.79H425.39V114.48H432.75V99.32L450.72 96.9V114.48H462.68V127.79H450.72V149.3C450.72 153.87 451.34 157.17 452.57 159.21C453.81 161.25 456.13 163.13 459.53 164.85L439.54 166.2C437.03 165 435.27 163.22 434.26 160.84C433.25 158.46 432.74 154.21 432.74 148.07L432.75 148.06Z" fill="white"/>
<path d="M489.09 165.08H471.4V114.49H487.85L488.19 123.36C490.21 119.8 492.58 117.22 495.29 115.61C498 114 501.38 113.2 505.43 113.2H506.83V132.07H503.01C497.51 132.07 493.81 132.7 491.92 133.95C490.03 135.2 489.08 138.23 489.08 143.02V165.09L489.09 165.08Z" fill="white"/>
<path d="M567.11 114.48V146.09C567.11 150.06 567.18 153.39 567.33 156.09C567.48 158.79 567.7 161.09 568 163L551.66 167.49L550.09 162.66C547.88 164.31 545.72 165.52 543.6 166.31C541.48 167.1 539.27 167.49 536.95 167.49C530.44 167.49 524.96 164.89 520.53 159.69C516.09 154.49 513.88 148.01 513.88 140.26C513.88 132.1 516.37 125.36 521.35 120.05C526.33 114.73 532.62 112.08 540.22 112.08C541.98 112.08 543.81 112.32 545.72 112.81C547.63 113.3 549.74 114.04 552.07 115.06L567.12 114.5L567.11 114.48ZM549.48 127.34C548.43 126.74 547.43 126.31 546.48 126.05C545.53 125.79 544.58 125.66 543.64 125.66C540.31 125.66 537.5 127.06 535.22 129.84C532.94 132.63 531.79 136.14 531.79 140.37C531.79 144.34 532.79 147.64 534.79 150.28C536.79 152.92 539.24 154.24 542.12 154.24C543.28 154.24 544.47 153.93 545.69 153.31C546.9 152.69 548.17 151.75 549.48 150.47V127.34Z" fill="white"/>
<path d="M625.53 162.21C622.42 163.97 619.36 165.27 616.35 166.11C613.34 166.95 610.24 167.37 607.06 167.37C598.64 167.37 591.72 164.84 586.31 159.79C580.9 154.74 578.2 148.33 578.2 140.59C578.2 132.85 581.11 125.79 586.93 120.35C592.75 114.9 600.06 112.18 608.86 112.18C612.08 112.18 615.22 112.55 618.29 113.27C621.36 114 624.32 115.1 627.16 116.56L625.2 132.28C622.43 130.6 619.76 129.31 617.2 128.43C614.64 127.55 612.25 127.11 610.04 127.11C606.07 127.11 602.78 128.32 600.16 130.73C597.54 133.14 596.23 136.15 596.23 139.74C596.23 143.56 597.44 146.63 599.88 148.95C602.31 151.27 605.51 152.43 609.48 152.43C611.95 152.43 614.59 151.9 617.4 150.83C620.21 149.76 623.46 148.03 627.17 145.64L625.54 162.21H625.53Z" fill="white"/>
<path d="M637 95.62C637 92.92 637.94 90.64 639.81 88.77C641.68 86.9 643.97 85.96 646.66 85.96C649.35 85.96 651.69 86.89 653.54 88.74C655.39 90.59 656.32 92.89 656.32 95.62C656.32 98.35 655.38 100.62 653.51 102.53C651.64 104.44 649.35 105.39 646.66 105.39C643.97 105.39 641.78 104.43 639.87 102.5C637.96 100.57 637.01 98.28 637.01 95.62H637ZM655.64 165.08H637.84V114.49L655.64 112.08V165.09V165.08Z" fill="white"/>
<path d="M666.33 139.75C666.33 131.7 668.96 125.08 674.22 119.87C679.48 114.67 686.13 112.07 694.18 112.07C702.23 112.07 708.95 114.67 714.23 119.87C719.51 125.07 722.15 131.7 722.15 139.75C722.15 147.8 719.51 154.43 714.23 159.66C708.95 164.88 702.27 167.49 694.18 167.49C686.09 167.49 679.52 164.88 674.25 159.66C668.97 154.44 666.33 147.8 666.33 139.75ZM684.3 139.75C684.3 144.05 685.23 147.53 687.08 150.17C688.93 152.81 691.3 154.13 694.18 154.13C697.06 154.13 699.43 152.8 701.28 150.14C703.13 147.48 704.06 144.02 704.06 139.75C704.06 135.48 703.13 132.07 701.28 129.39C699.43 126.71 697.06 125.38 694.18 125.38C691.3 125.38 688.93 126.71 687.08 129.37C685.23 132.03 684.3 135.49 684.3 139.76V139.75ZM685.93 105.83L697.39 86.4H709.86L693.29 105.83H685.93Z" fill="white"/>
<path d="M750.86 165.08H733.28V114.49H749.51V122.97C752.21 119.64 755.07 117.16 758.1 115.53C761.13 113.9 764.43 113.09 767.98 113.09C773.33 113.09 777.39 114.63 780.17 117.69C782.94 120.76 784.33 125.25 784.33 131.17V165.09H766.87V136.12C766.87 133.46 766.33 131.46 765.24 130.11C764.15 128.76 762.54 128.09 760.41 128.09C757.34 128.09 754.98 129.12 753.33 131.18C751.68 133.24 750.86 136.23 750.86 140.16V165.09V165.08Z" fill="white"/>
<path d="M856.94 119.14V165.08L848.35 166.42L847.97 164.23C846.59 164.98 845.24 165.53 843.91 165.89C842.58 166.24 841.22 166.42 839.85 166.42C835.91 166.42 832.84 165.12 830.63 162.51C828.42 159.91 827.32 156.3 827.32 151.7C827.32 146.87 828.62 142.99 831.21 140.08C833.8 137.16 837.24 135.7 841.51 135.7C842.51 135.7 843.47 135.8 844.39 136C845.31 136.2 846.22 136.51 847.14 136.92V120.48L856.95 119.14H856.94ZM847.13 144.08C846.55 143.75 845.99 143.51 845.46 143.36C844.93 143.21 844.4 143.14 843.88 143.14C842.03 143.14 840.46 143.92 839.19 145.47C837.92 147.02 837.28 148.98 837.28 151.33C837.28 153.54 837.84 155.38 838.95 156.85C840.07 158.32 841.42 159.05 843.03 159.05C843.65 159.05 844.31 158.92 844.98 158.66C845.66 158.4 846.37 158 847.12 157.46V144.08H847.13Z" fill="white"/>
<path d="M888.89 155.01L887.8 163.67C885.88 164.59 884 165.26 882.14 165.7C880.28 166.14 878.41 166.36 876.52 166.36C871.83 166.36 868.05 165.01 865.18 162.31C862.3 159.61 860.87 156.1 860.87 151.76C860.87 147.42 862.44 143.42 865.59 140.31C868.73 137.2 872.56 135.64 877.06 135.64C880.91 135.64 884.08 136.78 886.54 139.06C889 141.34 890.24 144.29 890.24 147.92C890.24 148.48 890.2 149.38 890.12 150.61L890.09 150.8L889.21 152.08L869.99 152.61C870.13 154.51 870.93 156.04 872.37 157.22C873.81 158.4 875.62 158.99 877.81 158.99C879.35 158.99 881.06 158.66 882.95 157.99C884.83 157.32 886.82 156.33 888.9 155.02L888.89 155.01ZM870.2 148.35L882.42 147.97V147.53C882.42 146.05 881.9 144.84 880.86 143.89C879.82 142.94 878.5 142.47 876.92 142.47C875.15 142.47 873.67 142.99 872.48 144.02C871.29 145.05 870.53 146.49 870.2 148.35Z" fill="white"/>
<path d="M362.79 263.08V179.02H364.64L415.35 226.53V181.66H433.26V266.17H431.58L380.71 218.67V263.09H362.8L362.79 263.08Z" fill="white"/>
<path d="M497.46 245L495.5 260.55C492.05 262.2 488.67 263.41 485.34 264.2C482.01 264.99 478.64 265.38 475.23 265.38C466.81 265.38 460.01 262.96 454.85 258.11C449.68 253.26 447.1 246.95 447.1 239.16C447.1 231.37 449.93 224.18 455.58 218.58C461.23 212.98 468.1 210.19 476.19 210.19C483.11 210.19 488.8 212.24 493.23 216.34C497.67 220.44 499.88 225.75 499.88 232.26C499.88 233.27 499.8 234.88 499.66 237.09L499.6 237.43L498.03 239.73L463.5 240.69C463.76 244.1 465.19 246.86 467.77 248.97C470.35 251.09 473.61 252.14 477.54 252.14C480.31 252.14 483.39 251.54 486.78 250.34C490.17 249.14 493.73 247.36 497.48 245.01L497.46 245ZM463.88 233.04L485.84 232.37V231.58C485.84 228.92 484.9 226.74 483.03 225.04C481.16 223.34 478.8 222.49 475.96 222.49C472.78 222.49 470.12 223.42 467.99 225.27C465.86 227.12 464.49 229.72 463.89 233.05L463.88 233.04Z" fill="white"/>
<path d="M560.93 212.48V258.36C560.93 263 560.71 266.49 560.26 268.83C559.81 271.17 559.08 273.31 558.07 275.26C555.97 279.3 552.92 282.36 548.92 284.44C544.91 286.52 540.07 287.56 534.38 287.56C530.97 287.56 527.52 287.18 524.02 286.44C520.52 285.69 516.8 284.53 512.87 282.96L512.65 268.92C516.39 270.94 519.8 272.43 522.87 273.38C525.94 274.34 528.82 274.81 531.52 274.81C535.45 274.81 538.5 273.87 540.67 272C542.84 270.13 543.93 267.49 543.93 264.08V260.66C541.91 261.93 539.9 262.87 537.92 263.47C535.93 264.07 533.84 264.37 531.63 264.37C524.48 264.37 518.71 261.98 514.31 257.18C509.91 252.39 507.71 246.08 507.71 238.26C507.71 230.44 510.2 223.41 515.18 218.07C520.16 212.74 526.45 210.07 534.05 210.07C535.81 210.07 537.64 210.31 539.55 210.8C541.46 211.29 543.57 212.03 545.9 213.05L560.95 212.49L560.93 212.48ZM543.3 225.34C542.25 224.74 541.25 224.31 540.3 224.05C539.34 223.79 538.4 223.66 537.46 223.66C534.13 223.66 531.32 225.06 529.04 227.84C526.76 230.63 525.61 234.14 525.61 238.37C525.61 242.34 526.61 245.64 528.61 248.28C530.61 250.92 533.05 252.24 535.94 252.24C537.06 252.24 538.25 251.92 539.51 251.29C540.76 250.65 542.03 249.72 543.3 248.48V225.35V225.34Z" fill="white"/>
<path d="M571.84 237.75C571.84 229.7 574.47 223.08 579.73 217.87C584.99 212.67 591.64 210.07 599.69 210.07C607.74 210.07 614.46 212.67 619.74 217.87C625.02 223.07 627.66 229.7 627.66 237.75C627.66 245.8 625.02 252.43 619.74 257.66C614.46 262.88 607.78 265.49 599.69 265.49C591.6 265.49 585.03 262.88 579.76 257.66C574.48 252.44 571.84 245.8 571.84 237.75ZM589.81 237.75C589.81 242.05 590.74 245.53 592.59 248.17C594.44 250.81 596.81 252.13 599.69 252.13C602.57 252.13 604.94 250.8 606.79 248.14C608.64 245.48 609.57 242.02 609.57 237.75C609.57 233.48 608.64 230.07 606.79 227.39C604.94 224.71 602.57 223.38 599.69 223.38C596.81 223.38 594.44 224.71 592.59 227.37C590.74 230.03 589.81 233.49 589.81 237.76V237.75Z" fill="white"/>
<path d="M682.93 260.21C679.82 261.97 676.76 263.27 673.75 264.11C670.74 264.95 667.64 265.37 664.46 265.37C656.04 265.37 649.12 262.84 643.71 257.79C638.3 252.74 635.59 246.33 635.59 238.59C635.59 230.85 638.5 223.79 644.32 218.35C650.14 212.9 657.45 210.18 666.25 210.18C669.47 210.18 672.61 210.55 675.68 211.27C678.75 212 681.71 213.1 684.55 214.56L682.59 230.28C679.82 228.6 677.15 227.31 674.59 226.43C672.03 225.55 669.64 225.11 667.43 225.11C663.46 225.11 660.17 226.32 657.55 228.73C654.93 231.14 653.62 234.15 653.62 237.74C653.62 241.56 654.84 244.63 657.27 246.95C659.7 249.27 662.9 250.43 666.87 250.43C669.34 250.43 671.98 249.9 674.79 248.83C677.6 247.76 680.85 246.03 684.56 243.64L682.93 260.21Z" fill="white"/>
<path d="M694.4 193.62C694.4 190.92 695.34 188.64 697.21 186.77C699.08 184.9 701.37 183.96 704.06 183.96C706.75 183.96 709.09 184.89 710.94 186.74C712.79 188.59 713.72 190.89 713.72 193.62C713.72 196.35 712.78 198.62 710.91 200.53C709.04 202.44 706.75 203.39 704.06 203.39C701.37 203.39 699.18 202.43 697.27 200.5C695.36 198.57 694.41 196.28 694.41 193.62H694.4ZM713.04 263.08H695.24V212.49L713.04 210.08V263.09V263.08Z" fill="white"/>
<path d="M723.73 237.75C723.73 229.7 726.36 223.08 731.62 217.87C736.88 212.67 743.53 210.07 751.58 210.07C759.63 210.07 766.35 212.67 771.63 217.87C776.91 223.07 779.551 229.7 779.551 237.75C779.551 245.8 776.91 252.43 771.63 257.66C766.35 262.88 759.67 265.49 751.58 265.49C743.49 265.49 736.921 262.88 731.651 257.66C726.371 252.44 723.73 245.8 723.73 237.75ZM741.7 237.75C741.7 242.05 742.63 245.53 744.48 248.17C746.33 250.81 748.7 252.13 751.58 252.13C754.46 252.13 756.831 250.8 758.681 248.14C760.531 245.48 761.46 242.02 761.46 237.75C761.46 233.48 760.531 230.07 758.681 227.39C756.831 224.71 754.46 223.38 751.58 223.38C748.7 223.38 746.33 224.71 744.48 227.37C742.63 230.03 741.7 233.49 741.7 237.76V237.75Z" fill="white"/>
<path d="M790.46 260.77V246.84C794.92 249.69 798.38 251.6 800.85 252.6C803.32 253.59 805.6 254.09 807.7 254.09C809.53 254.09 811.01 253.69 812.14 252.88C813.26 252.08 813.82 251.02 813.82 249.71C813.82 248.59 813.43 247.65 812.64 246.9C811.85 246.15 810.51 245.44 808.6 244.77L802.09 242.47C797.82 241.01 794.58 238.96 792.38 236.32C790.17 233.68 789.07 230.57 789.07 226.97C789.07 221.88 790.85 217.79 794.4 214.7C797.96 211.61 802.69 210.07 808.61 210.07C811.34 210.07 814.23 210.45 817.29 211.22C820.34 211.99 823.74 213.18 827.48 214.79L825.29 227.09C823.04 225.18 820.59 223.68 817.93 222.6C815.27 221.52 812.78 220.97 810.46 220.97C808.74 220.97 807.33 221.37 806.25 222.18C805.16 222.99 804.62 224.01 804.62 225.24C804.62 226.29 804.93 227.12 805.55 227.74C806.17 228.36 807.54 229.02 809.68 229.73L815.74 231.92C820.49 233.6 823.89 235.64 825.93 238.04C827.97 240.44 828.99 243.56 828.99 247.42C828.99 253 827.16 257.41 823.49 260.64C819.82 263.88 814.82 265.5 808.5 265.5C805.43 265.5 802.41 265.12 799.43 264.35C796.45 263.58 793.47 262.39 790.47 260.78L790.46 260.77Z" fill="white"/>
<path d="M866.981 263.08L854.641 228.76H867.511L873.031 246.47L879.851 228.76H890.441L868.921 279.68H856.051C857.981 277.85 859.761 275.79 861.401 273.49C863.041 271.19 864.451 268.74 865.651 266.12L866.981 263.07V263.08Z" fill="white"/>
<path d="M115.53 361.08L132.43 277.02H133.83L164.55 330.03L193.52 277.02H194.98L211.99 361.08H193.52L186.61 323.91L164.77 364.06H163.48L140.01 323.35L132.88 361.08H115.53Z" fill="white"/>
<path d="M269.41 343L267.44 358.55C264 360.2 260.61 361.41 257.28 362.2C253.95 362.99 250.58 363.38 247.17 363.38C238.75 363.38 231.95 360.96 226.79 356.11C221.62 351.26 219.04 344.95 219.04 337.16C219.04 329.37 221.87 322.18 227.52 316.58C233.17 310.98 240.04 308.19 248.13 308.19C255.06 308.19 260.74 310.24 265.17 314.34C269.61 318.44 271.82 323.75 271.82 330.26C271.82 331.27 271.74 332.88 271.6 335.09L271.54 335.43L269.97 337.73L235.44 338.69C235.7 342.1 237.12 344.86 239.71 346.97C242.29 349.09 245.55 350.14 249.48 350.14C252.25 350.14 255.33 349.54 258.72 348.34C262.11 347.14 265.67 345.36 269.42 343.01L269.41 343ZM235.83 331.04L257.79 330.37V329.58C257.79 326.92 256.85 324.74 254.98 323.04C253.11 321.34 250.75 320.49 247.9 320.49C244.72 320.49 242.06 321.42 239.93 323.27C237.8 325.12 236.43 327.72 235.83 331.05V331.04Z" fill="white"/>
<path d="M300.42 361.08H282.73V310.49H299.18L299.52 319.36C301.54 315.8 303.91 313.22 306.62 311.61C309.33 310 312.71 309.2 316.75 309.2H318.15V328.07H314.33C308.83 328.07 305.13 328.7 303.24 329.95C301.35 331.2 300.4 334.23 300.4 339.02V361.09L300.42 361.08Z" fill="white"/>
<path d="M372.43 358.21C369.32 359.97 366.26 361.27 363.25 362.11C360.24 362.95 357.14 363.37 353.96 363.37C345.54 363.37 338.62 360.84 333.21 355.79C327.8 350.74 325.1 344.33 325.1 336.59C325.1 328.85 328.01 321.79 333.83 316.35C339.65 310.9 346.96 308.18 355.76 308.18C358.98 308.18 362.12 308.55 365.19 309.27C368.26 310 371.22 311.1 374.06 312.56L372.1 328.28C369.33 326.6 366.66 325.31 364.1 324.43C361.54 323.55 359.15 323.11 356.94 323.11C352.97 323.11 349.68 324.32 347.06 326.73C344.44 329.14 343.13 332.15 343.13 335.74C343.13 339.56 344.34 342.63 346.78 344.95C349.21 347.27 352.41 348.43 356.38 348.43C358.85 348.43 361.49 347.9 364.3 346.83C367.11 345.76 370.36 344.03 374.07 341.64L372.44 358.21H372.43Z" fill="white"/>
<path d="M435.34 310.48V342.09C435.34 346.06 435.41 349.39 435.56 352.09C435.71 354.79 435.93 357.09 436.23 359L419.89 363.49L418.32 358.66C416.11 360.31 413.95 361.52 411.83 362.31C409.71 363.1 407.5 363.49 405.18 363.49C398.67 363.49 393.19 360.89 388.76 355.69C384.32 350.49 382.11 344.01 382.11 336.26C382.11 328.1 384.6 321.36 389.58 316.05C394.56 310.73 400.85 308.08 408.45 308.08C410.21 308.08 412.04 308.32 413.95 308.81C415.86 309.3 417.97 310.04 420.3 311.06L435.35 310.5L435.34 310.48ZM417.71 323.34C416.66 322.74 415.66 322.31 414.71 322.05C413.75 321.79 412.81 321.66 411.87 321.66C408.54 321.66 405.73 323.06 403.45 325.84C401.17 328.63 400.02 332.14 400.02 336.37C400.02 340.34 401.02 343.64 403.02 346.28C405.02 348.92 407.46 350.24 410.35 350.24C411.51 350.24 412.7 349.93 413.92 349.31C415.14 348.69 416.4 347.75 417.71 346.47V323.34Z" fill="white"/>
<path d="M499.76 278.53V361.07L484.32 363.48L483.65 359.55C481.18 360.9 478.74 361.89 476.35 362.53C473.95 363.17 471.52 363.48 469.05 363.48C461.97 363.48 456.45 361.14 452.48 356.46C448.51 351.78 446.53 345.3 446.53 337.03C446.53 328.35 448.86 321.38 453.52 316.14C458.18 310.9 464.35 308.28 472.02 308.28C473.82 308.28 475.54 308.46 477.19 308.81C478.84 309.17 480.48 309.72 482.13 310.47V280.93L499.76 278.51V278.53ZM482.13 323.34C481.08 322.74 480.08 322.31 479.13 322.05C478.18 321.79 477.23 321.66 476.29 321.66C472.96 321.66 470.15 323.06 467.87 325.84C465.59 328.63 464.44 332.14 464.44 336.37C464.44 340.34 465.44 343.64 467.44 346.28C469.44 348.92 471.89 350.24 474.77 350.24C475.89 350.24 477.06 350.01 478.28 349.54C479.5 349.07 480.78 348.35 482.13 347.38V323.35V323.34Z" fill="white"/>
<path d="M510.67 335.75C510.67 327.7 513.3 321.08 518.56 315.87C523.82 310.67 530.47 308.07 538.52 308.07C546.57 308.07 553.29 310.67 558.57 315.87C563.85 321.07 566.49 327.7 566.49 335.75C566.49 343.8 563.85 350.43 558.57 355.66C553.29 360.88 546.61 363.49 538.52 363.49C530.43 363.49 523.86 360.88 518.59 355.66C513.31 350.44 510.67 343.8 510.67 335.75ZM528.64 335.75C528.64 340.05 529.57 343.53 531.42 346.17C533.27 348.81 535.64 350.13 538.52 350.13C541.4 350.13 543.77 348.8 545.62 346.14C547.47 343.48 548.4 340.02 548.4 335.75C548.4 331.48 547.47 328.07 545.62 325.39C543.77 322.71 541.4 321.38 538.52 321.38C535.64 321.38 533.27 322.71 531.42 325.37C529.57 328.03 528.64 331.49 528.64 335.76V335.75Z" fill="white"/>
<path d="M580.49 344.06V323.79H573.13V310.48H580.49V295.32L598.46 292.9V310.48H610.42V323.79H598.46V345.3C598.46 349.87 599.08 353.17 600.31 355.21C601.55 357.25 603.87 359.13 607.27 360.85L587.28 362.2C584.77 361 583.01 359.22 582 356.84C580.99 354.46 580.48 350.21 580.48 344.07L580.49 344.06Z" fill="white"/>
<path d="M666.311 343L664.34 358.55C660.9 360.2 657.511 361.41 654.181 362.2C650.851 362.99 647.48 363.38 644.07 363.38C635.65 363.38 628.85 360.96 623.69 356.11C618.52 351.26 615.94 344.95 615.94 337.16C615.94 329.37 618.771 322.18 624.421 316.58C630.071 310.98 636.941 308.19 645.031 308.19C651.961 308.19 657.64 310.24 662.07 314.34C666.51 318.44 668.72 323.75 668.72 330.26C668.72 331.27 668.64 332.88 668.5 335.09L668.44 335.43L666.87 337.73L632.34 338.69C632.6 342.1 634.02 344.86 636.61 346.97C639.19 349.09 642.45 350.14 646.38 350.14C649.15 350.14 652.23 349.54 655.62 348.34C659.01 347.14 662.57 345.36 666.32 343.01L666.311 343ZM632.73 331.04L654.69 330.37V329.58C654.69 326.92 653.75 324.74 651.88 323.04C650.01 321.34 647.651 320.49 644.801 320.49C641.621 320.49 638.96 321.42 636.83 323.27C634.7 325.12 633.33 327.72 632.73 331.05V331.04Z" fill="white"/>
<path d="M723.77 358.21C720.66 359.97 717.6 361.27 714.59 362.11C711.58 362.95 708.48 363.37 705.3 363.37C696.88 363.37 689.96 360.84 684.55 355.79C679.14 350.74 676.43 344.33 676.43 336.59C676.43 328.85 679.34 321.79 685.16 316.35C690.98 310.9 698.29 308.18 707.09 308.18C710.31 308.18 713.45 308.55 716.52 309.27C719.59 310 722.55 311.1 725.39 312.56L723.43 328.28C720.66 326.6 717.99 325.31 715.43 324.43C712.87 323.55 710.48 323.11 708.27 323.11C704.3 323.11 701.01 324.32 698.39 326.73C695.77 329.14 694.46 332.15 694.46 335.74C694.46 339.56 695.68 342.63 698.11 344.95C700.54 347.27 703.74 348.43 707.71 348.43C710.18 348.43 712.82 347.9 715.63 346.83C718.44 345.76 721.69 344.03 725.4 341.64L723.77 358.21Z" fill="white"/>
<path d="M754.11 361.08H736.53V310.49H752.76V318.97C755.46 315.64 758.32 313.16 761.35 311.53C764.38 309.9 767.68 309.09 771.23 309.09C776.58 309.09 780.64 310.63 783.41 313.69C786.18 316.76 787.57 321.25 787.57 327.17V361.09H770.11V332.12C770.11 329.46 769.57 327.46 768.48 326.11C767.39 324.76 765.78 324.09 763.65 324.09C760.58 324.09 758.22 325.12 756.57 327.18C754.92 329.24 754.1 332.23 754.1 336.16V361.09L754.11 361.08Z" fill="white"/>
<path d="M800.01 291.62C800.01 288.92 800.94 286.64 802.82 284.77C804.69 282.9 806.98 281.96 809.67 281.96C812.36 281.96 814.7 282.89 816.55 284.74C818.4 286.59 819.33 288.89 819.33 291.62C819.33 294.35 818.39 296.62 816.52 298.53C814.65 300.44 812.36 301.39 809.67 301.39C806.98 301.39 804.78 300.43 802.88 298.5C800.97 296.57 800.02 294.28 800.02 291.62H800.01ZM818.65 361.08H800.85V310.49L818.65 308.08V361.09V361.08Z" fill="white"/>
<path d="M882.85 310.48V342.09C882.85 346.06 882.93 349.39 883.07 352.09C883.21 354.79 883.44 357.09 883.74 359L867.4 363.49L865.83 358.66C863.62 360.31 861.46 361.52 859.34 362.31C857.22 363.1 855.01 363.49 852.69 363.49C846.18 363.49 840.7 360.89 836.27 355.69C831.83 350.49 829.62 344.01 829.62 336.26C829.62 328.1 832.11 321.36 837.09 316.05C842.07 310.73 848.36 308.08 855.96 308.08C857.72 308.08 859.55 308.32 861.46 308.81C863.37 309.3 865.48 310.04 867.8 311.06L882.85 310.5V310.48ZM865.22 323.34C864.17 322.74 863.17 322.31 862.22 322.05C861.26 321.79 860.32 321.66 859.38 321.66C856.05 321.66 853.24 323.06 850.96 325.84C848.68 328.63 847.54 332.14 847.54 336.37C847.54 340.34 848.54 343.64 850.54 346.28C852.54 348.92 854.98 350.24 857.87 350.24C859.03 350.24 860.22 349.93 861.44 349.31C862.66 348.69 863.92 347.75 865.23 346.47V323.34H865.22Z" fill="white"/>
</svg>
